<svg xmlns="http://www.w3.org/2000/svg" viewBox="0 0 100 130"><defs><style>.a{fill:#498205;}.b{fill:none;}.c{fill:#dae235;}.d{fill:#94c43d;}</style></defs><path class="a" d="M3.88943,119.37929v-3.60287a8.8725,8.8725,0,0,1-1.58692,2.132q-.95838.95824-1.27263.95824-.59529,0-.59529-.71051a.62521.62521,0,0,1,.17348-.38848,3.84708,3.84708,0,0,1,.55374-.50379,9.13542,9.13542,0,0,0,2.54581-2.85966H1.39349q-.7441,0-.74385-.61129,0-.5952.74385-.5952h2.496v-1.55344h-2.711a.88005.88005,0,0,1-.55373-.14023.55094.55094,0,0,1-.1735-.45493q0-.61077.72723-.6113h1.0581a18.80618,18.80618,0,0,0-.39685-2.26445l-.01662-.13192h-.5782a.53361.53361,0,0,1-.59528-.61182.526.526,0,0,1,.59528-.59468H3.84008v-.94214q0-.84294.694-.84294.69425,0,.69451.84294v.94214H7.80711a.51883.51883,0,0,1,.57866.59468q0,.61155-.57866.61182H7.06327l-.46283,2.39637H7.87308q.72774,0,.72774.6113a.55115.55115,0,0,1-.174.45493.87915.87915,0,0,1-.55372.14023H5.17869v1.55344H7.65852q.74334,0,.74385.61181,0,.5952-.74385.59469H5.17869v1.2065a.61318.61318,0,0,1,.57862-.33032,2.688,2.688,0,0,1,1.10747.62791q.8267.62871.82643.95876a.53317.53317,0,0,1-.59476.6113,1.12207,1.12207,0,0,1-.64463-.34695l-1.27317-1.1073v3.35513q0,.77673-.64464.777Q3.88969,120.15627,3.88943,119.37929ZM5.87319,108.124v-.08257H2.98039q.19791.82656.413,2.36313v.03324H5.44312ZM12.452,119.3133v-7.53655H10.25368l-.03325,1.15664a13.22362,13.22362,0,0,1-.95889,5.23941q-.84306,1.71859-1.5038,1.7186a.63547.63547,0,0,1-.71112-.72712,1.90191,1.90191,0,0,1,.52932-.87566,4.7899,4.7899,0,0,0,.87578-1.60329,10.302,10.302,0,0,0,.46283-2.347q.11532-1.33842.14908-3.50368L9.047,107.694a1.73551,1.73551,0,0,1,.281-1.07406,2.23949,2.23949,0,0,1,1.30588-.52872q1.12356-.19866,1.76871-.36356.47919-.11607.54542-.13244-.11608.03351.71061-.18178a3.25282,3.25282,0,0,1,.5288-.13244q.74409,0,.74436.7936,0,.41294-.61191.56192-2.09909.51262-3.30575.6939-.72777.09971-.72775,1.14052V110.471h4.62878q.61089,0,.61139.66116,0,.64427-.61139.64453H13.80773v7.53661q0,.80944-.67788.8097-.67786,0-.67788-.8097Z"/><path class="a" d="M25.52747,107.92561v1.5207h4.51244a1.82937,1.82937,0,0,1,1.25653.39628,1.51831,1.51831,0,0,1,.39634,1.19039v7.08994a1.8374,1.8374,0,0,1-.44621,1.43813,2.10119,2.10119,0,0,1-1.45445.46277h-1.0249q-.86019,0-.85968-.72712,0-.71129.85968-.711h.92565a.63125.63125,0,0,0,.46283-.14855.70878.70878,0,0,0,.16519-.47937v-6.56118a.63232.63232,0,0,0-.6945-.69441H27.95693l-.36361,2.0167h1.0249q.69423,0,.6945.59468,0,.57883-.6945.57857H25.51086v1.45431h3.38836q.69426,0,.69451.61181,0,.57885-.69451.57806H25.51086v2.42963q0,.79389-.66126.79361-.66151,0-.66126-.79361V116.5363H20.89869q-.69423,0-.694-.57806,0-.61155.694-.61181h3.28965v-1.45429H21.147q-.69423,0-.6945-.59519,0-.57805.6945-.57806h1.00827l-.34751-2.0167h-1.603q-.64515,0-.67788.6944v7.83418q0,.82581-.6945.82632-.69424,0-.694-.82632V111.099a1.82636,1.82636,0,0,1,.39686-1.25635,1.52021,1.52021,0,0,1,1.256-.39628H24.1551v-1.52075H18.25419q-.76047,0-.76047-.64453,0-.62792.76047-.62791H24.1551v-.84294a.6067.6067,0,0,1,.67788-.6944.61392.61392,0,0,1,.6945.6944v.84294h6.05q.776,0,.77658.62791,0,.64428-.77658.64453Zm1.17343,2.77659H23.04764l.38024,2.0001h2.89279Z"/><path class="a" d="M36.99893,112.90067a4.65879,4.65879,0,0,1-2.13233.82632q-.57891,0-.57866-.66116,0-.47913.64463-.67778,2.59541-.76035,3.17382-2.36365h-2.8928q-.66074,0-.66126-.57805,0-.57883.66126-.57859h3.0746l.0826-1.45423H36.50286a5.42586,5.42586,0,0,1-.6197.85072q-.27271.28981-.45452.2893a.53309.53309,0,0,1-.61138-.59468,1.9647,1.9647,0,0,1,.39633-.72765,8.72852,8.72852,0,0,0,.85969-1.61939.75729.75729,0,0,1,.7106-.54534q.64514,0,.64463.46276a2.03673,2.03673,0,0,1-.29712.74374H41.7929q.64438,0,.64463.57857,0,.56172-.64463.56192h-2.149l-.06649,1.45423H41.9248q.64514,0,.64462.57858a.55928.55928,0,0,1-.15686.43783.71788.71788,0,0,1-.48776.14023H39.39565a3.26366,3.26366,0,0,1-.29712.90942.51314.51314,0,0,1,.37972-.14906,2.36566,2.36566,0,0,1,.63684.17347,11.59215,11.59215,0,0,1,1.13187.50431q1.28955.62792,1.28979.94213,0,.5952-.62853.59468a2.90079,2.90079,0,0,1-.909-.42951q-.71058-.413-1.37185-.72713a2.37127,2.37127,0,0,1-.59529-.34694.29949.29949,0,0,1-.066-.33084A5.7828,5.7828,0,0,1,36.99893,112.90067Zm10.282.8097a1.74362,1.74362,0,0,1,.413,1.20649v3.09078a1.84328,1.84328,0,0,1-.413,1.27246,1.55177,1.55177,0,0,1-1.25654.3968H37.776a1.7184,1.7184,0,0,1-1.25655-.3968,1.65162,1.65162,0,0,1-.413-1.27246v-3.02482a1.84331,1.84331,0,0,1,.413-1.27245,1.583,1.583,0,0,1,1.19006-.3968H46.0243a1.61845,1.61845,0,0,1,1.25655.3968Zm-.97551,1.33841q0-.52819-.562-.54534H38.057a.50808.50808,0,0,0-.562.54534v.81022h8.81032Zm0,1.95071H37.495v.92555a.54231.54231,0,0,0,.14025.41294.65258.65258,0,0,0,.42179.14906h7.68625a.54268.54268,0,0,0,.41348-.14075.6535.6535,0,0,0,.14856-.42121Zm2.25647-10.429a1.26964,1.26964,0,0,1,.28933,1.0081v3.68545a1.43925,1.43925,0,0,1-.31427,1.033,1.22839,1.22839,0,0,1-1.00824.27267H44.27217a1.46491,1.46491,0,0,1-1.03319-.306,1.24057,1.24057,0,0,1-.28932-.99978v-3.68545a1.44012,1.44012,0,0,1,.31426-1.033,1.27,1.27,0,0,1,1.00825-.28928h3.2564a1.44057,1.44057,0,0,1,1.03323.3143Zm-1.03318,4.14822V108.124q0-.67777-.64463-.64453h-1.9838q-.66152,0-.64464.64453v2.59479q0,.66141.64464.64453H46.884q.67788,0,.64464-.64453Z"/><path class="a" d="M51.35538,110.40457a.48777.48777,0,0,1-.15739-.39628q0-.47912.51269-.51261l2.51256-.14855.09922-.01662v-.72708H52.32207a.56606.56606,0,0,1-.388-.12412.44749.44749,0,0,1-.14077-.35526q0-.46275.5288-.46276h2.00038v-.69439H51.92573q-.56258,0-.562-.49548,0-.49626.562-.496h2.39672v-.39684q0-.57806.64463-.57858.628,0,.628.57858v.3968h2.18219q.5454,0,.54541.496,0,.49548-.54541.49548H55.59512v.69439h1.78534q.54542,0,.54541.47939,0,.46277-.54541.46275H55.59512v.6113l1.95052-.13192a.453.453,0,0,1,.52932.49549.44612.44612,0,0,1-.39686.47937l-2.083.16516v.33084q0,.54534-.628.54534-.64437,0-.64463-.54534v-.215l-2.54581.18179A.57141.57141,0,0,1,51.35538,110.40457Zm14.90187,3.1074q0,.51261-.59528.51209H64.55451v.3968a1.47822,1.47822,0,0,1-.33089,1.06627,1.37776,1.37776,0,0,1-1.05759.322H53.24772a.71991.71991,0,0,1-.47893-.14023.48156.48156,0,0,1-.16566-.38849q0-.529.64464-.52872h9.52144a.37589.37589,0,0,0,.28933-.09919.52251.52251,0,0,0,.10752-.31423v-.31422H51.90913a.68657.68657,0,0,1-.45452-.13192.46912.46912,0,0,1-.15738-.38017q0-.51184.6119-.51263h11.257v-.28045a.39645.39645,0,0,0-.09089-.28929.47609.47609,0,0,0-.306-.10752H53.39684a.71955.71955,0,0,1-.47945-.14074.53887.53887,0,0,1-.01444-.762l.01444-.01444a.72247.72247,0,0,1,.47945-.14075h9.76922a1.50447,1.50447,0,0,1,1.08253.33083,1.31024,1.31024,0,0,1,.306,1.04085v.36355H65.662Q66.25726,112.99936,66.25725,113.512ZM53.76042,116.9663a3.66,3.66,0,0,1-.628,1.52072q-.61165,1.00731-1.174.95823-.72775-.08258-.628-.66115a1.29259,1.29259,0,0,1,.24777-.47938,14.06129,14.06129,0,0,0,.87631-1.5202.73325.73325,0,0,1,.64464-.46276.57715.57715,0,0,1,.66127.64454Zm9.00044.23943a.73256.73256,0,0,1,.1735.53755,2.16527,2.16527,0,0,1-.562,1.66926,2.07507,2.07507,0,0,1-1.01656.36355,16.96789,16.96789,0,0,1-2.35517.1153,17.15963,17.15963,0,0,1-3.71924-.21449.93541.93541,0,0,1-.64516-.97539v-1.917a.66147.66147,0,0,1,1.32251,0v1.25581a1.118,1.118,0,0,0,.06649.47938.329.329,0,0,0,.281.13244,19.891,19.891,0,0,0,2.3801.0992h.80982q.794-.01714,1.15733-.04986a2.00215,2.00215,0,0,0,.59477-.13193.38265.38265,0,0,0,.22336-.27267,4.59825,4.59825,0,0,0,.10753-.66947.69052.69052,0,0,1,.19843-.43834.62183.62183,0,0,1,.4462-.15685A.73453.73453,0,0,1,62.76086,117.20573Zm-4.73579-.15685a.62582.62582,0,0,1-.24777-.41342q0-.52821.61138-.52872a1.80864,1.80864,0,0,1,1.00825.52872q.56178.49626.562.82688,0,.57806-.64463.57806a.60008.60008,0,0,1-.33036-.14855q-.19869-.14879-.562-.47938Zm.38024-7.22237q0-.49625.562-.496h2.51257v-.72708H59.41351q-.52905,0-.52879-.47938,0-.46275.52879-.46276h2.06636v-.69439H59.18235q-.56256,0-.562-.49548,0-.49626.562-.496h2.29752v-.39684q0-.57806.628-.57858.66072,0,.66125.57858v.3968h2.54581q.56178,0,.562.496,0,.49548-.562.49548H62.76911v.69439h2.03311q.56179,0,.562.47939,0,.46277-.562.46275H62.76911v.72712h2.61178q.5618,0,.562.496,0,.49548-.562.49549H62.76911v.23163q0,.54534-.66125.54534-.628,0-.628-.54534V110.322H58.9673Q58.4048,110.322,58.40531,109.82651Zm7.6369,8.84229a.527.527,0,0,1-.19843.43782.7755.7755,0,0,1-.49608.15686.66953.66953,0,0,1-.388-.10752,1.3662,1.3662,0,0,1-.32258-.33863q-.14881-.215-.32206-.42951-.17376-.215-.27323-.34746a4.53867,4.53867,0,0,1-.82644-1.27246q0-.5952.6945-.5952.44649,0,1.28927,1.02472A2.97509,2.97509,0,0,1,66.04221,118.6688Z"/><path class="a" d="M83.25042,119.51173a.56262.56262,0,0,1-.628.64455,8.03917,8.03917,0,0,1-3.96752-1.0912,5.24755,5.24755,0,0,1-2.5453-2.975H73.79546v2.38028l2.61125-.43a.42023.42023,0,0,1,.42179.11582.69366.69366,0,0,1,.14025.46276.56379.56379,0,0,1-.23116.46276,2.35758,2.35758,0,0,1-.63632.18178q-.554.11529-1.34744.24825a32.97562,32.97562,0,0,1-3.47146.54534.54808.54808,0,0,1-.61139-.62843.61625.61625,0,0,1,.13246-.36356q.14881-.23139,1.02487-.33032l.7106-.066v-2.57865H70.39a10.95906,10.95906,0,0,1-.64464,2.80979q-.41373,1.107-.94228,1.10731-.67788,0-.67788-.71051a1.57024,1.57024,0,0,1,.23169-.6279,9.766,9.766,0,0,0,.84306-4.59488V112.8508q0-1.23948,1.35523-1.23974H82.2588q.61086,0,.61138.496a.45143.45143,0,0,1-.14856.38018.75193.75193,0,0,1-.46282.11581h-11.191a.554.554,0,0,0-.54542.29761l-.0826,2.198h12.0335q.61165,0,.6119.496,0,.49548-.6119.49548H77.33288a4.46837,4.46837,0,0,0,1.28926,1.554l2.1157-1.273a.77262.77262,0,0,1,.39686-.14854q.66072,0,.66126.57858,0,.43-2.23154,1.355l-.04988.01662a10.96863,10.96863,0,0,0,3.07462.6939Q83.2499,118.94926,83.25042,119.51173Zm-13.76948-9.88362V107.347q0-1.23947,1.30589-1.23922h2.49593v-.3968q0-.66065.57867-.66116.59529,0,.59477.66116v.39679H77.068v-.3968q0-.66065.59529-.66116.59529,0,.59528.66116v.3968h2.56192q1.28951,0,1.28926,1.23922v2.28107a1.125,1.125,0,0,1-1.28926,1.25581H70.78682Q69.48093,110.884,69.48094,109.62811Zm1.22329-1.63654h2.57853v-.92551h-2.1157a.40924.40924,0,0,0-.46282.46276Zm0,1.45479a.40908.40908,0,0,0,.46283.46276h2.1157v-.992H70.70423Zm10.645,3.90046q.59531,0,.59529.47938,0,.47913-.59529.47886H71.86106q-.57891,0-.57866-.47886,0-.47912.57866-.47938Zm-6.893-6.28074v.92551h2.61177v-.92553Zm0,1.851v.992h2.61177v-.992Zm3.80235-.92552H80.903v-.46276a.40928.40928,0,0,0-.46283-.46276H78.25854Zm0,1.91752h2.18167a.409.409,0,0,0,.46283-.46276v-.52924H78.25854Z"/><path class="a" d="M99.15223,106.09951a1.92353,1.92353,0,0,1,.41348,1.38v10.70994a1.89586,1.89586,0,0,1-.41348,1.36335,1.81562,1.81562,0,0,1-1.33914.42172H87.4652a1.81348,1.81348,0,0,1-1.33862-.42172,1.89348,1.89348,0,0,1-.41348-1.36335V107.47948a1.9211,1.9211,0,0,1,.41348-1.38,1.81344,1.81344,0,0,1,1.33862-.42173H97.81307A1.81561,1.81561,0,0,1,99.15223,106.09951Zm-.92566,1.59447a.738.738,0,0,0-.84306-.82632H87.8953a.73789.73789,0,0,0-.84306.82632v10.24718a.73817.73817,0,0,0,.84306.82687h9.4882a.74507.74507,0,0,0,.84306-.84293Zm-5.1903,9.02458a.45661.45661,0,0,1,.49554.49548.44356.44356,0,0,1-.12363.31422.75865.75865,0,0,1-.3392.1984,14.54887,14.54887,0,0,1-1.78533.38849q-.9911.1566-1.22277.18957-.166.01713-.57868.0831a1.15191,1.15191,0,0,1-.21505.0161q-.59531,0-.59477-.56192,0-.44563.56152-.5121.36387-.04986,1.27316-.18179v-1.339a16.80744,16.80744,0,0,1-2.11572.90941.76475.76475,0,0,1-.31425.066.50882.50882,0,0,1-.38855-.14906.55387.55387,0,0,1-.14024-.39628q0-.36381.42958-.496a15.339,15.339,0,0,0,3.00864-1.2065H89.77984a1.09607,1.09607,0,0,1-.81033-.281,1.07133,1.07133,0,0,1-.281-.79308v-.76036a.896.896,0,0,1,.99213-.992H95.499a1.13906,1.13906,0,0,1,.80981.26436,1.03944,1.03944,0,0,1,.281.7936v.6944a.96442.96442,0,0,1-1.10745,1.07406h-3.058a8.75638,8.75638,0,0,1-.80981.6279v1.80173l1.27263-.23164A.5095.5095,0,0,1,93.03627,116.71856Zm4.66151-6.1322q0,.51261-.57867.51261h-8.976q-.54541,0-.54542-.51261,0-.49548.54542-.49549h3.83507v-.8928h-3.0746q-.54543,0-.54543-.49547,0-.49626.54543-.496h3.0746v-.496q0-.57807.64464-.57806a.72712.72712,0,0,1,.48776.14854.53444.53444,0,0,1,.17349.42952v.496h3.09122q.5454,0,.54542.496,0,.49548-.54542.49548H93.284v.89279h3.83507Q97.69726,110.09087,97.69778,110.58636ZM90.292,113.57791h4.67813a.37871.37871,0,0,0,.281-.09921.51262.51262,0,0,0,.09922-.36355q0-.4464-.38024-.44615H90.292q-.38023,0-.38023.44615,0,.46278.38023.46278Zm7.17408,4.08225a.6772.6772,0,0,1-.0826.2976.52166.52166,0,0,1-.47944.2976.76813.76813,0,0,1-.39687-.13244,36.84514,36.84514,0,0,0-3.60339-2.08216.53056.53056,0,0,1-.33037-.46276.44894.44894,0,0,1,.14024-.35525.51467.51467,0,0,1,.3553-.12413.63045.63045,0,0,1,.24831.04935q.66074.24851,1.52041.66116a13.70213,13.70213,0,0,0,1.30589-.99148.54774.54774,0,0,1,.3475-.13244.47591.47591,0,0,1,.413.215.57662.57662,0,0,1,.11585.33084.51166.51166,0,0,1-.24779.44615,10.64022,10.64022,0,0,1-.97552.6113,13.79377,13.79377,0,0,1,1.30589.8097.72549.72549,0,0,1,.36358.562Z"/><path class="a" d="M.14314,127.68058a.32978.32978,0,0,1-.14281-.28661.34449.34449,0,0,1,.09661-.23991.31364.31364,0,0,1,.24-.105.334.334,0,0,1,.15174.03359,3.16592,3.16592,0,0,0,.556.18951,2.58532,2.58532,0,0,0,.58911.063q.927,0,.92672-.58956a.31248.31248,0,0,0-.20215-.28611,4.19988,4.19988,0,0,0-.70724-.22731,5.15309,5.15309,0,0,1-.817-.24411,1.32572,1.32572,0,0,1-.58123-.40423,1.02084,1.02084,0,0,1-.21894-.66514,1.20791,1.20791,0,0,1,.43789-.96858,1.82209,1.82209,0,0,1,1.21287-.37063A3.38537,3.38537,0,0,1,2.906,123.79a.33818.33818,0,0,1,.15122.56855.32471.32471,0,0,1-.24415.105l-.10921-.01679a3.35489,3.35489,0,0,0-.96032-.1512,1.32835,1.32835,0,0,0-.69884.15959.48007.48007,0,0,0-.26148.421.38442.38442,0,0,0,.22788.36224,4.43779,4.43779,0,0,0,.73244.22731q.45442.1181.80858.24411a1.26521,1.26521,0,0,1,.5555.40843,1.09119,1.09119,0,0,1,.21054.68614,1.10835,1.10835,0,0,1-.43788.90138,1.85051,1.85051,0,0,1-1.19555.35331A3.21564,3.21564,0,0,1,.14314,127.68058Z"/><path class="a" d="M4.44278,127.90372a.37263.37263,0,0,1-.11392-.274v-5.46446a.38716.38716,0,0,1,.11392-.27823.36721.36721,0,0,1,.27356-.1176.40262.40262,0,0,1,.39589.39583v2.17235a2.697,2.697,0,0,1,.71564-.56435,1.79116,1.79116,0,0,1,.84219-.19372,1.52035,1.52035,0,0,1,.817.21892,1.438,1.438,0,0,1,.51823.59791,1.93447,1.93447,0,0,1,.18061.84206v2.39125a.36817.36817,0,0,1-.11761.274.39023.39023,0,0,1-.66527-.274v-2.30732q0-1.01818-.91832-1.01845a1.34605,1.34605,0,0,0-.72825.20211,2.66118,2.66118,0,0,0-.64422.59743v2.52617a.3668.3668,0,0,1-.11814.274.38776.38776,0,0,1-.27775.11339A.37311.37311,0,0,1,4.44278,127.90372Z"/><path class="a" d="M9.52055,122.67445a.42013.42013,0,0,1-.13021-.30763v-.03361a.44567.44567,0,0,1,.43789-.43782h.05041a.44567.44567,0,0,1,.43789.43782v.03361a.44565.44565,0,0,1-.43789.43835H9.82823A.42077.42077,0,0,1,9.52055,122.67445Zm.05093,5.22922a.3727.3727,0,0,1-.11394-.274v-3.6123a.386.386,0,0,1,.11394-.27771.3658.3658,0,0,1,.27355-.11812.38917.38917,0,0,1,.39589.38234q.00012.00674,0,.01349v3.61235a.3668.3668,0,0,1-.11814.274.38774.38774,0,0,1-.27775.11339.37314.37314,0,0,1-.27355-.11339Z"/><path class="a" d="M11.66854,127.90372a.37261.37261,0,0,1-.11394-.274v-3.61235a.386.386,0,0,1,.11394-.27771.36577.36577,0,0,1,.27355-.11812.40355.40355,0,0,1,.39588.39583v.32024a2.69732,2.69732,0,0,1,.71565-.56434,1.79087,1.79087,0,0,1,.84217-.19372,1.52038,1.52038,0,0,1,.817.21891,1.438,1.438,0,0,1,.51822.59791,1.93452,1.93452,0,0,1,.18062.84207v2.39125a.36827.36827,0,0,1-.11761.274.39025.39025,0,0,1-.66528-.274v-2.30733q0-1.01818-.91832-1.01845a1.346,1.346,0,0,0-.72824.20211,2.66127,2.66127,0,0,0-.64424.59743v2.52617a.36686.36686,0,0,1-.11813.274.38778.38778,0,0,1-.27776.11339A.37311.37311,0,0,1,11.66854,127.90372Z"/><path class="a" d="M16.79776,127.90372a.3726.3726,0,0,1-.11393-.274v-3.61235a.386.386,0,0,1,.11393-.27771.36577.36577,0,0,1,.27354-.11812.40355.40355,0,0,1,.39589.39583v.32024a2.69716,2.69716,0,0,1,.71565-.56434,1.79091,1.79091,0,0,1,.84218-.19372,1.5204,1.5204,0,0,1,.817.21891,1.43806,1.43806,0,0,1,.51823.59791,1.93465,1.93465,0,0,1,.18061.84207v2.39125a.3682.3682,0,0,1-.11761.274.39025.39025,0,0,1-.66528-.274v-2.30733q0-1.01818-.91832-1.01845a1.346,1.346,0,0,0-.72824.20211,2.66127,2.66127,0,0,0-.64424.59743v2.52617a.36679.36679,0,0,1-.11813.274.38778.38778,0,0,1-.27776.11339A.373.373,0,0,1,16.79776,127.90372Z"/><path class="a" d="M22.23362,127.90792a1.17284,1.17284,0,0,1-.51351-.44622,1.237,1.237,0,0,1-.18534-.67407,1.16564,1.16564,0,0,1,.50929-1.01425,2.47137,2.47137,0,0,1,1.436-.358h1.01072v-.0588a1.03489,1.03489,0,0,0-.26515-.78745,1.22682,1.22682,0,0,0-.85532-.24831,2.94267,2.94267,0,0,0-.54709.04619,4.53218,4.53218,0,0,0-.57283.15592l-.1092.01679a.30551.30551,0,0,1-.22316-.09711.3154.3154,0,0,1-.09713-.23152.33068.33068,0,0,1,.22734-.32811,3.66356,3.66356,0,0,1,1.457-.30343,1.975,1.975,0,0,1,.99392.23571,1.48557,1.48557,0,0,1,.58123.60214,1.78588,1.78588,0,0,1,.19322.82947v2.38285a.36627.36627,0,0,1-.1176.274.39022.39022,0,0,1-.66524-.27348v-.20262a2.0857,2.0857,0,0,1-1.57515.63155A1.57558,1.57558,0,0,1,22.23362,127.90792Zm1.67175-.7119a1.9294,1.9294,0,0,0,.58544-.45043v-.69874h-.90992q-1.26325,0-1.26274.65675,0,.6654.88419.66514a1.535,1.535,0,0,0,.703-.17269Z"/><path class="a" d="M26.65923,127.90372a.37257.37257,0,0,1-.11394-.274v-3.61235a.386.386,0,0,1,.11394-.27771.36574.36574,0,0,1,.27355-.11812.40357.40357,0,0,1,.39589.39583v.32024a2.69659,2.69659,0,0,1,.71565-.56434,1.79087,1.79087,0,0,1,.84217-.19372,1.5204,1.5204,0,0,1,.817.21891,1.438,1.438,0,0,1,.51822.59791,1.93438,1.93438,0,0,1,.18062.84207v2.39125a.36822.36822,0,0,1-.1176.274.39025.39025,0,0,1-.66529-.274v-2.30731q0-1.01818-.9183-1.01845a1.34588,1.34588,0,0,0-.72825.20211,2.66127,2.66127,0,0,0-.64424.59743v2.52617a.3668.3668,0,0,1-.11814.274.38774.38774,0,0,1-.27775.11339A.373.373,0,0,1,26.65923,127.90372Z"/><path class="a" d="M34.26358,122.67445a.42009.42009,0,0,1-.13021-.30763v-.03361a.44567.44567,0,0,1,.43789-.43782h.0504a.44568.44568,0,0,1,.4379.43782v.03361a.44567.44567,0,0,1-.4379.43835h-.0504A.42076.42076,0,0,1,34.26358,122.67445Zm.05093,5.22922a.37261.37261,0,0,1-.11394-.274v-3.6123a.386.386,0,0,1,.11394-.27771.36574.36574,0,0,1,.27355-.11812.38919.38919,0,0,1,.39589.38236q.00012.00673,0,.01347v3.61235a.3668.3668,0,0,1-.11814.274.38774.38774,0,0,1-.27775.11339.373.373,0,0,1-.27355-.11339Z"/><path class="a" d="M36.41156,127.90372a.37264.37264,0,0,1-.11393-.274v-3.61235a.386.386,0,0,1,.11393-.27771.36579.36579,0,0,1,.27355-.11812.40356.40356,0,0,1,.39589.39583v.32024a2.69691,2.69691,0,0,1,.71565-.56434,1.79091,1.79091,0,0,1,.84218-.19372,1.52049,1.52049,0,0,1,.817.21891,1.438,1.438,0,0,1,.51821.59791,1.93438,1.93438,0,0,1,.18062.84207v2.39125a.3682.3682,0,0,1-.11761.274.39025.39025,0,0,1-.66528-.274v-2.30733q0-1.01818-.91831-1.01845a1.34608,1.34608,0,0,0-.72825.20211,2.66127,2.66127,0,0,0-.64424.59743v2.52617a.36676.36676,0,0,1-.11814.274.38774.38774,0,0,1-.27775.11339A.3731.3731,0,0,1,36.41156,127.90372Z"/><path class="a" d="M43.62472,127.38557a.299.299,0,0,1,.0924.21891.335.335,0,0,1-.20214.30344,1.65032,1.65032,0,0,1-.69885.15119q-1.23807,0-1.23807-1.11977v-2.55977H41.157a.33738.33738,0,1,1,0-.67354h.42108v-.59791a.38845.38845,0,0,1,.10553-.29451.4.4,0,0,1,.29036-.10133.37931.37931,0,0,1,.28668.10553.40193.40193,0,0,1,.10081.29031v.59791h.943a.33007.33007,0,0,1,.33708.3229c.00009.00453.0001.00907,0,.0136a.33277.33277,0,0,1-.09661.23624.32032.32032,0,0,1-.24047.1008h-.943v2.49262a.47153.47153,0,0,0,.13494.39583.67057.67057,0,0,0,.40429.1008,1.11381,1.11381,0,0,0,.33656-.05039.0333.0333,0,0,0,.0252-.0084.76617.76617,0,0,1,.14334-.01681A.3011.3011,0,0,1,43.62472,127.38557Z"/><path class="a" d="M44.79977,127.47009a2.25952,2.25952,0,0,1-.577-1.65052,2.86249,2.86249,0,0,1,.219-1.103,1.83477,1.83477,0,0,1,.69043-.83367,1.98462,1.98462,0,0,1,1.11154-.30343,2.02425,2.02425,0,0,1,1.08686.28663,1.95133,1.95133,0,0,1,.682.77014,2.351,2.351,0,0,1,.24415,1.07357.38142.38142,0,0,1-.37511.38765c-.00692.00011-.01386,0-.02078-.00022H45.01452a1.36318,1.36318,0,0,0,.4505.91346,1.52394,1.52394,0,0,0,1.01492.316,2.61094,2.61094,0,0,0,.6017-.063,2.50576,2.50576,0,0,0,.535-.19791.30226.30226,0,0,1,.15174-.03361.34462.34462,0,0,1,.24.0966.31365.31365,0,0,1,.105.24.36894.36894,0,0,1-.22735.32023,3.16671,3.16671,0,0,1-.67364.282,3.06493,3.06493,0,0,1-.80017.08819A2.1533,2.1533,0,0,1,44.79977,127.47009Zm2.67356-2.12195a1.1157,1.1157,0,0,0-.20214-.56435,1.19314,1.19314,0,0,0-.4589-.40422,1.27161,1.27161,0,0,0-.56862-.13492,1.43381,1.43381,0,0,0-.56391.12652,1.10088,1.10088,0,0,0-.4673.42522,1.42249,1.42249,0,0,0-.198.6609h2.358a.08868.08868,0,0,0,.10087-.10915Z"/><path class="a" d="M49.36456,127.90372a.37264.37264,0,0,1-.11393-.274v-5.46446a.38722.38722,0,0,1,.11393-.27823.3672.3672,0,0,1,.27356-.1176.38834.38834,0,0,1,.39589.38063q.00015.0076,0,.0152v5.46446a.3668.3668,0,0,1-.11814.274.38774.38774,0,0,1-.27775.11339A.3731.3731,0,0,1,49.36456,127.90372Z"/><path class="a" d="M51.46114,127.90372a.37265.37265,0,0,1-.11394-.274v-5.46446a.38714.38714,0,0,1,.11394-.27823.36718.36718,0,0,1,.27355-.1176.38833.38833,0,0,1,.39589.38061q.00014.00762,0,.01522v5.46446a.36683.36683,0,0,1-.11814.274.38775.38775,0,0,1-.27776.11339A.3731.3731,0,0,1,51.46114,127.90372Z"/><path class="a" d="M53.50722,122.67445a.42009.42009,0,0,1-.13021-.30763v-.03361a.44567.44567,0,0,1,.43789-.43782h.0504a.44567.44567,0,0,1,.43789.43782v.03361a.44565.44565,0,0,1-.43789.43835h-.0504A.42074.42074,0,0,1,53.50722,122.67445Zm.05092,5.22922a.37269.37269,0,0,1-.11393-.274v-3.6123a.386.386,0,0,1,.11393-.27771.36579.36579,0,0,1,.27356-.11812.38916.38916,0,0,1,.39588.38234q.00012.00674,0,.01349v3.61235a.36679.36679,0,0,1-.11813.274.38778.38778,0,0,1-.27776.11339.37309.37309,0,0,1-.27356-.11339Z"/><path class="a" d="M56.5814,129.86975a3.38009,3.38009,0,0,1-.82958-.31131.33577.33577,0,0,1-.16014-.30343.35243.35243,0,0,1,.10134-.24411.32008.32008,0,0,1,.24414-.10973.41487.41487,0,0,1,.15174.03413,3.13427,3.13427,0,0,0,1.38929.31971q1.28059,0,1.28006-1.36389V127.352a1.87847,1.87847,0,0,1-1.43128.62315,2.07641,2.07641,0,0,1-1.75209-1.01478,2.55026,2.55026,0,0,1,.0084-2.39546,2.00282,2.00282,0,0,1,.76238-.73289,2.03854,2.03854,0,0,1,.98131-.25251,1.88027,1.88027,0,0,1,1.43129.62314v-.18529a.38815.38815,0,0,1,.11394-.27771.36577.36577,0,0,1,.27355-.11812.40355.40355,0,0,1,.39588.39583v3.76407a2.38328,2.38328,0,0,1-.51349,1.63792,1.87178,1.87178,0,0,1-1.47382.57691A3.98453,3.98453,0,0,1,56.5814,129.86975Zm1.57463-2.76609a2.50279,2.50279,0,0,0,.60222-.45883v-1.73451a2.5055,2.5055,0,0,0-.60222-.45935,1.42991,1.42991,0,0,0-.66944-.1554,1.40215,1.40215,0,0,0-1.03592.38694,1.74228,1.74228,0,0,0,0,2.18968,1.40037,1.40037,0,0,0,1.03592.38743A1.42387,1.42387,0,0,0,58.156,127.10366Z"/><path class="a" d="M61.17139,127.47009a2.25943,2.25943,0,0,1-.577-1.65052,2.86244,2.86244,0,0,1,.21895-1.103,1.83475,1.83475,0,0,1,.69045-.83367,1.98462,1.98462,0,0,1,1.11152-.30343,2.0241,2.0241,0,0,1,1.08685.28663,1.95126,1.95126,0,0,1,.682.77014,2.35116,2.35116,0,0,1,.24415,1.07357.38144.38144,0,0,1-.37513.38765q-.01038.00017-.02076-.00022H61.3861a1.36318,1.36318,0,0,0,.4505.91346,1.524,1.524,0,0,0,1.01493.316,2.61094,2.61094,0,0,0,.6017-.063,2.50576,2.50576,0,0,0,.535-.19791.30215.30215,0,0,1,.15174-.03361.34462.34462,0,0,1,.24.0966.31365.31365,0,0,1,.105.24.369.369,0,0,1-.22735.32023,3.16744,3.16744,0,0,1-.67364.282,3.06493,3.06493,0,0,1-.80017.08819A2.15327,2.15327,0,0,1,61.17139,127.47009Zm2.67356-2.12195a1.11572,1.11572,0,0,0-.20215-.56435,1.19311,1.19311,0,0,0-.45889-.40422,1.27153,1.27153,0,0,0-.56864-.13492,1.43393,1.43393,0,0,0-.5639.12652,1.10077,1.10077,0,0,0-.4673.42522,1.42272,1.42272,0,0,0-.19795.6609h2.358a.0887.0887,0,0,0,.10084-.10915Z"/><path class="a" d="M65.73618,127.90372a.37264.37264,0,0,1-.11393-.274v-3.61235a.386.386,0,0,1,.11393-.27771.36575.36575,0,0,1,.27355-.11812.40356.40356,0,0,1,.39589.39583v.32024a2.69691,2.69691,0,0,1,.71565-.56434,1.79091,1.79091,0,0,1,.84218-.19372,1.52031,1.52031,0,0,1,.817.21891,1.438,1.438,0,0,1,.51822.59791,1.93438,1.93438,0,0,1,.18062.84207v2.39125a.3682.3682,0,0,1-.11761.274.39025.39025,0,0,1-.66528-.274v-2.30733q0-1.01818-.91832-1.01845a1.346,1.346,0,0,0-.72824.20211,2.66127,2.66127,0,0,0-.64424.59743v2.52617a.3668.3668,0,0,1-.11814.274.38774.38774,0,0,1-.27775.11339A.37308.37308,0,0,1,65.73618,127.90372Z"/><path class="a" d="M71.62673,127.7898a2.05926,2.05926,0,0,1-.83379-.79166,2.44824,2.44824,0,0,1,.0084-2.37446,2.09825,2.09825,0,0,1,.81279-.77014,2.54391,2.54391,0,0,1,1.8739-.16851,3.12828,3.12828,0,0,1,.64.29871.35646.35646,0,0,1,.16854.30343.34137.34137,0,0,1-.10133.23571.30254.30254,0,0,1-.22735.1092.4215.4215,0,0,1-.18535-.0504,3.07156,3.07156,0,0,0-.48829-.21051,1.66988,1.66988,0,0,0-.47989-.05881,1.53589,1.53589,0,0,0-1.12413.40844,1.65641,1.65641,0,0,0,0,2.19754,1.53584,1.53584,0,0,0,1.12413.40843,1.66953,1.66953,0,0,0,.47989-.0588,3.12232,3.12232,0,0,0,.48829-.21051.42281.42281,0,0,1,.18535-.05092.30317.30317,0,0,1,.22735.10971.34139.34139,0,0,1,.10133.23572.35713.35713,0,0,1-.16854.30343,3.12934,3.12934,0,0,1-.64.29871,2.36757,2.36757,0,0,1-.74085.105A2.40884,2.40884,0,0,1,71.62673,127.7898Z"/><path class="a" d="M75.522,127.47009a2.25952,2.25952,0,0,1-.577-1.65052,2.86249,2.86249,0,0,1,.219-1.103,1.83473,1.83473,0,0,1,.69044-.83367,1.98457,1.98457,0,0,1,1.11153-.30343,2.02425,2.02425,0,0,1,1.08686.28663,1.95128,1.95128,0,0,1,.682.77014,2.35109,2.35109,0,0,1,.24415,1.0736.38142.38142,0,0,1-.37511.38764c-.00692.00012-.01386,0-.02078-.00022h-2.8463a1.36314,1.36314,0,0,0,.4505.91346,1.524,1.524,0,0,0,1.01492.316,2.61149,2.61149,0,0,0,.6017-.063,2.50633,2.50633,0,0,0,.535-.19792.30214.30214,0,0,1,.15174-.0336.34457.34457,0,0,1,.24.09659.31367.31367,0,0,1,.105.24.36894.36894,0,0,1-.22735.32023,3.16671,3.16671,0,0,1-.67364.282,3.06494,3.06494,0,0,1-.80017.0882A2.15331,2.15331,0,0,1,75.522,127.47009Zm2.67356-2.12195a1.11561,1.11561,0,0,0-.20214-.56435,1.19314,1.19314,0,0,0-.4589-.40422,1.27161,1.27161,0,0,0-.56862-.13492,1.43381,1.43381,0,0,0-.56391.12652,1.1008,1.1008,0,0,0-.46729.42522,1.42239,1.42239,0,0,0-.198.6609h2.358a.08869.08869,0,0,0,.1009-.10915Z"/><path class="a" d="M82.93318,127.90372a.37417.37417,0,0,1-.11342-.274v-3.2921h-.48882a.3367.3367,0,0,1-.23575-.57692.3304.3304,0,0,1,.23575-.09659h.48882v-.48035a1.64908,1.64908,0,0,1,.18536-.83366,1.11618,1.11618,0,0,1,.45889-.46723,1.30623,1.30623,0,0,1,.62744-.15591,1.68368,1.68368,0,0,1,.73245.16851.3474.3474,0,0,1,.20214.30344.32331.32331,0,0,1-.0966.22731.30138.30138,0,0,1-.22314.1008.79871.79871,0,0,1-.19376-.0252l-.22734-.02521a.69262.69262,0,0,0-.52662.16853.82085.82085,0,0,0-.15595.56381v.45515H84.647a.33089.33089,0,0,1,.33706.3246q.00012.006,0,.01191a.32991.32991,0,0,1-.09714.23571.31775.31775,0,0,1-.23994.10133H83.60262v3.29211a.36821.36821,0,0,1-.11762.274.389.389,0,0,1-.27827.1134A.374.374,0,0,1,82.93318,127.90372Z"/><path class="a" d="M86.00262,127.90792a1.17287,1.17287,0,0,1-.5135-.44622,1.23706,1.23706,0,0,1-.18534-.67407,1.16564,1.16564,0,0,1,.50929-1.01425,2.47139,2.47139,0,0,1,1.436-.358H88.2598v-.0588a1.03493,1.03493,0,0,0-.26515-.78745,1.22684,1.22684,0,0,0-.85532-.24831,2.94271,2.94271,0,0,0-.5471.04619,4.53173,4.53173,0,0,0-.57283.15592l-.1092.01679a.30554.30554,0,0,1-.22315-.09711.31533.31533,0,0,1-.09713-.23152.33069.33069,0,0,1,.22735-.32811,3.66356,3.66356,0,0,1,1.457-.30343,1.975,1.975,0,0,1,.99392.23571,1.4856,1.4856,0,0,1,.58122.60214,1.786,1.786,0,0,1,.19322.82947v2.38285a.36627.36627,0,0,1-.11761.274.39023.39023,0,0,1-.66525-.27347v-.20263a2.08574,2.08574,0,0,1-1.57516.63155A1.57589,1.57589,0,0,1,86.00262,127.90792Zm1.67176-.7119a1.92936,1.92936,0,0,0,.58543-.45043v-.69874h-.90992q-1.26327,0-1.26275.65675,0,.6654.88418.66514a1.5348,1.5348,0,0,0,.70306-.17269Z"/><path class="a" d="M90.42879,127.90372a.37271.37271,0,0,1-.11393-.274v-3.61235a.386.386,0,0,1,.11393-.27771.36582.36582,0,0,1,.27355-.11812.40355.40355,0,0,1,.39589.39583v.337a1.64551,1.64551,0,0,1,1.31368-.77489h.042a.36022.36022,0,0,1,.26988.11393.38178.38178,0,0,1,.10921.27351.34444.34444,0,0,1-.11394.2651.39806.39806,0,0,1-.282.10553h-.042a1.44237,1.44237,0,0,0-.72824.18951,1.67912,1.67912,0,0,0-.56863.54283v2.55977a.36682.36682,0,0,1-.11813.274.38777.38777,0,0,1-.27776.11339A.37306.37306,0,0,1,90.42879,127.90372Z"/><path class="a" d="M99.844,124.41316a2.02024,2.02024,0,0,1,.156.79166v2.42486a.3668.3668,0,0,1-.11814.274.39023.39023,0,0,1-.66525-.274v-2.27314a1.29417,1.29417,0,0,0-.19793-.80846.79339.79339,0,0,0-.65263-.24411,1.11255,1.11255,0,0,0-.68205.20632,2.16777,2.16777,0,0,0-.52243.59322v2.52617a.36819.36819,0,0,1-.11762.274.39023.39023,0,0,1-.66526-.274v-2.2732a1.29417,1.29417,0,0,0-.19794-.80846.79406.79406,0,0,0-.65265-.24411,1.113,1.113,0,0,0-.68255.20632,2.16694,2.16694,0,0,0-.52191.59322v2.52617a.36682.36682,0,0,1-.11813.274.39023.39023,0,0,1-.66525-.274v-3.61235a.386.386,0,0,1,.11393-.27771.36582.36582,0,0,1,.27355-.11812.40355.40355,0,0,1,.39589.39583v.31184a2.01519,2.01519,0,0,1,.598-.55174,1.60382,1.60382,0,0,1,.82538-.19792,1.34971,1.34971,0,0,1,.79545.24,1.366,1.366,0,0,1,.493.61891,1.70012,1.70012,0,0,1,1.54942-.85887,1.29183,1.29183,0,0,1,.80018.23571A1.42025,1.42025,0,0,1,99.844,124.41316Z"/><path class="b" d="M27.41155,17.32382c4.01117-.01115,8.01649-1.52506,12.00869-1.51917a9.84884,9.84884,0,0,1,6.539,2.202A9.84811,9.84811,0,0,0,39.41956,15.804c-3.99152-.00589-7.99684,1.50807-12.00869,1.51917a18.11338,18.11338,0,0,1-5.35681-.77376l.00031.00057A18.11463,18.11463,0,0,0,27.41155,17.32382Z"/><path class="b" d="M22.054,16.54985v-.00052l-.00031-.00005A12.07724,12.07724,0,0,0,24.853,20.32481,12.07726,12.07726,0,0,1,22.05437,16.55Z"/><polygon class="b" points="22.053 16.549 22.054 16.549 22.053 16.549 22.053 16.549"/><path class="b" d="M38.20872,22.95332l.00052-.00036c-3.94113-.9415-5.60262-.896-6.1348-1.70041C32.60569,22.05794,34.26649,22.01182,38.20872,22.95332Z"/><path class="b" d="M67.77718,13.77845c.33563-.61238-.37487-1.46091-1.42168-1.086-1.04676.37554-.98725,2.96242-.98725,2.96242A11.00146,11.00146,0,0,0,67.77718,13.77845Z"/><path class="c" d="M60.81666,43.13316a10.42555,10.42555,0,0,0-4.50906,1.93589,5.18143,5.18143,0,0,0-1.22278,1.075,9.98156,9.98156,0,0,0-3.04945,5.67947,55.43,55.43,0,0,0-.19431,8.52549l.00068.00063c5.28173-.03267,10.26055.90028,14.25733-3.0396a11.54409,11.54409,0,0,0,3.02782-5.71418,58.12594,58.12594,0,0,0,.21328-8.59485C66.73631,43.069,63.2616,42.717,60.81666,43.13316Z"/><path class="c" d="M39.04209,43.1809c-2.52081-.46257-6.04132-.12955-8.71522-.18515.00391,2.37949-.1904,6.31479.22178,8.517a10.869,10.869,0,0,0,8.74267,8.70146,55.3882,55.3882,0,0,0,8.54446.108l.00068-.00068c.18316-6.09624.30812-10.48623-3.09-14.13759A11.92967,11.92967,0,0,0,39.04209,43.1809Z"/><path class="d" d="M39.29331,33.33648c1.52568.28525,4.8486-4.21991,12.79115-3.11229,6.05043.84333,7.01939,4.04655,8.74659,2.88854.702-.47106.99709-1.61469-.41937-2.60324a18.86552,18.86552,0,0,0-12.89449-3.10443l-.00068-.00062A18.7,18.7,0,0,0,41.243,29.29452a15.00408,15.00408,0,0,0-2.5293,1.57869A1.41488,1.41488,0,0,0,39.29331,33.33648Z"/><path class="d" d="M57.78426,35.2534a13.63488,13.63488,0,0,0-6.44235-2.55285c-3.38768-.42395-7.54215.80273-9.4735,2.52081-1.27968,1.13836-.07,3.44719,2.0177,2.0203a9.92835,9.92835,0,0,1,4.31344-1.67946l-.00067.00068a10.91378,10.91378,0,0,1,5.40017.56657,9.6229,9.6229,0,0,1,2.00852,1.04025C58.09764,38.81185,58.80553,36.16671,57.78426,35.2534Z"/><path class="d" d="M44.57373,39.91884a1.40461,1.40461,0,0,0,1.616,2.01833,8.1115,8.1115,0,0,0,1.28688-.702,4.489,4.489,0,0,1,1.60093-.458h.00068c2.64446-.422,3.66313,1.1541,4.62094,1.20579,2.26042.12235,2.35395-3.55058-3.10177-4.05764C48.64378,37.74409,45.24823,38.59789,44.57373,39.91884Z"/><path class="d" d="M47.04415,45.43475c-.91138,3.53755,4.549,5.06975,5.51007,1.34122C53.47013,43.22144,47.99544,41.74353,47.04415,45.43475Z"/><path class="d" d="M83.08914,40.59334A38.66393,38.66393,0,0,0,75.634,30.98446c-7.46623-6.29842-12.08-8.3168-24.46354-9.866.98986-4.85121,7.40214-3.48059,12.16241-2.79365,1.53752,3.442,5.37266,7.74043,10.5471,7.601,1.86528-.05034,2.41289-1.61011,1.05921-2.42592-.71967-.43381-6.39654-.23293-8.638-5.27845,1.84235-1.23,2.74394-.71446,3.9392-2.67129,2.267-3.71154-1.8201-7.74037-5.63044-5.00629-1.3752.98658-1.93588,2.69548-1.95615,4.99123-8.22061-.54365-5.64811-1.616-12.35412,1.33335.32317-6.68376,3.01083-8.75774,4.0851-10.4372a58.51337,58.51337,0,0,1,5.387,2.41091,5.24813,5.24813,0,0,0,1.56759.73015,1.61887,1.61887,0,0,0,1.53027-.65688c1.775-2.4861-3.45047-3.56366-4.11-4.37817a8.22779,8.22779,0,0,1-1.84824-.72691C55.09858,3.0174,45.11545-.53516,43.67413.06873a5.936,5.936,0,0,0-.76746.55089l.00005-.00068c-.26366.76418-.51493,1.319.12559,2.0622.51754.59993.90221.55611,1.84954.78314A25.54932,25.54932,0,0,1,48.933,4.60265a9.27379,9.27379,0,0,1,2.121.62285q.32187.106.63661.21328L51.65,5.49829A20.02885,20.02885,0,0,0,47.688,15.77911c-9.1732-5.48584-13.07249-.70789-21.54759-1.15274-3.08868-.16227-5.20388-2.09232-6.94483-1.74424-1.48118,1.47989-.77464,2.59736.2074,4.48942,3.52572,6.79043,8.9409,7.936,10.82582,9.37929l-4.81984,3.686c-4.03018,3.13517-8.71324,10.02434-10.48363,15.117-3.34057,9.60893-3.41254,19.206.929,28.76328a37.23572,37.23572,0,0,0,16.468,17.67638C40.09411,96.354,51.49693,97.815,61.062,94.85711,83.80949,87.822,94.04383,62.69047,83.08914,40.59334ZM66.3555,12.69241c1.04681-.37487,1.75731.47366,1.42168,1.086a11.00146,11.00146,0,0,1-2.40893,1.87638S65.30874,13.068,66.3555,12.69241ZM28.847,23.1047a17.64742,17.64742,0,0,1-3.994-2.77989,12.07724,12.07724,0,0,1-2.79933-3.77553l-.00037-.00011v-.00062l.00037.00073.00031.00005v-.00016l.00011.00021a18.11338,18.11338,0,0,0,5.35681.77376c4.01185-.0111,8.01717-1.52506,12.00869-1.51917a9.84811,9.84811,0,0,1,6.53969,2.20273,4.87573,4.87573,0,0,1,1.64168,3.2707c-3.70044.14919-4.40177.81587-8.43388.03794-1.83907-.35522-6.01777-1.76122-7.29026-1.21882a1.85858,1.85858,0,0,0,.19765,1.156c.53218.80445,2.19367.75891,6.1348,1.70041l-.00052.00036.00114.00026C34.83135,25.32,32.24379,24.84111,28.847,23.1047Zm42.068,63.893c-.94749.67532-1.965,1.31767-3.02543,1.93124A24.62791,24.62791,0,0,0,55.612,81.88254l.00475-1.97362c2.788-.45246,5.04213.45345,8.40355-1.55778V73.30676a2.05316,2.05316,0,1,1,1.056.00688v4.32877a11.01842,11.01842,0,0,0,4.16119-7.37379,57.74254,57.74254,0,0,0,.07524-7.76783c-4.11126.18316-7.82937-.66866-11.45717,1.10236-6.95655,3.39722-6.21249,10.68565-6.06112,17.7014-.59523-.043-1.19412-.07275-1.8003-.07275-.798,0-1.5853.04445-2.36391.11855.14909-7.02987.91159-14.34258-6.06012-17.7472-3.6278-1.771-7.34586-.9192-11.45718-1.10236a57.74254,57.74254,0,0,0,.07525,7.76783c.01323.12892.04419.25627.06284.38482V70.603h6.43974a2.05319,2.05319,0,1,1-.00688,1.05593H30.44828a11.04109,11.04109,0,0,0,4.0219,6.08186c3.898,2.80672,6.2991,1.67487,9.3387,2.16818l.00506,2.11134A24.6336,24.6336,0,0,0,32.182,88.84962a36.18757,36.18757,0,0,1-6.0384-4.59124c-4.50187-4.94547-7.9007-8.91344-9.79475-16.42292-1.21819-4.83026-2.7321-14.72313,1.60422-22.75854h-.00063c4.16817-11.47093,16.92009-20.1318,29.986-21.19429,8.94486-.72687,21.40627,3.91565,25.90423,9.21306,2.15115,2.53389,6.16888,5.82606,6.86234,9.11234C87.82263,57.62337,83.36328,78.12545,70.915,86.99768Z"/><polygon class="c" points="22.054 16.55 22.054 16.549 22.054 16.549 22.054 16.55 22.054 16.55"/><path class="c" d="M38.20872,22.95332c-3.94223-.9415-5.603-.89538-6.13428-1.70077a1.85635,1.85635,0,0,1-.19833-1.15671c1.2725-.54234,5.45119.86428,7.29026,1.21887,4.03211.77788,4.73349.1112,8.43388-.03793a4.87541,4.87541,0,0,0-1.641-3.27008,9.84884,9.84884,0,0,0-6.539-2.202c-3.9922-.00589-7.99752,1.508-12.00869,1.51917A18.11463,18.11463,0,0,1,22.05437,16.55a12.07726,12.07726,0,0,0,2.7986,3.77486,17.64922,17.64922,0,0,0,3.99334,2.77926C32.243,24.84033,34.82984,25.31937,38.20872,22.95332Z"/><polygon class="c" points="22.054 16.549 22.054 16.549 22.054 16.549 22.054 16.549"/><path class="c" d="M39.16637,21.31471c-1.83907-.35459-6.01776-1.76121-7.29026-1.21887a1.85635,1.85635,0,0,0,.19833,1.15671,1.85858,1.85858,0,0,1-.19765-1.156c1.27249-.5424,5.45119.8636,7.29026,1.21882,4.03211.77793,4.73344.11125,8.43388-.03794a4.87573,4.87573,0,0,0-1.64168-3.2707,4.87541,4.87541,0,0,1,1.641,3.27008C43.89986,21.42591,43.19848,22.09259,39.16637,21.31471Z"/><path class="c" d="M38.20986,22.95358l-.00114-.00026c-3.37888,2.366-5.96576,1.887-9.36241.15075A17.64922,17.64922,0,0,1,24.853,20.32481a17.64742,17.64742,0,0,0,3.994,2.77989C32.24379,24.84111,34.83135,25.32,38.20986,22.95358Z"/></svg>