<svg xmlns="http://www.w3.org/2000/svg" viewBox="0 0 205 50"><defs><style>.a{fill:#498205;}.b{fill:none;}.c{fill:#dae235;}.d{fill:#94c43d;}</style></defs><path class="a" d="M51.22308,31.51467v-5.7646A14.19554,14.19554,0,0,1,48.684,29.1613q-1.5334,1.53318-2.03622,1.53318-.95245,0-.95246-1.1368a1.00036,1.00036,0,0,1,.27758-.62157,6.15461,6.15461,0,0,1,.886-.80608,14.61637,14.61637,0,0,0,4.07328-4.57544h-3.7026q-1.19056,0-1.19016-.97808,0-.95232,1.19016-.95232h3.99358v-2.4855H46.88558a1.40806,1.40806,0,0,1-.886-.22436.8815.8815,0,0,1-.2776-.72789q0-.97724,1.16356-.97808h1.693a30.091,30.091,0,0,0-.635-3.62312l-.0266-.21108h-.92511a.85379.85379,0,0,1-.95246-.9789.84159.84159,0,0,1,.95246-.9515h4.15224V9.93634q0-1.34869,1.1104-1.34869,1.11078,0,1.11121,1.34869v1.50742h4.12565a.83014.83014,0,0,1,.92585.95149q0,.97849-.92585.97891H56.30123l-.74053,3.8342h2.03624q1.16438,0,1.16438.97807a.88191.88191,0,0,1-.2784.7279,1.40653,1.40653,0,0,1-.886.22436H53.2859v2.4855h3.96773q1.18935,0,1.19016.97891,0,.95232-1.19016.95149H53.2859V25.485a.9811.9811,0,0,1,.92579-.5285,4.30064,4.30064,0,0,1,1.772,1.00466q1.32272,1.00593,1.3223,1.534a.853.853,0,0,1-.95163.97807,1.79529,1.79529,0,0,1-1.0314-.55511l-2.03707-1.77168v5.36821q0,1.24275-1.03142,1.24318Q51.2235,32.75785,51.22308,31.51467Zm3.174-18.00851V13.374H49.76862q.31667,1.3225.6608,3.781v.05318H53.709ZM64.92316,31.40908V19.3506H61.40589l-.05319,1.85062a21.158,21.158,0,0,1-1.53424,8.38307Q58.46957,32.334,57.41239,32.334a1.01676,1.01676,0,0,1-1.1378-1.1634,3.04314,3.04314,0,0,1,.84691-1.401,7.66382,7.66382,0,0,0,1.40126-2.56527,16.48318,16.48318,0,0,0,.74052-3.75526q.1845-2.14147.23853-5.60588l-.0266-5.025a2.77687,2.77687,0,0,1,.4496-1.7185,3.58317,3.58317,0,0,1,2.08941-.846q1.79771-.31786,2.82994-.58169.76669-.18573.87267-.2119-.18573.05361,1.137-.29086a5.2042,5.2042,0,0,1,.84608-.2119q1.19057,0,1.191,1.26976,0,.6607-.97906.89907-3.35854.82018-5.28921,1.11023-1.16442.15954-1.16439,1.82485v3.20016h7.40605q.97742,0,.97822,1.05786,0,1.03085-.97822,1.03125H67.09237V31.40913q0,1.2951-1.08461,1.29552-1.08459,0-1.0846-1.29552Z"/><path class="a" d="M85.844,13.18878v2.43311h7.21989a2.927,2.927,0,0,1,2.01045.634,2.42926,2.42926,0,0,1,.63414,1.90463v11.3439a2.9398,2.9398,0,0,1-.71393,2.301,3.362,3.362,0,0,1-2.32712.74042H91.02755q-1.37629,0-1.37549-1.1634,0-1.13805,1.37549-1.13762h1.481a1.01,1.01,0,0,0,.74053-.23768,1.134,1.134,0,0,0,.2643-.767V18.74232a1.01171,1.01171,0,0,0-1.1112-1.111H89.73109L89.14931,20.858h1.63984q1.11077,0,1.1112.95149,0,.92613-1.1112.92572H85.81737v2.32688h5.42139q1.11081,0,1.1112.97891,0,.92614-1.1112.92488H85.81737v3.88742q0,1.27021-1.058,1.26977-1.05841,0-1.058-1.26977V26.96587H78.4379q-1.11077,0-1.11039-.92488,0-.97849,1.11039-.97891h5.26345V22.73523H78.83517q-1.11077,0-1.1112-.95231,0-.92489,1.1112-.9249h1.61322l-.556-3.22672H77.32759q-1.03223,0-1.0846,1.111V31.277q0,1.32129-1.1112,1.32211-1.11079,0-1.11039-1.32211V18.26618a2.92216,2.92216,0,0,1,.635-2.01016A2.43233,2.43233,0,0,1,76.666,15.622h6.9822V13.18878H74.20671q-1.21676,0-1.21677-1.03125,0-1.00465,1.21677-1.00466h9.44145V9.80417a.97069.97069,0,0,1,1.08461-1.111.98227.98227,0,0,1,1.1112,1.111v1.3487h9.68q1.24167,0,1.24252,1.00466,0,1.03083-1.24252,1.03125Zm1.87748,4.44254H81.87622l.60839,3.20016h4.62847Z"/><path class="a" d="M104.19828,21.14887a7.4539,7.4539,0,0,1-3.41172,1.32211q-.92625,0-.92586-1.05786,0-.76659,1.03142-1.08444,4.15264-1.21657,5.0781-3.78184h-4.62848q-1.05719,0-1.058-.92488,0-.92614,1.058-.92574h4.91936l.13217-2.32677h-2.9887a8.68119,8.68119,0,0,1-.99151,1.36115q-.43636.46371-.72723.46288a.853.853,0,0,1-.97822-.95149,3.1434,3.1434,0,0,1,.63414-1.16423,13.96527,13.96527,0,0,0,1.37549-2.591,1.21169,1.21169,0,0,1,1.137-.87254q1.03224,0,1.03142.74042a3.25885,3.25885,0,0,1-.4754,1.19h7.45842q1.031,0,1.0314.92572,0,.89874-1.0314.89906h-3.43839l-.10639,2.32678h3.75581q1.03223,0,1.03141.92573a.89485.89485,0,0,1-.251.70052,1.1485,1.1485,0,0,1-.78042.22436H108.033a5.2219,5.2219,0,0,1-.4754,1.45508.821.821,0,0,1,.60756-.23849,3.78457,3.78457,0,0,1,1.01894.27754,18.54891,18.54891,0,0,1,1.811.80691q2.06326,1.00464,2.06365,1.5074,0,.95232-1.00564.95149a4.6412,4.6412,0,0,1-1.45439-.68722q-1.13694-.66071-2.195-1.1634a3.79369,3.79369,0,0,1-.95247-.55511.4792.4792,0,0,1-.1056-.52935A9.25235,9.25235,0,0,1,104.19828,21.14887Zm16.45114,1.29552a2.78981,2.78981,0,0,1,.6608,1.93039V29.32a2.94935,2.94935,0,0,1-.6608,2.03594,2.48288,2.48288,0,0,1-2.01048.63488h-13.1973a2.74938,2.74938,0,0,1-2.01048-.63488,2.64255,2.64255,0,0,1-.6608-2.03594V24.48031a2.9492,2.9492,0,0,1,.6608-2.03592,2.53283,2.53283,0,0,1,1.90409-.63488h13.30363a2.58952,2.58952,0,0,1,2.01047.63488Zm-1.56083,2.14146q0-.84511-.89919-.87254H105.89126a.813.813,0,0,0-.8992.87254V25.8822h14.09652Zm0,3.12113H104.992v1.48088a.86764.86764,0,0,0,.2244.6607,1.044,1.044,0,0,0,.67487.2385h12.298a.86826.86826,0,0,0,.66157-.2252,1.04556,1.04556,0,0,0,.2377-.67393Zm3.61035-16.68634a2.03138,2.03138,0,0,1,.46293,1.613v5.89672a2.30276,2.30276,0,0,1-.50283,1.65284,1.96542,1.96542,0,0,1-1.61318.43628h-5.21039a2.34392,2.34392,0,0,1-1.6531-.48953,1.98493,1.98493,0,0,1-.46292-1.59965V12.63354a2.3041,2.3041,0,0,1,.50283-1.65284,2.032,2.032,0,0,1,1.61319-.46286h5.21025a2.30493,2.30493,0,0,1,1.65316.50288Zm-1.65308,6.63716V13.50622q0-1.08444-1.03141-1.03125h-3.17409q-1.05842,0-1.03142,1.03125v4.15165q0,1.05827,1.03142,1.03126h3.174q1.0846,0,1.03142-1.03126Z"/><path class="a" d="M127.16861,17.15512a.78039.78039,0,0,1-.25182-.634q0-.76659.82029-.82018l4.02011-.23768.15875-.02659V14.27329h-3.20062a.90577.90577,0,0,1-.6208-.19859.716.716,0,0,1-.22525-.56841q0-.74043.84608-.74042H131.916v-1.111h-3.83482q-.90011,0-.89919-.79277,0-.794.89919-.79359h3.83477V9.43353q0-.92488,1.0314-.92573,1.00479,0,1.00479.92573v.63488h3.49151q.87264,0,.87266.7936,0,.79277-.87266.79276H133.9522v1.111h2.85653q.87269,0,.87267.767,0,.74041-.87267.7404H133.9522v.97807l3.12082-.21107a.7247.7247,0,0,1,.84691.79278.71378.71378,0,0,1-.635.767l-3.33279.26425v.52935q0,.87254-1.00479.87254-1.031,0-1.0314-.87254v-.34395l-4.0733.29085A.91426.91426,0,0,1,127.16861,17.15512Zm23.843,4.97183q0,.82017-.95247.81935h-1.77192v.63488a2.36515,2.36515,0,0,1-.52942,1.706,2.20438,2.20438,0,0,1-1.69216.51522H130.19635a1.15184,1.15184,0,0,1-.76628-.22436.77043.77043,0,0,1-.26506-.62158q0-.84637,1.03142-.84595h15.2343a.60142.60142,0,0,0,.46294-.15871.83593.83593,0,0,0,.172-.50276v-.50276H128.05461a1.09853,1.09853,0,0,1-.72723-.21107.75058.75058,0,0,1-.25182-.60828q0-.81894.97905-.82019h18.01114V20.858a.63439.63439,0,0,0-.14543-.46286.76165.76165,0,0,0-.4896-.172H130.43494a1.15125,1.15125,0,0,1-.76711-.2252.86217.86217,0,0,1-.02311-1.21922l.02311-.0231a1.15581,1.15581,0,0,1,.76711-.2252H146.0657a2.40711,2.40711,0,0,1,1.732.52933,2.09631,2.09631,0,0,1,.4896,1.66535v.58169h1.77193Q151.01161,21.30676,151.01161,22.127Zm-19.99494,5.52693a5.85584,5.85584,0,0,1-1.00479,2.43314q-.97864,1.61172-1.8784,1.53318-1.16439-.13212-1.00479-1.05784a2.06789,2.06789,0,0,1,.39643-.767,22.499,22.499,0,0,0,1.4021-2.43233,1.17318,1.17318,0,0,1,1.03141-.74041.92346.92346,0,0,1,1.058,1.03126Zm14.40071.38308a1.17216,1.17216,0,0,1,.2776.86008,3.46446,3.46446,0,0,1-.89919,2.67082,3.32,3.32,0,0,1-1.6265.58169,27.14978,27.14978,0,0,1-3.76827.18448,27.45556,27.45556,0,0,1-5.95079-.3432,1.49661,1.49661,0,0,1-1.03224-1.56061V27.363a1.05835,1.05835,0,0,1,2.116,0v2.0093a1.78857,1.78857,0,0,0,.10638.767.52645.52645,0,0,0,.4496.2119,31.82544,31.82544,0,0,0,3.80816.15872h1.29571q1.27039-.02744,1.85173-.07978a3.2037,3.2037,0,0,0,.95163-.21108.61225.61225,0,0,0,.35737-.43627,7.35739,7.35739,0,0,0,.172-1.07115,1.10482,1.10482,0,0,1,.31749-.70135.99488.99488,0,0,1,.71391-.251A1.17532,1.17532,0,0,1,145.41738,28.037Zm-7.57727-.25095a1.00136,1.00136,0,0,1-.39643-.66147q0-.84514.97822-.846a2.89377,2.89377,0,0,1,1.61319.846q.89883.794.89919,1.323,0,.92488-1.03142.9249a.96028.96028,0,0,1-.52858-.23768q-.31789-.23805-.89927-.767Zm.60838-11.5558q0-.794.8992-.79359h4.0201V14.27329h-3.30617q-.8465,0-.84607-.767,0-.74043.84607-.74042h3.30617v-1.111h-3.676q-.9001,0-.89919-.79277,0-.794.89919-.79359h3.676V9.43353q0-.92488,1.00479-.92573,1.05715,0,1.058.92573v.63488h4.0733q.89884,0,.89919.7936,0,.79277-.89919.79276h-4.0733v1.111h3.253q.89888,0,.89919.767,0,.74041-.89919.7404h-3.253v1.16339h4.17886q.89886,0,.89919.7936,0,.79276-.89919.79277h-4.17886v.37062q0,.87255-1.058.87254-1.00481,0-1.00479-.87254V17.023h-4.0201Q138.44768,17.023,138.44849,16.23021Zm12.21905,14.14767a.84316.84316,0,0,1-.31749.70052,1.24076,1.24076,0,0,1-.79372.251,1.07125,1.07125,0,0,1-.6208-.172,2.18623,2.18623,0,0,1-.51613-.54181q-.23808-.344-.51529-.68722-.278-.344-.43717-.55593a7.26166,7.26166,0,0,1-1.32229-2.03594q0-.95232,1.1112-.95232.71436,0,2.06282,1.63955A4.76011,4.76011,0,0,1,150.66754,30.37788Z"/><path class="a" d="M178.20067,31.72657a.90017.90017,0,0,1-1.0048,1.03127,12.86258,12.86258,0,0,1-6.348-1.74591,8.3961,8.3961,0,0,1-4.07247-4.75993h-3.70264v3.80844l4.178-.68806a.67241.67241,0,0,1,.67487.1853,1.11,1.11,0,0,1,.2244.74042.90213.90213,0,0,1-.36986.74041,3.77187,3.77187,0,0,1-1.01811.29086q-.8864.18447-2.15592.3972a52.76521,52.76521,0,0,1-5.55433.87255.87695.87695,0,0,1-.97822-1.0055.986.986,0,0,1,.21194-.58169q.23811-.37023,1.63978-.52851l1.137-.10559V26.252H157.624a17.53451,17.53451,0,0,1-1.03142,4.49566q-.662,1.77127-1.50765,1.77169-1.08462,0-1.0846-1.13681a2.51258,2.51258,0,0,1,.37069-1.00465,15.62546,15.62546,0,0,0,1.3489-7.3518v-1.957q0-1.98316,2.16837-1.98358h18.72583q.9774,0,.97822.79359a.72234.72234,0,0,1-.23769.6083,1.20317,1.20317,0,0,1-.74053.1853H158.70854a.88644.88644,0,0,0-.87267.47616l-.13216,3.51676h19.2536q.97864,0,.97905.79359,0,.79278-.97905.79278h-8.2247a7.14931,7.14931,0,0,0,2.06282,2.48635l3.38512-2.03677a1.23607,1.23607,0,0,1,.635-.23766q1.05715,0,1.058.92572,0,.68808-3.57047,2.16806l-.0798.02661a17.55026,17.55026,0,0,0,4.91938,1.11023Q178.19984,30.82661,178.20067,31.72657ZM156.1695,15.91277V12.26306q0-1.98315,2.08943-1.98276h3.99349V9.64544q0-1.057.92587-1.05786.95247,0,.95163,1.05786v.63485h4.17883V9.64542q0-1.057.95246-1.05786.95247,0,.95246,1.05786v.63487h4.09906q2.06322,0,2.06282,1.98276v3.64971a1.8,1.8,0,0,1-2.06282,2.0093H158.25892Q156.1695,17.92212,156.1695,15.91277Zm1.95727-2.61845h4.12564V11.8135H158.8673a.65477.65477,0,0,0-.74052.74041Zm0,2.32765a.65452.65452,0,0,0,.74052.74041h3.38512v-1.5872h-4.12564Zm17.03194,6.24075q.95247,0,.95246.767,0,.76659-.95246.76617h-15.181q-.92625,0-.92585-.76617,0-.76659.92585-.767ZM164.12984,11.81353v1.48082h4.17883V11.8135Zm0,2.96166v1.5872h4.17883v-1.5872Zm6.08376-1.48084h4.23124V12.554a.65485.65485,0,0,0-.74052-.74042h-3.49066Zm0,3.068h3.49067a.65446.65446,0,0,0,.74053-.74042v-.84678h-4.23114Z"/><path class="a" d="M203.64356,10.267a3.07762,3.07762,0,0,1,.66157,2.208v17.1359a3.03332,3.03332,0,0,1-.66157,2.18136,2.905,2.905,0,0,1-2.14262.67476H184.94432a2.90154,2.90154,0,0,1-2.14179-.67476,3.02956,3.02956,0,0,1-.66157-2.18136V12.475a3.07379,3.07379,0,0,1,.66157-2.208,2.9015,2.9015,0,0,1,2.14179-.67476h16.5566A2.90494,2.90494,0,0,1,203.64356,10.267Zm-1.48105,2.55115a1.18077,1.18077,0,0,0-1.34889-1.32211H185.63247a1.18066,1.18066,0,0,0-1.34889,1.32211V29.21365a1.18109,1.18109,0,0,0,1.34889,1.323h15.18112a1.19212,1.19212,0,0,0,1.3489-1.34869ZM193.858,27.25749a.73058.73058,0,0,1,.79287.79277.7097.7097,0,0,1-.19781.50275,1.21364,1.21364,0,0,1-.54272.31744,23.27742,23.27742,0,0,1-2.85653.62159q-1.58576.25056-1.95644.30331-.2656.02741-.92587.133a1.84317,1.84317,0,0,1-.34409.02576q-.95248,0-.95164-.89907,0-.713.89844-.81937.5822-.07976,2.03705-.29085V25.80243a26.88905,26.88905,0,0,1-3.38514,1.45506,1.22375,1.22375,0,0,1-.50281.10559.81408.81408,0,0,1-.62168-.23849.88617.88617,0,0,1-.22438-.63405q0-.5821.68732-.7936a24.54326,24.54326,0,0,0,4.81383-1.9304h-1.93068a1.75371,1.75371,0,0,1-1.29653-.44953,1.7142,1.7142,0,0,1-.44961-1.26893V20.83151a1.43357,1.43357,0,0,1,1.58742-1.5872h9.30932a1.82243,1.82243,0,0,1,1.29569.423,1.66314,1.66314,0,0,1,.44961,1.26976v1.111a1.54308,1.54308,0,0,1-1.77192,1.7185H192.879a14.01363,14.01363,0,0,1-1.2957,1.00465V27.654l2.03622-.37063A.81536.81536,0,0,1,193.858,27.25749Zm7.45842-9.81152q0,.82019-.92588.82018H186.02893q-.87267,0-.87268-.82018,0-.79276.87268-.79278H192.165V15.22472h-4.91936q-.87268,0-.87268-.79276,0-.794.87268-.79361H192.165v-.79364q0-.92491,1.03142-.92489a1.16338,1.16338,0,0,1,.78042.23766.85507.85507,0,0,1,.27758.68723v.79359h4.946q.87264,0,.87267.79361,0,.79276-.87267.79276h-4.946v1.42848h6.13611Q201.31562,16.65318,201.31645,17.446Zm-11.8492,4.78648h7.485a.60594.60594,0,0,0,.4496-.15872.82023.82023,0,0,0,.15874-.58169q0-.71424-.60837-.71383h-7.485q-.60838,0-.60837.71383,0,.74044.60837.74044Zm11.47852,6.53161a1.08342,1.08342,0,0,1-.13215.47615.83468.83468,0,0,1-.76711.47617,1.22905,1.22905,0,0,1-.635-.21191,58.95055,58.95055,0,0,0-5.76543-3.33145.84894.84894,0,0,1-.52859-.74042.71823.71823,0,0,1,.22439-.56839.82338.82338,0,0,1,.56848-.19861,1.00866,1.00866,0,0,1,.39729.07895q1.05717.39761,2.43266,1.05785a21.919,21.919,0,0,0,2.08942-1.58637.8765.8765,0,0,1,.556-.2119.76146.76146,0,0,1,.66079.344.92242.92242,0,0,1,.18535.52934.8186.8186,0,0,1-.39646.71383,17.02156,17.02156,0,0,1-1.56083.97808,22.06911,22.06911,0,0,1,2.08942,1.29552,1.16079,1.16079,0,0,1,.58174.89916Z"/><path class="a" d="M45.229,44.79673a.52763.52763,0,0,1-.2285-.45859.55112.55112,0,0,1,.15458-.38384.50186.50186,0,0,1,.384-.168.53424.53424,0,0,1,.24278.05375,5.066,5.066,0,0,0,.8896.30322,4.13706,4.13706,0,0,0,.94257.10079q1.4832,0,1.48275-.94329a.49993.49993,0,0,0-.32344-.45777,6.71955,6.71955,0,0,0-1.13158-.3637,8.2455,8.2455,0,0,1-1.3072-.39058,2.121,2.121,0,0,1-.93-.64677,1.63339,1.63339,0,0,1-.35032-1.06423A1.93269,1.93269,0,0,1,45.755,38.828a2.91531,2.91531,0,0,1,1.94059-.593,5.41673,5.41673,0,0,1,1.954.33683.54108.54108,0,0,1,.24194.90967.51951.51951,0,0,1-.39063.168l-.17474-.02687a5.368,5.368,0,0,0-1.5365-.24192,2.12543,2.12543,0,0,0-1.11816.25536.76809.76809,0,0,0-.41836.67364.615.615,0,0,0,.3646.57957,7.09968,7.09968,0,0,0,1.17192.36371q.72707.189,1.29372.39058a2.02408,2.02408,0,0,1,.88879.65348,1.74589,1.74589,0,0,1,.33688,1.09782,1.7734,1.7734,0,0,1-.70062,1.44222,2.96078,2.96078,0,0,1-1.91287.56529A5.14517,5.14517,0,0,1,45.229,44.79673Z"/><path class="a" d="M52.10846,45.15375a.59617.59617,0,0,1-.18229-.43846V35.97216a.61947.61947,0,0,1,.18229-.44518.5875.5875,0,0,1,.43769-.18815.64418.64418,0,0,1,.63342.63333v3.47575a4.315,4.315,0,0,1,1.145-.90295,2.86579,2.86579,0,0,1,1.3475-.31,2.43264,2.43264,0,0,1,1.3072.35027,2.30081,2.30081,0,0,1,.82916.95666,3.09527,3.09527,0,0,1,.289,1.3473v3.826a.58909.58909,0,0,1-.18818.43846.62438.62438,0,0,1-1.06444-.43835V41.02363q0-1.62912-1.46931-1.62953a2.15345,2.15345,0,0,0-1.16519.32339,4.25774,4.25774,0,0,0-1.03076.95587v4.04188a.58688.58688,0,0,1-.189.43846.6204.6204,0,0,1-.4444.18143A.597.597,0,0,1,52.10846,45.15375Z"/><path class="a" d="M60.23289,36.78692a.67216.67216,0,0,1-.20834-.49221v-.05377a.71307.71307,0,0,1,.70062-.70052h.08066a.71307.71307,0,0,1,.70062.70052v.05377a.713.713,0,0,1-.70062.70136h-.08066A.67318.67318,0,0,1,60.23289,36.78692Zm.08149,8.36675a.59624.59624,0,0,1-.18231-.43846V38.93553a.61754.61754,0,0,1,.18231-.44433.58521.58521,0,0,1,.43767-.189.62267.62267,0,0,1,.63342.61174q.00018.01078,0,.02159v5.77976a.58687.58687,0,0,1-.189.43846.6204.6204,0,0,1-.4444.18143.597.597,0,0,1-.43767-.18143Z"/><path class="a" d="M63.66966,45.15375a.5962.5962,0,0,1-.1823-.43846V38.93553a.61758.61758,0,0,1,.1823-.44433.58523.58523,0,0,1,.43768-.189.64569.64569,0,0,1,.63342.63333v.51238a4.31545,4.31545,0,0,1,1.145-.90295,2.8657,2.8657,0,0,1,1.34748-.31,2.43264,2.43264,0,0,1,1.3072.35027,2.30075,2.30075,0,0,1,.82915.95665,3.09516,3.09516,0,0,1,.289,1.3473v3.826a.58915.58915,0,0,1-.18817.43846.62439.62439,0,0,1-1.06445-.43835V41.02363q0-1.62912-1.4693-1.62953a2.15348,2.15348,0,0,0-1.1652.32339,4.25819,4.25819,0,0,0-1.03078.95587v4.04188a.5869.5869,0,0,1-.189.43846.62044.62044,0,0,1-.44442.18143A.597.597,0,0,1,63.66966,45.15375Z"/><path class="a" d="M71.87641,45.15375a.5962.5962,0,0,1-.18229-.43846V38.93553a.61762.61762,0,0,1,.18229-.44433.58523.58523,0,0,1,.43768-.189.64569.64569,0,0,1,.63342.63333v.51238a4.31545,4.31545,0,0,1,1.145-.90295,2.86578,2.86578,0,0,1,1.3475-.31,2.43268,2.43268,0,0,1,1.3072.35027,2.30092,2.30092,0,0,1,.82916.95665,3.09544,3.09544,0,0,1,.289,1.3473v3.826a.58909.58909,0,0,1-.18817.43846.62439.62439,0,0,1-1.06445-.43835V41.02363q0-1.62912-1.4693-1.62953a2.15348,2.15348,0,0,0-1.1652.32339,4.25821,4.25821,0,0,0-1.03078.95587v4.04188a.58682.58682,0,0,1-.189.43846.62042.62042,0,0,1-.44441.18143A.597.597,0,0,1,71.87641,45.15375Z"/><path class="a" d="M80.57378,45.16047a1.87649,1.87649,0,0,1-.82161-.714,1.97928,1.97928,0,0,1-.29655-1.07851,1.8651,1.8651,0,0,1,.81488-1.6228,3.95417,3.95417,0,0,1,2.29759-.57285h1.61716v-.09409a1.65583,1.65583,0,0,0-.42425-1.25992,1.96293,1.96293,0,0,0-1.3685-.3973,4.70914,4.70914,0,0,0-.87535.07391,7.25186,7.25186,0,0,0-.91652.24947l-.17473.02687a.4888.4888,0,0,1-.35705-.15538.50459.50459,0,0,1-.15541-.37042.52908.52908,0,0,1,.36375-.525,5.86154,5.86154,0,0,1,2.33119-.48549,3.15975,3.15975,0,0,1,1.59028.37714,2.37694,2.37694,0,0,1,.93.96342,2.85766,2.85766,0,0,1,.30915,1.32715v3.81256a.586.586,0,0,1-.18817.43846.62435.62435,0,0,1-1.06438-.43757V44.392A3.33708,3.33708,0,0,1,81.665,45.40246,2.52094,2.52094,0,0,1,80.57378,45.16047Zm2.67481-1.139a3.087,3.087,0,0,0,.9367-.7207v-1.118H82.72943q-2.02122,0-2.02039,1.05079,0,1.06464,1.4147,1.06422a2.4559,2.4559,0,0,0,1.12485-.27629Z"/><path class="a" d="M87.65476,45.15375a.59616.59616,0,0,1-.1823-.43846V38.93553a.61758.61758,0,0,1,.1823-.44433.58516.58516,0,0,1,.43769-.189.64572.64572,0,0,1,.63342.63333v.51238a4.31514,4.31514,0,0,1,1.145-.90295,2.86567,2.86567,0,0,1,1.34748-.31,2.43263,2.43263,0,0,1,1.30719.35027,2.3007,2.3007,0,0,1,.82916.95665,3.095,3.095,0,0,1,.289,1.3473v3.826a.58915.58915,0,0,1-.18817.43846.62439.62439,0,0,1-1.06445-.43838V41.02363q0-1.62912-1.46929-1.62953a2.15351,2.15351,0,0,0-1.1652.32339,4.25819,4.25819,0,0,0-1.03078.95587v4.04188a.58687.58687,0,0,1-.189.43846.6204.6204,0,0,1-.4444.18143A.59685.59685,0,0,1,87.65476,45.15375Z"/><path class="a" d="M99.82174,36.78692a.67213.67213,0,0,1-.20835-.49221v-.05377a.71309.71309,0,0,1,.70063-.70052h.08064a.71309.71309,0,0,1,.70063.70052v.05377a.71306.71306,0,0,1-.70063.70136H100.314A.67316.67316,0,0,1,99.82174,36.78692Zm.08148,8.36675a.59614.59614,0,0,1-.1823-.43846V38.93553a.61754.61754,0,0,1,.1823-.44433.58516.58516,0,0,1,.43768-.189.6227.6227,0,0,1,.63342.61177q.00018.01079,0,.02156v5.77976a.58684.58684,0,0,1-.189.43846.62036.62036,0,0,1-.44439.18143.59684.59684,0,0,1-.43768-.18143Z"/><path class="a" d="M103.2585,45.15375a.59624.59624,0,0,1-.1823-.43846V38.93553a.61763.61763,0,0,1,.1823-.44433.58523.58523,0,0,1,.43768-.189.64571.64571,0,0,1,.63342.63333v.51238a4.31529,4.31529,0,0,1,1.145-.90295,2.86573,2.86573,0,0,1,1.34748-.31,2.43272,2.43272,0,0,1,1.3072.35027,2.30075,2.30075,0,0,1,.82915.95665,3.095,3.095,0,0,1,.289,1.3473v3.826a.58918.58918,0,0,1-.18817.43846.62439.62439,0,0,1-1.06445-.43835V41.02363q0-1.62912-1.46931-1.62953a2.15347,2.15347,0,0,0-1.16519.32339,4.25783,4.25783,0,0,0-1.03078.95587v4.04188a.58691.58691,0,0,1-.189.43846.62038.62038,0,0,1-.4444.18143A.59692.59692,0,0,1,103.2585,45.15375Z"/><path class="a" d="M114.79955,44.32471a.47836.47836,0,0,1,.14784.35026.53592.53592,0,0,1-.32343.48549,2.64022,2.64022,0,0,1-1.11816.24192q-1.9809,0-1.9809-1.79164V39.5151h-.67374a.53981.53981,0,1,1,0-1.07766h.67374v-.95666a.6215.6215,0,0,1,.16885-.47121.64005.64005,0,0,1,.46457-.16212.60689.60689,0,0,1,.45869.16884.64306.64306,0,0,1,.16129.46449v.95666h1.5088a.52812.52812,0,0,1,.53933.51664c.00014.00726.00016.01452,0,.02177a.53248.53248,0,0,1-.15458.378.51247.51247,0,0,1-.38476.16127h-1.5088v3.98821a.75448.75448,0,0,0,.21591.63333,1.073,1.073,0,0,0,.64686.16127,1.782,1.782,0,0,0,.5385-.08063.05326.05326,0,0,0,.04032-.01344,1.22679,1.22679,0,0,1,.22934-.02689A.48177.48177,0,0,1,114.79955,44.32471Z"/><path class="a" d="M116.67963,44.46a3.61526,3.61526,0,0,1-.9232-2.64084,4.57982,4.57982,0,0,1,.3504-1.76474,2.93566,2.93566,0,0,1,1.1047-1.33387A3.17552,3.17552,0,0,1,118.99,38.235a3.23881,3.23881,0,0,1,1.739.45862,3.12218,3.12218,0,0,1,1.09119,1.23221,3.7618,3.7618,0,0,1,.39064,1.71772.61029.61029,0,0,1-.60018.62024q-.01662.00027-.03324-.00036h-4.55414a2.18112,2.18112,0,0,0,.7208,1.46155,2.43843,2.43843,0,0,0,1.62387.50565,4.17811,4.17811,0,0,0,.96273-.10079,4.00957,4.00957,0,0,0,.856-.31666.48347.48347,0,0,1,.24279-.05377.55139.55139,0,0,1,.384.15456.50178.50178,0,0,1,.168.38394.59031.59031,0,0,1-.36376.51237,5.067,5.067,0,0,1-1.07781.45114,4.90381,4.90381,0,0,1-1.28028.14111A3.44529,3.44529,0,0,1,116.67963,44.46Zm4.27769-3.39513a1.78493,1.78493,0,0,0-.32342-.90295,1.909,1.909,0,0,0-.73424-.64677,2.0346,2.0346,0,0,0-.9098-.21587,2.29449,2.29449,0,0,0-.90225.20244,1.76139,1.76139,0,0,0-.74767.68036,2.27586,2.27586,0,0,0-.31679,1.05744h3.77279a.14189.14189,0,0,0,.16138-.17465Z"/><path class="a" d="M123.9833,45.15375a.59616.59616,0,0,1-.18228-.43846V35.97216a.61951.61951,0,0,1,.18228-.44518.58753.58753,0,0,1,.4377-.18815.62133.62133,0,0,1,.63342.609q.00024.01216,0,.02433v8.74313a.58688.58688,0,0,1-.189.43846.62041.62041,0,0,1-.44439.18143A.597.597,0,0,1,123.9833,45.15375Z"/><path class="a" d="M127.33782,45.15375a.59624.59624,0,0,1-.1823-.43846V35.97216a.61947.61947,0,0,1,.1823-.44518.58753.58753,0,0,1,.43768-.18815.62132.62132,0,0,1,.63342.609q.00024.01218,0,.02436v8.74313a.5869.5869,0,0,1-.189.43846.62044.62044,0,0,1-.44442.18143A.597.597,0,0,1,127.33782,45.15375Z"/><path class="a" d="M130.61155,36.78692a.6722.6722,0,0,1-.20834-.49221v-.05377a.71307.71307,0,0,1,.70062-.70052h.08065a.71305.71305,0,0,1,.70062.70052v.05377a.713.713,0,0,1-.70062.70136h-.08065A.67316.67316,0,0,1,130.61155,36.78692Zm.08148,8.36675a.59627.59627,0,0,1-.1823-.43846V38.93553a.61763.61763,0,0,1,.1823-.44433.58523.58523,0,0,1,.43768-.189.62266.62266,0,0,1,.63342.61174q.00018.01078,0,.02159v5.77976a.5869.5869,0,0,1-.189.43846.62044.62044,0,0,1-.44442.18143.597.597,0,0,1-.43769-.18143Z"/><path class="a" d="M135.53024,48.29939a5.40824,5.40824,0,0,1-1.32733-.49808.53727.53727,0,0,1-.25623-.4855.56388.56388,0,0,1,.16215-.39058.51216.51216,0,0,1,.39063-.17556.66385.66385,0,0,1,.24279.0546,5.01457,5.01457,0,0,0,2.22285.51154q2.049,0,2.0481-2.18222V44.271a3.00553,3.00553,0,0,1-2.29005.997,3.32233,3.32233,0,0,1-2.80335-1.62364,4.08046,4.08046,0,0,1,.01344-3.83274,3.20465,3.20465,0,0,1,1.21981-1.17263,3.2618,3.2618,0,0,1,1.57011-.404,3.0084,3.0084,0,0,1,2.29.997v-.29647a.62106.62106,0,0,1,.1823-.44433.58523.58523,0,0,1,.43768-.189.64568.64568,0,0,1,.63343.63333V44.958a3.81333,3.81333,0,0,1-.8216,2.62067,2.99484,2.99484,0,0,1-2.3581.92306A6.375,6.375,0,0,1,135.53024,48.29939Zm2.5194-4.42573a4.00426,4.00426,0,0,0,.96356-.73413V40.36431a4.009,4.009,0,0,0-.96356-.735,2.28776,2.28776,0,0,0-1.0711-.24864,2.2434,2.2434,0,0,0-1.65747.61911,2.78763,2.78763,0,0,0,0,3.50348,2.24061,2.24061,0,0,0,1.65747.61989A2.27817,2.27817,0,0,0,138.04964,43.87366Z"/><path class="a" d="M142.87422,44.46a3.61517,3.61517,0,0,1-.9232-2.64084,4.58019,4.58019,0,0,1,.35032-1.76474,2.93564,2.93564,0,0,1,1.10472-1.33387,3.17546,3.17546,0,0,1,1.77843-.48549,3.23847,3.23847,0,0,1,1.739.45862,3.122,3.122,0,0,1,1.09128,1.23221,3.76193,3.76193,0,0,1,.39064,1.71772.61031.61031,0,0,1-.60021.62024q-.01661.00027-.03321-.00036h-4.5542a2.18112,2.18112,0,0,0,.7208,1.46155,2.43848,2.43848,0,0,0,1.62389.50565,4.178,4.178,0,0,0,.96272-.10079,4.00965,4.00965,0,0,0,.856-.31666.4833.4833,0,0,1,.24278-.05377.55143.55143,0,0,1,.384.15456.50177.50177,0,0,1,.168.38394.59029.59029,0,0,1-.36376.51237,5.06749,5.06749,0,0,1-1.07781.45114,4.90381,4.90381,0,0,1-1.28028.14111A3.4453,3.4453,0,0,1,142.87422,44.46Zm4.2777-3.39513a1.78514,1.78514,0,0,0-.32344-.90295,1.909,1.909,0,0,0-.73423-.64677,2.03468,2.03468,0,0,0-.90982-.21587,2.29436,2.29436,0,0,0-.90224.20244,1.76136,1.76136,0,0,0-.74768.68036,2.27628,2.27628,0,0,0-.31672,1.05744h3.77279a.14192.14192,0,0,0,.16134-.17465Z"/><path class="a" d="M150.17789,45.15375a.59619.59619,0,0,1-.18229-.43846V38.93553a.61758.61758,0,0,1,.18229-.44433.5852.5852,0,0,1,.43769-.189.64572.64572,0,0,1,.63342.63333v.51238a4.31514,4.31514,0,0,1,1.145-.90295,2.86567,2.86567,0,0,1,1.34748-.31,2.43254,2.43254,0,0,1,1.30719.35027,2.3007,2.3007,0,0,1,.82916.95665,3.095,3.095,0,0,1,.289,1.3473v3.826a.58915.58915,0,0,1-.18817.43846.62439.62439,0,0,1-1.06445-.43835V41.02363q0-1.62912-1.4693-1.62953a2.15351,2.15351,0,0,0-1.1652.32339,4.258,4.258,0,0,0-1.03078.95587v4.04188a.58684.58684,0,0,1-.189.43846.62036.62036,0,0,1-.44439.18143A.597.597,0,0,1,150.17789,45.15375Z"/><path class="a" d="M159.60277,44.97147a3.29477,3.29477,0,0,1-1.33406-1.26664,3.91716,3.91716,0,0,1,.01344-3.79915,3.35724,3.35724,0,0,1,1.30046-1.23221,4.07031,4.07031,0,0,1,2.99824-.26963,5.00643,5.00643,0,0,1,1.024.47794.57036.57036,0,0,1,.26966.48549.54615.54615,0,0,1-.16213.37714.484.484,0,0,1-.36376.17471.67458.67458,0,0,1-.29656-.08063,4.9146,4.9146,0,0,0-.78127-.33682,2.67191,2.67191,0,0,0-.76782-.09409,2.45736,2.45736,0,0,0-1.79861.65351,2.65028,2.65028,0,0,0,0,3.51606,2.45743,2.45743,0,0,0,1.79861.65349,2.67191,2.67191,0,0,0,.76782-.09409,4.9952,4.9952,0,0,0,.78127-.33681.6765.6765,0,0,1,.29656-.08148.485.485,0,0,1,.36376.17554.54617.54617,0,0,1,.16213.37714.5714.5714,0,0,1-.26966.4855,5.007,5.007,0,0,1-1.024.47794,3.78788,3.78788,0,0,1-1.18536.168A3.85387,3.85387,0,0,1,159.60277,44.97147Z"/><path class="a" d="M165.83528,44.46a3.61526,3.61526,0,0,1-.9232-2.64084,4.58,4.58,0,0,1,.3504-1.76474,2.93566,2.93566,0,0,1,1.1047-1.33387,3.17554,3.17554,0,0,1,1.77846-.48549,3.23878,3.23878,0,0,1,1.739.45862,3.12211,3.12211,0,0,1,1.09119,1.23221,3.76182,3.76182,0,0,1,.39065,1.71776.61028.61028,0,0,1-.60018.62023c-.01107.00019-.02217.00007-.03324-.00035h-4.55408a2.181,2.181,0,0,0,.72079,1.46154,2.43843,2.43843,0,0,0,1.62387.50565,4.178,4.178,0,0,0,.96273-.10078,4.01019,4.01019,0,0,0,.856-.31666.48341.48341,0,0,1,.24278-.05377.55134.55134,0,0,1,.384.15455.50178.50178,0,0,1,.168.384.5903.5903,0,0,1-.36376.51237,5.06643,5.06643,0,0,1-1.07781.45113,4.90424,4.90424,0,0,1-1.28028.14112A3.44532,3.44532,0,0,1,165.83528,44.46Zm4.2777-3.39513a1.78494,1.78494,0,0,0-.32343-.90295,1.90893,1.90893,0,0,0-.73424-.64677,2.0346,2.0346,0,0,0-.9098-.21587,2.29449,2.29449,0,0,0-.90225.20244,1.76139,1.76139,0,0,0-.74767.68036,2.27586,2.27586,0,0,0-.31679,1.05744h3.77279a.1419.1419,0,0,0,.16143-.17465Z"/><path class="a" d="M177.69309,45.15375a.59865.59865,0,0,1-.18147-.43846V39.44792h-.78212a.53872.53872,0,0,1-.37719-.92306.52866.52866,0,0,1,.37719-.15456h.78212v-.76855a2.63845,2.63845,0,0,1,.29657-1.33385,1.78594,1.78594,0,0,1,.73422-.74757,2.09,2.09,0,0,1,1.0039-.24946,2.69393,2.69393,0,0,1,1.17192.26962.55583.55583,0,0,1,.32344.48549.51737.51737,0,0,1-.15456.36371.48221.48221,0,0,1-.357.16127,1.27815,1.27815,0,0,1-.31-.04031l-.36375-.04034a1.10824,1.10824,0,0,0-.8426.26964,1.31337,1.31337,0,0,0-.24951.90211v.72824h1.67092a.52941.52941,0,0,1,.5393.51936q.00019.00952,0,.01905a.52787.52787,0,0,1-.15542.37714.50844.50844,0,0,1-.38391.16213h-1.67094v5.26737a.58921.58921,0,0,1-.18818.43846.62242.62242,0,0,1-.44524.18143A.59828.59828,0,0,1,177.69309,45.15375Z"/><path class="a" d="M182.60419,45.16047a1.87659,1.87659,0,0,1-.8216-.714,1.97919,1.97919,0,0,1-.29654-1.07851,1.86506,1.86506,0,0,1,.81487-1.6228,3.95421,3.95421,0,0,1,2.2976-.57285h1.61715v-.09409a1.65578,1.65578,0,0,0-.42424-1.25992,1.96294,1.96294,0,0,0-1.3685-.3973,4.70832,4.70832,0,0,0-.87536.07391,7.25155,7.25155,0,0,0-.91653.24947l-.17473.02687a.48881.48881,0,0,1-.357-.15538.50456.50456,0,0,1-.15542-.37042.5291.5291,0,0,1,.36377-.525,5.86151,5.86151,0,0,1,2.33119-.48549,3.15978,3.15978,0,0,1,1.59028.37714,2.37683,2.37683,0,0,1,.93.96342,2.85742,2.85742,0,0,1,.30916,1.32715v3.81256a.58606.58606,0,0,1-.18818.43846.62436.62436,0,0,1-1.0644-.43755V44.392a3.33714,3.33714,0,0,1-2.52026,1.01047A2.521,2.521,0,0,1,182.60419,45.16047Zm2.67482-1.139a3.08711,3.08711,0,0,0,.93669-.7207v-1.118h-1.45588q-2.02122,0-2.0204,1.05079,0,1.06464,1.41469,1.06422a2.45586,2.45586,0,0,0,1.1249-.27629Z"/><path class="a" d="M189.68607,45.15375a.59627.59627,0,0,1-.1823-.43846V38.93553a.61759.61759,0,0,1,.1823-.44433.58521.58521,0,0,1,.43767-.189.64567.64567,0,0,1,.63342.63333v.53926a2.63282,2.63282,0,0,1,2.1019-1.23982h.06721a.57636.57636,0,0,1,.43181.18228.6108.6108,0,0,1,.17473.43761.55111.55111,0,0,1-.1823.42418.63694.63694,0,0,1-.45112.16884h-.06721a2.30778,2.30778,0,0,0-1.16518.30322,2.68613,2.68613,0,0,0-.90981.86853v4.09563a.587.587,0,0,1-.189.43846.6204.6204,0,0,1-.4444.18143A.597.597,0,0,1,189.68607,45.15375Z"/><path class="a" d="M204.75042,39.56886a3.23219,3.23219,0,0,1,.24951,1.26665v3.87978a.58686.58686,0,0,1-.189.43846.62436.62436,0,0,1-1.0644-.43846v-3.637a2.07065,2.07065,0,0,0-.3167-1.29353,1.26937,1.26937,0,0,0-1.04421-.39058,1.78,1.78,0,0,0-1.09128.33011,3.46863,3.46863,0,0,0-.83589.94916v4.04187a.58909.58909,0,0,1-.18818.43846.62437.62437,0,0,1-1.06442-.43836V41.07826a2.07065,2.07065,0,0,0-.3167-1.29353,1.27053,1.27053,0,0,0-1.04424-.39058,1.78083,1.78083,0,0,0-1.09208.33011,3.46681,3.46681,0,0,0-.83506.94916v4.04187a.58693.58693,0,0,1-.189.43846.62436.62436,0,0,1-1.0644-.43846V38.93553a.61759.61759,0,0,1,.1823-.44433.58519.58519,0,0,1,.43767-.189.64568.64568,0,0,1,.63342.63333v.499a3.22438,3.22438,0,0,1,.95681-.8828,2.5661,2.5661,0,0,1,1.3206-.31667,2.15944,2.15944,0,0,1,1.27272.38395,2.1856,2.1856,0,0,1,.78879.99025,2.72022,2.72022,0,0,1,2.47907-1.3742,2.06694,2.06694,0,0,1,1.28029.37714A2.27229,2.27229,0,0,1,204.75042,39.56886Z"/><path class="b" d="M7.73384,8.985c2.08038-.00579,4.15773-.791,6.22828-.78792a5.10811,5.10811,0,0,1,3.39144,1.14209,5.10772,5.10772,0,0,0-3.39179-1.14244c-2.0702-.003-4.14755.78216-6.22828.78792a9.39468,9.39468,0,0,1-2.7783-.40131l.00016.00029A9.39548,9.39548,0,0,0,7.73384,8.985Z"/><path class="b" d="M4.95513,8.58354V8.58327l-.00016,0a6.26382,6.26382,0,0,0,1.45187,1.95817A6.26378,6.26378,0,0,1,4.95535,8.58359Z"/><polygon class="b" points="4.955 8.583 4.955 8.583 4.955 8.583 4.955 8.583"/><path class="b" d="M13.33376,11.90468l.00027-.00019c-2.04406-.4883-2.90578-.46468-3.1818-.88191C10.42776,11.4403,11.28914,11.41638,13.33376,11.90468Z"/><path class="b" d="M28.66937,7.14616c.17408-.31761-.19442-.7577-.73735-.56327-.5429.19477-.512,1.53645-.512,1.53645A5.70577,5.70577,0,0,0,28.66937,7.14616Z"/><path class="c" d="M25.05932,22.37091a5.40711,5.40711,0,0,0-2.33862,1.004,2.68768,2.68768,0,0,0-.63419.55752,5.1769,5.1769,0,0,0-1.58159,2.94565,28.74952,28.74952,0,0,0-.10078,4.42172l.00035.00033c2.73936-.017,5.32161.46692,7.39454-1.57648A5.98742,5.98742,0,0,0,29.3694,26.76a30.14831,30.14831,0,0,0,.11062-4.4577A35.87046,35.87046,0,0,0,25.05932,22.37091Z"/><path class="c" d="M13.766,22.39567a32.06743,32.06743,0,0,0-4.52013-.096,30.43712,30.43712,0,0,0,.115,4.41729,5.63718,5.63718,0,0,0,4.53436,4.513,28.72722,28.72722,0,0,0,4.43157.056l.00035-.00035c.095-3.1618.1598-5.43866-1.60264-7.33242A6.18727,6.18727,0,0,0,13.766,22.39567Z"/><path class="d" d="M13.89628,17.28989c.7913.14794,2.51472-2.18865,6.6341-1.61419,3.138.43739,3.64059,2.09873,4.5364,1.49814.36409-.24432.51714-.83746-.21751-1.35017a9.78452,9.78452,0,0,0-6.68769-1.6101l-.00035-.00032a9.69863,9.69863,0,0,0-3.25377.98028,7.78227,7.78227,0,0,0-1.31182.81878A.73384.73384,0,0,0,13.89628,17.28989Z"/><path class="d" d="M23.48657,18.28409a6.936,6.936,0,0,0-8.25472-.01662c-.6637.59041-.03629,1.78788,1.04648,1.04783a5.14921,5.14921,0,0,1,2.23716-.87105l-.00036.00035a5.66044,5.66044,0,0,1,2.80079.29385,4.99094,4.99094,0,0,1,1.04172.53952C23.6491,20.12967,24.01625,18.75778,23.48657,18.28409Z"/><path class="d" d="M16.635,20.70381a.72849.72849,0,0,0,.83813,1.0468,4.20756,4.20756,0,0,0,.66744-.3641,2.32846,2.32846,0,0,1,.83032-.23753h.00035c1.37154-.21885,1.89987.59857,2.39664.62538,1.17236.06346,1.22087-1.84149-1.60873-2.10448C18.74588,19.57588,16.98479,20.0187,16.635,20.70381Z"/><path class="d" d="M17.91624,23.56462a1.47065,1.47065,0,0,0,2.85778.69562A1.47065,1.47065,0,0,0,17.91624,23.56462Z"/><path class="d" d="M36.61088,21.05364A20.05294,20.05294,0,0,0,32.7443,16.07c-3.87234-3.26666-6.26525-4.31348-12.688-5.117.51338-2.51607,3.83909-1.8052,6.308-1.44892.79743,1.78517,2.78652,4.01455,5.47023,3.94226.96742-.02611,1.25144-.83508.54935-1.2582-.37325-.225-3.31755-.12081-4.48007-2.73765.95553-.63795,1.42314-.37056,2.04306-1.38546a1.96928,1.96928,0,0,0-2.92022-2.5965,2.9998,2.9998,0,0,0-1.01455,2.58868c-4.2636-.282-2.92938-.83813-6.40744.69155a8.15543,8.15543,0,0,1,2.11874-5.41323,30.34551,30.34551,0,0,1,2.794,1.25041,2.722,2.722,0,0,0,.813.37869.83963.83963,0,0,0,.79368-.34069c.92058-1.28941-1.78958-1.84828-2.13163-2.27073a4.26691,4.26691,0,0,1-.95858-.377c-.94026-.41125-6.118-2.25378-6.86553-1.94057a3.07738,3.07738,0,0,0-.398.28572l0-.00036c-.13675.39634-.26707.68409.06514,1.06956.26842.31115.46792.28842.95926.40617a13.25267,13.25267,0,0,1,2.10111.59041,4.8103,4.8103,0,0,1,1.10006.323q.16695.055.33018.11062l-.021.03086A10.388,10.388,0,0,0,18.25014,8.1838c-4.75765-2.84522-6.78-.36715-11.1756-.59787-1.60194-.08416-2.699-1.08518-3.60192-.90464-.76821.76754-.40177,1.34711.10757,2.32842,1.8286,3.52184,4.63717,4.116,5.61478,4.86455L6.69518,15.786a19.9693,19.9693,0,0,0-5.43731,7.84038A19.55384,19.55384,0,0,0,10.2808,47.71219a20.04309,20.04309,0,0,0,14.90576,1.48522C36.98449,45.54868,42.2925,32.51426,36.61088,21.05364ZM27.932,6.58289c.54293-.19443.91143.24566.73735.56327A5.70577,5.70577,0,0,1,27.42,8.11934S27.38912,6.77766,27.932,6.58289Zm-19.4537,5.4003a9.15246,9.15246,0,0,1-2.07148-1.44178A6.26382,6.26382,0,0,1,4.955,8.58324l-.00019,0V8.58286l.00019.00038.00016,0V8.58319l.00006.00011a9.39468,9.39468,0,0,0,2.7783.40131c2.08073-.00576,4.15808-.791,6.22828-.78792a5.10772,5.10772,0,0,1,3.39179,1.14244,2.5288,2.5288,0,0,1,.85145,1.69634c-1.91922.07738-2.283.42315-4.37421.01968-.95383-.18424-3.1211-.91345-3.78108-.63214a.964.964,0,0,0,.10251.59957c.276.41723,1.13774.39361,3.1818.88191l-.00027.00019.0006.00014C11.5821,13.13215,10.24007,12.88378,8.47832,11.98319ZM30.29677,45.12113c-.49141.35026-1.01912.68341-1.56913,1.00164a12.77321,12.77321,0,0,0-6.36771-3.65459l.00246-1.02361c1.446-.23467,2.61509.23518,4.35849-.80795V38.02037a1.06487,1.06487,0,1,1,.54768.00357V40.269a5.71467,5.71467,0,0,0,2.15819-3.82439,29.94768,29.94768,0,0,0,.039-4.02877c-2.13229.095-4.06068-.3468-5.94223.57174-3.608,1.762-3.2221,5.54208-3.14358,9.18078-.30872-.02229-.61933-.03772-.93373-.03772-.4139,0-.82221.02305-1.226.06148.07732-3.646.47279-7.43875-3.14307-9.20454-1.88155-.91854-3.80991-.47674-5.94224-.57174a29.94933,29.94933,0,0,0,.039,4.02877c.00686.06686.02292.13291.03259.19958V36.618h3.34a1.06487,1.06487,0,1,1-.00357.54765H9.30883a5.72642,5.72642,0,0,0,2.086,3.15434c2.02171,1.4557,3.267.86867,4.84349,1.12453l.00263,1.095a12.77616,12.77616,0,0,0-6.03286,3.542,18.76821,18.76821,0,0,1-3.1318-2.38123c-2.33488-2.565-4.09768-4.62293-5.08-8.5177-.63182-2.50521-1.417-7.63612.832-11.80367H2.82792c2.16181-5.94937,8.77556-10.4413,15.55217-10.99236,4.63922-.377,11.1023,2.03084,13.43516,4.77833,1.11569,1.31419,3.19948,3.02167,3.55914,4.72609C39.0659,29.88622,36.75307,40.51957,30.29677,45.12113Z"/><polygon class="c" points="4.955 8.584 4.955 8.583 4.955 8.583 4.955 8.584 4.955 8.584"/><path class="c" d="M13.33376,11.90468c-2.04462-.4883-2.906-.46438-3.18153-.8821a.9628.9628,0,0,1-.10286-.59992c.66-.28129,2.82725.44825,3.78108.63216,2.09124.40345,2.455.05768,4.37421-.01967a2.5287,2.5287,0,0,0-.8511-1.696A5.10811,5.10811,0,0,0,13.96212,8.197c-2.07055-.003-4.1479.78213-6.22828.78792a9.39548,9.39548,0,0,1-2.77849-.40137,6.26378,6.26378,0,0,0,1.45149,1.95782A9.15371,9.15371,0,0,0,8.478,11.98287C10.23964,12.88338,11.58132,13.13183,13.33376,11.90468Z"/><polygon class="c" points="4.955 8.583 4.955 8.583 4.955 8.583 4.955 8.583"/><path class="c" d="M13.83045,11.05482c-.95383-.18391-3.1211-.91345-3.78108-.63216a.9628.9628,0,0,0,.10286.59992.964.964,0,0,1-.10251-.59957c.66-.28131,2.82725.4479,3.78108.63214,2.09124.40347,2.455.0577,4.37421-.01968a2.5288,2.5288,0,0,0-.85145-1.69634,2.5287,2.5287,0,0,1,.8511,1.696C16.28546,11.1125,15.92169,11.45827,13.83045,11.05482Z"/><path class="c" d="M13.33436,11.90482l-.0006-.00014c-1.75244,1.22715-3.09412.9787-4.85579.07819a9.15371,9.15371,0,0,1-2.07113-1.44146,9.15246,9.15246,0,0,0,2.07148,1.44178C10.24007,12.88378,11.5821,13.13215,13.33436,11.90482Z"/></svg>