<svg xmlns="http://www.w3.org/2000/svg" viewBox="0 0 205 50"><defs><style>.a{fill:#fff;}</style></defs><path class="a" d="M45.229,45.28893a.52763.52763,0,0,1-.2285-.45858.55112.55112,0,0,1,.15458-.38385.50186.50186,0,0,1,.384-.168.53425.53425,0,0,1,.24278.05376,5.06761,5.06761,0,0,0,.8896.30322,4.137,4.137,0,0,0,.94257.10078q1.4832,0,1.48275-.94329a.49993.49993,0,0,0-.32344-.45777,6.71955,6.71955,0,0,0-1.13158-.3637,8.24446,8.24446,0,0,1-1.3072-.39058,2.12092,2.12092,0,0,1-.93-.64677A1.63337,1.63337,0,0,1,45.05431,40.87a1.93267,1.93267,0,0,1,.70064-1.54972,2.91526,2.91526,0,0,1,1.94059-.593,5.41673,5.41673,0,0,1,1.954.33683.54108.54108,0,0,1,.24194.90967.51951.51951,0,0,1-.39063.168l-.17474-.02687a5.36766,5.36766,0,0,0-1.5365-.24191,2.12532,2.12532,0,0,0-1.11816.25535.7681.7681,0,0,0-.41836.67364.61506.61506,0,0,0,.3646.57958,7.1006,7.1006,0,0,0,1.17192.3637q.72707.189,1.29372.39058a2.02408,2.02408,0,0,1,.88879.65348,1.74589,1.74589,0,0,1,.33688,1.09782,1.7734,1.7734,0,0,1-.70062,1.44222,2.96078,2.96078,0,0,1-1.91287.56529A5.14517,5.14517,0,0,1,45.229,45.28893Z"/><path class="a" d="M52.10846,45.646a.59617.59617,0,0,1-.18229-.43846V36.46436a.61947.61947,0,0,1,.18229-.44518.5875.5875,0,0,1,.43769-.18815.64419.64419,0,0,1,.63342.63333v3.47575a4.315,4.315,0,0,1,1.145-.90295,2.86566,2.86566,0,0,1,1.3475-.31,2.43263,2.43263,0,0,1,1.3072.35026,2.30081,2.30081,0,0,1,.82916.95666,3.0953,3.0953,0,0,1,.289,1.3473v3.826a.58909.58909,0,0,1-.18818.43846.62438.62438,0,0,1-1.06444-.43835V41.51583q0-1.62912-1.46931-1.62953a2.15345,2.15345,0,0,0-1.16519.32339,4.25774,4.25774,0,0,0-1.03076.95587v4.04188a.58688.58688,0,0,1-.189.43846.6204.6204,0,0,1-.4444.18143A.597.597,0,0,1,52.10846,45.646Z"/><path class="a" d="M60.23289,37.27912a.67216.67216,0,0,1-.20834-.49221v-.05377a.71307.71307,0,0,1,.70062-.70052h.08066a.71307.71307,0,0,1,.70062.70052v.05377a.713.713,0,0,1-.70062.70136h-.08066A.67318.67318,0,0,1,60.23289,37.27912Zm.08149,8.36675a.59622.59622,0,0,1-.18231-.43846V39.42773a.61756.61756,0,0,1,.18231-.44433.58521.58521,0,0,1,.43767-.189.62267.62267,0,0,1,.63342.61174q.00018.01079,0,.02159v5.77976a.58687.58687,0,0,1-.189.43846.6204.6204,0,0,1-.4444.18143.597.597,0,0,1-.43767-.18143Z"/><path class="a" d="M63.66966,45.646a.5962.5962,0,0,1-.1823-.43846V39.42773a.61759.61759,0,0,1,.1823-.44433.58523.58523,0,0,1,.43768-.189.64569.64569,0,0,1,.63342.63333v.51239a4.31528,4.31528,0,0,1,1.145-.903,2.8657,2.8657,0,0,1,1.34748-.31,2.43264,2.43264,0,0,1,1.3072.35027,2.30075,2.30075,0,0,1,.82915.95665,3.09516,3.09516,0,0,1,.289,1.3473v3.826a.58915.58915,0,0,1-.18817.43846.62439.62439,0,0,1-1.06445-.43835V41.51583q0-1.62912-1.4693-1.62953a2.15348,2.15348,0,0,0-1.1652.32339,4.25819,4.25819,0,0,0-1.03078.95587v4.04188a.5869.5869,0,0,1-.189.43846.6204.6204,0,0,1-.44442.18143A.597.597,0,0,1,63.66966,45.646Z"/><path class="a" d="M71.87641,45.646a.5962.5962,0,0,1-.18229-.43846V39.42773a.61764.61764,0,0,1,.18229-.44433.58523.58523,0,0,1,.43768-.189.64569.64569,0,0,1,.63342.63333v.51239a4.31528,4.31528,0,0,1,1.145-.903,2.86578,2.86578,0,0,1,1.3475-.31,2.43268,2.43268,0,0,1,1.3072.35027,2.30092,2.30092,0,0,1,.82916.95665,3.09544,3.09544,0,0,1,.289,1.3473v3.826a.58909.58909,0,0,1-.18817.43846.62439.62439,0,0,1-1.06445-.43835V41.51583q0-1.62912-1.4693-1.62953a2.15348,2.15348,0,0,0-1.1652.32339,4.25821,4.25821,0,0,0-1.03078.95587v4.04188a.58682.58682,0,0,1-.189.43846.62038.62038,0,0,1-.44441.18143A.597.597,0,0,1,71.87641,45.646Z"/><path class="a" d="M80.57378,45.65267a1.87653,1.87653,0,0,1-.82161-.71395,1.97934,1.97934,0,0,1-.29655-1.07852,1.8651,1.8651,0,0,1,.81488-1.6228,3.95425,3.95425,0,0,1,2.29759-.57285h1.61716v-.09409a1.65583,1.65583,0,0,0-.42425-1.25992,1.96293,1.96293,0,0,0-1.3685-.3973,4.70914,4.70914,0,0,0-.87535.07391,7.25354,7.25354,0,0,0-.91652.24947l-.17473.02687a.4888.4888,0,0,1-.35705-.15538.50459.50459,0,0,1-.15541-.37042.52908.52908,0,0,1,.36375-.525,5.86171,5.86171,0,0,1,2.33119-.48549,3.15986,3.15986,0,0,1,1.59028.37714,2.37694,2.37694,0,0,1,.93.96342,2.85769,2.85769,0,0,1,.30915,1.32715v3.81256a.586.586,0,0,1-.18817.43846.62435.62435,0,0,1-1.06438-.43757v-.32419A3.33708,3.33708,0,0,1,81.665,45.89466,2.52079,2.52079,0,0,1,80.57378,45.65267Zm2.67481-1.139a3.08716,3.08716,0,0,0,.9367-.72069V42.675H82.72943q-2.02122,0-2.02039,1.05079,0,1.06465,1.4147,1.06422a2.4559,2.4559,0,0,0,1.12485-.27629Z"/><path class="a" d="M87.65476,45.646a.59614.59614,0,0,1-.1823-.43846V39.42773a.61758.61758,0,0,1,.1823-.44433.58516.58516,0,0,1,.43769-.189.64572.64572,0,0,1,.63342.63333v.51239a4.315,4.315,0,0,1,1.145-.903,2.86567,2.86567,0,0,1,1.34748-.31,2.43263,2.43263,0,0,1,1.30719.35027,2.3007,2.3007,0,0,1,.82916.95665,3.095,3.095,0,0,1,.289,1.3473v3.826a.58915.58915,0,0,1-.18817.43846.62439.62439,0,0,1-1.06445-.43838V41.51583q0-1.62912-1.46929-1.62953a2.15351,2.15351,0,0,0-1.1652.32339,4.25819,4.25819,0,0,0-1.03078.95587v4.04188a.58687.58687,0,0,1-.189.43846.6204.6204,0,0,1-.4444.18143A.59685.59685,0,0,1,87.65476,45.646Z"/><path class="a" d="M99.82174,37.27912a.67213.67213,0,0,1-.20835-.49221v-.05377a.71309.71309,0,0,1,.70063-.70052h.08064a.71309.71309,0,0,1,.70063.70052v.05377a.71306.71306,0,0,1-.70063.70136H100.314A.67316.67316,0,0,1,99.82174,37.27912Zm.08148,8.36675a.59612.59612,0,0,1-.1823-.43846V39.42773a.61754.61754,0,0,1,.1823-.44433.58516.58516,0,0,1,.43768-.189.6227.6227,0,0,1,.63342.61177q.00018.01078,0,.02156v5.77976a.58684.58684,0,0,1-.189.43846.62036.62036,0,0,1-.44439.18143.59684.59684,0,0,1-.43768-.18143Z"/><path class="a" d="M103.2585,45.646a.59624.59624,0,0,1-.1823-.43846V39.42773a.61765.61765,0,0,1,.1823-.44433.58523.58523,0,0,1,.43768-.189.64571.64571,0,0,1,.63342.63333v.51239a4.31513,4.31513,0,0,1,1.145-.903,2.86573,2.86573,0,0,1,1.34748-.31,2.43272,2.43272,0,0,1,1.3072.35027,2.30075,2.30075,0,0,1,.82915.95665,3.095,3.095,0,0,1,.289,1.3473v3.826a.58918.58918,0,0,1-.18817.43846.62439.62439,0,0,1-1.06445-.43835V41.51583q0-1.62912-1.46931-1.62953a2.15347,2.15347,0,0,0-1.16519.32339,4.25783,4.25783,0,0,0-1.03078.95587v4.04188a.58691.58691,0,0,1-.189.43846.62034.62034,0,0,1-.4444.18143A.59692.59692,0,0,1,103.2585,45.646Z"/><path class="a" d="M114.79955,44.81691a.47836.47836,0,0,1,.14784.35026.536.536,0,0,1-.32343.4855,2.64021,2.64021,0,0,1-1.11816.24191q-1.9809,0-1.9809-1.79164V40.00731h-.67374a.53981.53981,0,1,1,0-1.07767h.67374V37.973a.6215.6215,0,0,1,.16885-.47121.64005.64005,0,0,1,.46457-.16212.60689.60689,0,0,1,.45869.16884.64308.64308,0,0,1,.16129.46449v.95666h1.5088a.52812.52812,0,0,1,.53933.51664c.00014.00726.00016.01452,0,.02178a.53247.53247,0,0,1-.15458.378.51252.51252,0,0,1-.38476.16128h-1.5088v3.9882a.75448.75448,0,0,0,.21591.63333,1.073,1.073,0,0,0,.64686.16127,1.782,1.782,0,0,0,.5385-.08063.05321.05321,0,0,0,.04032-.01343,1.226,1.226,0,0,1,.22934-.0269A.48177.48177,0,0,1,114.79955,44.81691Z"/><path class="a" d="M116.67963,44.95215a3.61526,3.61526,0,0,1-.9232-2.64084,4.57982,4.57982,0,0,1,.3504-1.76474,2.93571,2.93571,0,0,1,1.1047-1.33387,3.17552,3.17552,0,0,1,1.77846-.48549,3.23881,3.23881,0,0,1,1.739.45862,3.12218,3.12218,0,0,1,1.09119,1.23221,3.76181,3.76181,0,0,1,.39064,1.71773.61029.61029,0,0,1-.60018.62023q-.01662.00027-.03324-.00036h-4.55414a2.18112,2.18112,0,0,0,.7208,1.46155,2.43838,2.43838,0,0,0,1.62387.50565,4.17756,4.17756,0,0,0,.96273-.10079,4.00957,4.00957,0,0,0,.856-.31666.48357.48357,0,0,1,.24279-.05377.55139.55139,0,0,1,.384.15456.50178.50178,0,0,1,.168.38394.59031.59031,0,0,1-.36376.51237,5.067,5.067,0,0,1-1.07781.45114,4.90381,4.90381,0,0,1-1.28028.14111A3.44529,3.44529,0,0,1,116.67963,44.95215Zm4.27769-3.39512a1.78493,1.78493,0,0,0-.32342-.903,1.90889,1.90889,0,0,0-.73424-.64676,2.03461,2.03461,0,0,0-.9098-.21588,2.29449,2.29449,0,0,0-.90225.20244,1.76139,1.76139,0,0,0-.74767.68036,2.27586,2.27586,0,0,0-.31679,1.05744h3.77279a.14188.14188,0,0,0,.16138-.17464Z"/><path class="a" d="M123.9833,45.646a.59616.59616,0,0,1-.18228-.43846V36.46436a.61951.61951,0,0,1,.18228-.44518.58753.58753,0,0,1,.4377-.18815.62133.62133,0,0,1,.63342.609q.00024.01217,0,.02433v8.74313a.58688.58688,0,0,1-.189.43846.62037.62037,0,0,1-.44439.18143A.597.597,0,0,1,123.9833,45.646Z"/><path class="a" d="M127.33782,45.646a.59624.59624,0,0,1-.1823-.43846V36.46436a.61947.61947,0,0,1,.1823-.44518.58753.58753,0,0,1,.43768-.18815.62132.62132,0,0,1,.63342.609q.00024.01218,0,.02436v8.74313a.5869.5869,0,0,1-.189.43846.62044.62044,0,0,1-.44442.18143A.597.597,0,0,1,127.33782,45.646Z"/><path class="a" d="M130.61155,37.27912a.6722.6722,0,0,1-.20834-.49221v-.05377a.71307.71307,0,0,1,.70062-.70052h.08065a.71305.71305,0,0,1,.70062.70052v.05377a.713.713,0,0,1-.70062.70136h-.08065A.67316.67316,0,0,1,130.61155,37.27912Zm.08148,8.36675a.59625.59625,0,0,1-.1823-.43846V39.42773a.61765.61765,0,0,1,.1823-.44433.58523.58523,0,0,1,.43768-.189.62266.62266,0,0,1,.63342.61174q.00018.01079,0,.02159v5.77976a.5869.5869,0,0,1-.189.43846.62044.62044,0,0,1-.44442.18143.59692.59692,0,0,1-.43769-.18143Z"/><path class="a" d="M135.53024,48.79159a5.40824,5.40824,0,0,1-1.32733-.49808.53726.53726,0,0,1-.25623-.4855.56388.56388,0,0,1,.16215-.39058.51212.51212,0,0,1,.39063-.17555.66344.66344,0,0,1,.24279.0546,5.01469,5.01469,0,0,0,2.22285.51153q2.049,0,2.0481-2.18221v-.86264a3.00553,3.00553,0,0,1-2.29005.997,3.32233,3.32233,0,0,1-2.80335-1.62364,4.08046,4.08046,0,0,1,.01344-3.83274,3.20473,3.20473,0,0,1,1.21981-1.17263,3.26191,3.26191,0,0,1,1.57011-.404,3.0084,3.0084,0,0,1,2.29.997v-.29647a.62106.62106,0,0,1,.1823-.44433.58523.58523,0,0,1,.43768-.189.64569.64569,0,0,1,.63343.63333v6.02251a3.81332,3.81332,0,0,1-.8216,2.62067,2.99488,2.99488,0,0,1-2.3581.92307A6.37547,6.37547,0,0,1,135.53024,48.79159Zm2.5194-4.42573a4.00426,4.00426,0,0,0,.96356-.73413V40.85651a4.009,4.009,0,0,0-.96356-.735,2.28776,2.28776,0,0,0-1.0711-.24864,2.2434,2.2434,0,0,0-1.65747.61911,2.78763,2.78763,0,0,0,0,3.50348,2.24061,2.24061,0,0,0,1.65747.61989A2.27817,2.27817,0,0,0,138.04964,44.36586Z"/><path class="a" d="M142.87422,44.95215a3.61517,3.61517,0,0,1-.9232-2.64084,4.58019,4.58019,0,0,1,.35032-1.76474,2.93564,2.93564,0,0,1,1.10472-1.33387,3.17546,3.17546,0,0,1,1.77843-.48549,3.23865,3.23865,0,0,1,1.739.45862,3.122,3.122,0,0,1,1.09128,1.23221,3.76194,3.76194,0,0,1,.39064,1.71773.61031.61031,0,0,1-.60021.62023q-.01661.00027-.03321-.00036h-4.5542a2.18112,2.18112,0,0,0,.7208,1.46155,2.43843,2.43843,0,0,0,1.62389.50565,4.17748,4.17748,0,0,0,.96272-.10079,4.00965,4.00965,0,0,0,.856-.31666.48351.48351,0,0,1,.24278-.05377.55143.55143,0,0,1,.384.15456.50177.50177,0,0,1,.168.38394.59029.59029,0,0,1-.36376.51237,5.06749,5.06749,0,0,1-1.07781.45114,4.90381,4.90381,0,0,1-1.28028.14111A3.44526,3.44526,0,0,1,142.87422,44.95215Zm4.2777-3.39512a1.78514,1.78514,0,0,0-.32344-.903,1.90886,1.90886,0,0,0-.73423-.64676,2.03456,2.03456,0,0,0-.90982-.21588,2.29454,2.29454,0,0,0-.90224.20244,1.76136,1.76136,0,0,0-.74768.68036,2.27628,2.27628,0,0,0-.31672,1.05744h3.77279a.14191.14191,0,0,0,.16134-.17464Z"/><path class="a" d="M150.17789,45.646a.59619.59619,0,0,1-.18229-.43846V39.42773a.6176.6176,0,0,1,.18229-.44433.5852.5852,0,0,1,.43769-.189.64572.64572,0,0,1,.63342.63333v.51239a4.315,4.315,0,0,1,1.145-.903,2.86567,2.86567,0,0,1,1.34748-.31,2.43254,2.43254,0,0,1,1.30719.35027,2.3007,2.3007,0,0,1,.82916.95665,3.095,3.095,0,0,1,.289,1.3473v3.826a.58915.58915,0,0,1-.18817.43846.62439.62439,0,0,1-1.06445-.43835V41.51583q0-1.62912-1.4693-1.62953a2.15351,2.15351,0,0,0-1.1652.32339,4.258,4.258,0,0,0-1.03078.95587v4.04188a.58684.58684,0,0,1-.189.43846.62032.62032,0,0,1-.44439.18143A.597.597,0,0,1,150.17789,45.646Z"/><path class="a" d="M159.60277,45.46367a3.29477,3.29477,0,0,1-1.33406-1.26664,3.91716,3.91716,0,0,1,.01344-3.79915,3.35724,3.35724,0,0,1,1.30046-1.23221,4.07026,4.07026,0,0,1,2.99824-.26962,5.00587,5.00587,0,0,1,1.024.47793.57036.57036,0,0,1,.26966.48549.54615.54615,0,0,1-.16213.37714.484.484,0,0,1-.36376.17471.67458.67458,0,0,1-.29656-.08063,4.9146,4.9146,0,0,0-.78127-.33682,2.67191,2.67191,0,0,0-.76782-.09409,2.4574,2.4574,0,0,0-1.79861.65351,2.65028,2.65028,0,0,0,0,3.51606,2.45743,2.45743,0,0,0,1.79861.65349,2.67191,2.67191,0,0,0,.76782-.09409,4.9952,4.9952,0,0,0,.78127-.33681.6765.6765,0,0,1,.29656-.08148.48505.48505,0,0,1,.36376.17554.54617.54617,0,0,1,.16213.37714.5714.5714,0,0,1-.26966.4855,5.007,5.007,0,0,1-1.024.47794,3.78788,3.78788,0,0,1-1.18536.168A3.85387,3.85387,0,0,1,159.60277,45.46367Z"/><path class="a" d="M165.83528,44.95215a3.61526,3.61526,0,0,1-.9232-2.64084,4.58,4.58,0,0,1,.3504-1.76474,2.93571,2.93571,0,0,1,1.1047-1.33387,3.17554,3.17554,0,0,1,1.77846-.48549,3.23878,3.23878,0,0,1,1.739.45862A3.12211,3.12211,0,0,1,170.9758,40.418a3.76182,3.76182,0,0,1,.39065,1.71776.61028.61028,0,0,1-.60018.62023c-.01107.00019-.02217.00007-.03324-.00035h-4.55408a2.181,2.181,0,0,0,.72079,1.46154,2.43838,2.43838,0,0,0,1.62387.50565,4.178,4.178,0,0,0,.96273-.10078,4.00965,4.00965,0,0,0,.856-.31666.48341.48341,0,0,1,.24278-.05377.55134.55134,0,0,1,.384.15455.50178.50178,0,0,1,.168.38395.5903.5903,0,0,1-.36376.51237,5.06643,5.06643,0,0,1-1.07781.45113,4.90382,4.90382,0,0,1-1.28028.14112A3.44528,3.44528,0,0,1,165.83528,44.95215ZM170.113,41.557a1.78494,1.78494,0,0,0-.32343-.903,1.90882,1.90882,0,0,0-.73424-.64676,2.03461,2.03461,0,0,0-.9098-.21588,2.29449,2.29449,0,0,0-.90225.20244,1.76139,1.76139,0,0,0-.74767.68036,2.27586,2.27586,0,0,0-.31679,1.05744h3.77279a.14189.14189,0,0,0,.16143-.17464Z"/><path class="a" d="M177.69309,45.646a.59865.59865,0,0,1-.18147-.43846V39.94012h-.78212a.53872.53872,0,0,1-.37719-.92306.52861.52861,0,0,1,.37719-.15455h.78212V38.094a2.63845,2.63845,0,0,1,.29657-1.33385,1.78594,1.78594,0,0,1,.73422-.74757,2.09,2.09,0,0,1,1.0039-.24946,2.69393,2.69393,0,0,1,1.17192.26962.55583.55583,0,0,1,.32344.48549.51735.51735,0,0,1-.15456.36371.48217.48217,0,0,1-.357.16127,1.27815,1.27815,0,0,1-.31-.04031l-.36375-.04033a1.10819,1.10819,0,0,0-.8426.26963,1.31337,1.31337,0,0,0-.24951.90211v.72824h1.67092a.52941.52941,0,0,1,.5393.51936q.00019.00952,0,.01905a.52791.52791,0,0,1-.15542.37715.50846.50846,0,0,1-.38391.16212h-1.67094v5.26737a.58921.58921,0,0,1-.18818.43846.62242.62242,0,0,1-.44524.18143A.59828.59828,0,0,1,177.69309,45.646Z"/><path class="a" d="M182.60419,45.65267a1.87663,1.87663,0,0,1-.8216-.71395,1.97925,1.97925,0,0,1-.29654-1.07852,1.86506,1.86506,0,0,1,.81487-1.6228,3.95421,3.95421,0,0,1,2.2976-.57285h1.61715v-.09409a1.65578,1.65578,0,0,0-.42424-1.25992,1.96294,1.96294,0,0,0-1.3685-.3973,4.70832,4.70832,0,0,0-.87536.07391,7.25323,7.25323,0,0,0-.91653.24947l-.17473.02687a.48881.48881,0,0,1-.357-.15538.50456.50456,0,0,1-.15542-.37042.52911.52911,0,0,1,.36377-.525,5.86168,5.86168,0,0,1,2.33119-.48549,3.15988,3.15988,0,0,1,1.59028.37714,2.37683,2.37683,0,0,1,.93.96342,2.85745,2.85745,0,0,1,.30916,1.32715v3.81256a.586.586,0,0,1-.18818.43846.62436.62436,0,0,1-1.0644-.43755v-.32421a3.33714,3.33714,0,0,1-2.52026,1.01047A2.521,2.521,0,0,1,182.60419,45.65267Zm2.67482-1.139a3.08724,3.08724,0,0,0,.93669-.72069V42.675h-1.45588q-2.02122,0-2.0204,1.05079,0,1.06465,1.41469,1.06422a2.45586,2.45586,0,0,0,1.1249-.27629Z"/><path class="a" d="M189.68607,45.646a.59627.59627,0,0,1-.1823-.43846V39.42773a.61761.61761,0,0,1,.1823-.44433.58524.58524,0,0,1,.43767-.189.64568.64568,0,0,1,.63342.63333V39.967a2.63282,2.63282,0,0,1,2.1019-1.23982h.06721a.57636.57636,0,0,1,.43181.18228.6108.6108,0,0,1,.17473.43761.55111.55111,0,0,1-.1823.42418.63694.63694,0,0,1-.45112.16884h-.06721a2.30778,2.30778,0,0,0-1.16518.30322,2.68613,2.68613,0,0,0-.90981.86853v4.09563a.587.587,0,0,1-.189.43846.6204.6204,0,0,1-.4444.18143A.597.597,0,0,1,189.68607,45.646Z"/><path class="a" d="M204.75042,40.06106a3.23219,3.23219,0,0,1,.24951,1.26665v3.87978a.58686.58686,0,0,1-.189.43846.62436.62436,0,0,1-1.0644-.43846v-3.637a2.07065,2.07065,0,0,0-.3167-1.29353,1.26937,1.26937,0,0,0-1.04421-.39058,1.78,1.78,0,0,0-1.09128.33011,3.46863,3.46863,0,0,0-.83589.94916v4.04187a.58909.58909,0,0,1-.18818.43846.62437.62437,0,0,1-1.06442-.43836V41.57046a2.07065,2.07065,0,0,0-.3167-1.29353,1.27053,1.27053,0,0,0-1.04424-.39058,1.78083,1.78083,0,0,0-1.09208.33011,3.467,3.467,0,0,0-.83506.94916v4.04187a.58692.58692,0,0,1-.189.43846.62436.62436,0,0,1-1.0644-.43846V39.42773a.61761.61761,0,0,1,.1823-.44433.58523.58523,0,0,1,.43767-.189.64569.64569,0,0,1,.63342.63333v.499a3.22438,3.22438,0,0,1,.95681-.8828,2.5663,2.5663,0,0,1,1.3206-.31667,2.15951,2.15951,0,0,1,1.27272.38395,2.1856,2.1856,0,0,1,.78879.99025,2.72022,2.72022,0,0,1,2.47907-1.3742,2.06694,2.06694,0,0,1,1.28029.37714A2.27235,2.27235,0,0,1,204.75042,40.06106Z"/><path class="a" d="M50.548,32.09589V26.30876a14.2631,14.2631,0,0,1-2.54844,3.42466q-1.5394,1.53866-2.04417,1.53939-.95567,0-.95542-1.14138a.99985.99985,0,0,1,.27846-.62383,6.15027,6.15027,0,0,1,.8895-.8098,14.672,14.672,0,0,0,4.08833-4.59261H46.5394q-1.194,0-1.19452-.98248,0-.95566,1.19452-.95542H50.548V19.672H46.19452a1.41049,1.41049,0,0,1-.88949-.22582.88564.88564,0,0,1-.27846-.73009q0-.98149,1.16795-.982h1.6988a30.08409,30.08409,0,0,0-.63711-3.63719l-.02657-.21254h-.92885a.85662.85662,0,0,1-.95591-.982.84505.84505,0,0,1,.95591-.95592h4.168V10.43313q0-1.35344,1.11483-1.35343,1.11505,0,1.11482,1.35343v1.51332h4.14147a.83351.83351,0,0,1,.92934.95592q0,.98223-.92934.982H55.64541L54.902,17.73408H56.9462q1.16747,0,1.168.982a.88567.88567,0,0,1-.27846.73009,1.4115,1.4115,0,0,1-.8895.22582H52.61877v2.49531h3.98206q1.19478,0,1.195.982,0,.95566-1.195.95591H52.61877v1.9379a.98545.98545,0,0,1,.92934-.53084,4.32366,4.32366,0,0,1,1.7785,1.00855q1.3276,1.00954,1.32736,1.53989a.85664.85664,0,0,1-.95542.98248,1.808,1.808,0,0,1-1.03562-.5579l-2.04416-1.7785v5.38912q0,1.24716-1.03512,1.24766Q50.54828,33.34355,50.548,32.09589Zm3.18605-18.0787v-.13284H49.08833q.31807,1.32834.66368,3.7966v.05313h3.29183ZM64.29979,31.98963V19.884H60.76887l-.05313,1.85869q-.1594,5.60117-1.5394,8.41528-1.35417,2.76074-2.41611,2.761a1.021,1.021,0,0,1-1.14138-1.16845,3.05637,3.05637,0,0,1,.84964-1.40656,7.67479,7.67479,0,0,0,1.40657-2.5755,16.52949,16.52949,0,0,0,.74337-3.76954q.186-2.15043.23911-5.62773L58.831,13.32694a2.787,2.787,0,0,1,.45114-1.72536,3.5978,3.5978,0,0,1,2.0973-.84965q1.80507-.31879,2.84068-.584.76971-.18524.87621-.21254-.186.05388,1.14139-.29174a5.202,5.202,0,0,1,.84965-.21254q1.194,0,1.19452,1.27423,0,.66417-.98248.90277Q63.92761,12.451,61.99,12.743q-1.1682.15939-1.168,1.83163v3.21212h7.43329q.98149,0,.982,1.06218,0,1.03537-.982,1.03512h-1.7785V31.98963q0,1.30029-1.08874,1.30078Q64.29954,33.29041,64.29979,31.98963Z"/><path class="a" d="M85.29838,13.69888v2.44218h7.24733a2.93639,2.93639,0,0,1,2.0176.63711,2.43463,2.43463,0,0,1,.63711,1.91133V30.07829a2.95138,2.95138,0,0,1-.71681,2.30984,3.37525,3.37525,0,0,1-2.33591.74288H90.50154q-1.38074,0-1.38049-1.168,0-1.14164,1.38049-1.14139H91.9883a1.01417,1.01417,0,0,0,.74338-.2391,1.14232,1.14232,0,0,0,.26566-.77V19.27348A1.01557,1.01557,0,0,0,91.882,18.15866H89.20075l-.584,3.23869h1.64616q1.11507,0,1.11482.95591,0,.9291-1.11482.92885H85.27182v2.3364h5.44225q1.11507,0,1.11483.982,0,.92983-1.11483.92935H85.27182v3.90236q0,1.27447-1.06169,1.27423-1.06194,0-1.06218-1.27423V27.52985H77.86509q-1.11505,0-1.11482-.92935,0-.9815,1.11482-.982H83.148v-2.3364H78.2636q-1.11507,0-1.11532-.95542,0-.9291,1.11532-.92934h1.61909l-.55741-3.23869h-2.575q-1.03536,0-1.08825,1.11482V31.85679q0,1.32761-1.11532,1.32736-1.11505,0-1.11482-1.32736v-13.061a2.93642,2.93642,0,0,1,.63711-2.0176,2.44386,2.44386,0,0,1,2.0176-.63711h7.00823V13.69888h-9.477q-1.22133,0-1.22158-1.03561,0-1.00881,1.22158-1.00856h9.477V10.30079a.97416.97416,0,0,1,1.08874-1.11531.98558.98558,0,0,1,1.11482,1.11531v1.35392h9.71656q1.24717,0,1.24766,1.00856,0,1.03536-1.24766,1.03561Zm1.88477,4.45978H81.31632l.61054,3.21212h4.64575Z"/><path class="a" d="M103.722,21.68958a7.48236,7.48236,0,0,1-3.42465,1.32736q-.9291,0-.92886-1.06218,0-.76971,1.03513-1.08826,4.168-1.22059,5.09738-3.7961h-4.64575q-1.06267,0-1.06218-.92934,0-.9291,1.06218-.92935h4.93749l.13283-2.33591h-3.00008a8.71213,8.71213,0,0,1-.99527,1.36721q-.43834.46491-.73009.46442a.85629.85629,0,0,1-.982-.95542,3.1507,3.1507,0,0,1,.63711-1.16844A14.04344,14.04344,0,0,0,102.2357,9.982a1.21594,1.21594,0,0,1,1.14139-.87621q1.03536,0,1.03512.74337a3.28348,3.28348,0,0,1-.47771,1.195h7.48642q1.03538,0,1.03512.92885,0,.90327-1.03512.90278H107.9697l-.10627,2.33591H111.633q1.03536,0,1.03561.92935a.8975.8975,0,0,1-.25239.70352,1.149,1.149,0,0,1-.78322.22582H107.5712a5.21732,5.21732,0,0,1-.47771,1.4597.82788.82788,0,0,1,.61054-.23861,3.78153,3.78153,0,0,1,1.02233.27846,18.60149,18.60149,0,0,1,1.81835.8098q2.07074,1.00953,2.07074,1.51332,0,.95566-1.00905.95542a4.6577,4.6577,0,0,1-1.4597-.69025q-1.14237-.66269-2.20357-1.16795a3.78405,3.78405,0,0,1-.95591-.55741.47983.47983,0,0,1-.10577-.53085A9.30412,9.30412,0,0,1,103.722,21.68958Zm16.51225,1.30079a2.8006,2.8006,0,0,1,.66368,1.9379v4.96405a2.961,2.961,0,0,1-.66368,2.04417,2.48737,2.48737,0,0,1-2.01711.63711H104.96962a2.75787,2.75787,0,0,1-2.0176-.63711,2.65665,2.65665,0,0,1-.66368-2.04417V25.03454a2.96012,2.96012,0,0,1,.66368-2.04417,2.54129,2.54129,0,0,1,1.91183-.63711H118.2171A2.59548,2.59548,0,0,1,120.23421,22.99037Zm-1.566,2.14994q0-.84866-.90278-.87572H105.42126a.81607.81607,0,0,0-.90278.87572V26.4411h14.14977Zm0,3.13292H104.51848v1.48626a.87063.87063,0,0,0,.22581.66368,1.04285,1.04285,0,0,0,.677.2391h12.34421a.87091.87091,0,0,0,.66368-.22582,1.04708,1.04708,0,0,0,.2391-.677Zm3.62341-16.75135a2.04048,2.04048,0,0,1,.46492,1.6191v5.92046a2.31193,2.31193,0,0,1-.50477,1.65894,1.97283,1.97283,0,0,1-1.6191.43786H115.403a2.35333,2.35333,0,0,1-1.65944-.491,1.995,1.995,0,0,1-.46443-1.60581V13.141a2.31051,2.31051,0,0,1,.50428-1.659,2.03859,2.03859,0,0,1,1.61959-.46443h5.22972A2.31275,2.31275,0,0,1,122.29166,11.52188Zm-1.65895,6.66334v-4.168q0-1.0885-1.03561-1.03512h-3.18555q-1.06194,0-1.03513,1.03512v4.168q0,1.06194,1.03513,1.03512h3.18555Q120.68561,19.22034,120.63271,18.18522Z"/><path class="a" d="M126.7785,17.681a.786.786,0,0,1-.25189-.63711q0-.76971.82308-.82308l4.0352-.2391.15891-.02657v-1.168h-3.21213a.90987.90987,0,0,1-.62382-.19925.72028.72028,0,0,1-.22582-.57069q0-.74313.84964-.74338h3.21213V12.159h-3.84924q-.90253,0-.90278-.79651,0-.79627.90278-.79652h3.84924V9.92885q0-.9291,1.03561-.92885,1.00806,0,1.00855.92885V10.566h3.50436q.876,0,.87621.79652,0,.79626-.87621.79651H133.588v1.11482h2.86725q.876,0,.87621.77,0,.74386-.87621.74337H133.588v.982l3.13292-.212a.72754.72754,0,0,1,.84915.79651.71532.71532,0,0,1-.63711.76945l-3.345.26567v.53085q0,.876-1.00855.87621-1.03537,0-1.03561-.87621v-.34488l-4.08834.29174A.92029.92029,0,0,1,126.7785,17.681Zm23.93275,4.99062q0,.82358-.95592.82308h-1.7785v.63711a2.37459,2.37459,0,0,1-.53133,1.71208,2.21509,2.21509,0,0,1-1.6988.518H129.81843a1.15677,1.15677,0,0,1-.76995-.22582.77448.77448,0,0,1-.26566-.62382q0-.84941,1.03561-.84965h15.29116a.60181.60181,0,0,0,.46442-.1594.827.827,0,0,0,.17269-.50428v-.50427H127.668a1.10277,1.10277,0,0,1-.7301-.21254.75214.75214,0,0,1-.25189-.61054q0-.8221.982-.82308h18.0787v-.45114a.63706.63706,0,0,0-.14612-.46443.76623.76623,0,0,0-.491-.17269H130.05753a1.15679,1.15679,0,0,1-.76994-.22581.86525.86525,0,0,1,0-1.24766,1.15943,1.15943,0,0,1,.76994-.22532H145.7467a2.41968,2.41968,0,0,1,1.73865.53084,2.10808,2.10808,0,0,1,.49148,1.67223v.584h1.7785Q150.711,21.84849,150.71125,22.67157Zm-20.06974,5.54852a5.87775,5.87775,0,0,1-1.00905,2.44218q-.98223,1.6191-1.88476,1.53989-1.16821-.13358-1.00856-1.06218a2.06839,2.06839,0,0,1,.398-.76945,22.80916,22.80916,0,0,0,1.40706-2.44267,1.1784,1.1784,0,0,1,1.03512-.74338A.92742.92742,0,0,1,130.64151,28.22009Zm14.45479.38473a1.17641,1.17641,0,0,1,.279.86293,3.47971,3.47971,0,0,1-.90278,2.68128,3.33016,3.33016,0,0,1-1.63288.584,27.2156,27.2156,0,0,1-3.78281.186,27.51094,27.51094,0,0,1-5.9731-.34537,1.50137,1.50137,0,0,1-1.03513-1.566V27.92786a1.062,1.062,0,0,1,2.12338,0v2.0176a1.79845,1.79845,0,0,0,.10627.76994.52962.52962,0,0,0,.45163.21254,31.90238,31.90238,0,0,0,3.82267.15891h1.30079q1.27446-.02656,1.8582-.07921a3.21264,3.21264,0,0,0,.95591-.21254.61138.61138,0,0,0,.35816-.43786,7.316,7.316,0,0,0,.17268-1.07546,1.11177,1.11177,0,0,1,.31831-.70353.99927.99927,0,0,1,.71682-.25189A1.1763,1.1763,0,0,1,145.0963,28.60482Zm-7.606-.25189a1.0065,1.0065,0,0,1-.398-.66368q0-.84941.98248-.84965a2.90224,2.90224,0,0,1,1.6191.84965q.90253.79626.90278,1.32735,0,.9291-1.03562.92886a.96992.96992,0,0,1-.53084-.23861q-.3188-.2391-.90278-.76995Zm.61054-11.60133q0-.79626.90278-.79651h4.0352v-1.168h-3.31839q-.85013,0-.84964-.76994,0-.74313.84964-.74338h3.31839V12.159H139.349q-.90327,0-.90278-.79651,0-.79627.90278-.79652h3.68983V9.92885q0-.9291,1.00905-.92885,1.06119,0,1.06169.92885V10.566h4.08833q.9018,0,.90229.79652,0,.79626-.90229.79651h-4.08833v1.11482h3.26525q.90254,0,.90278.77,0,.74386-.90278.74337h-3.26525v1.168h4.1946q.9018,0,.90229.79651,0,.79626-.90229.79651h-4.1946v.37145q0,.876-1.06169.87621-1.00955,0-1.00905-.87621v-.37145h-4.0352Q138.10112,17.54811,138.10087,16.7516Zm12.265,14.2029a.84863.84863,0,0,1-.31831.70353,1.24617,1.24617,0,0,1-.79651.2519,1.08067,1.08067,0,0,1-.62383-.1722,2.205,2.205,0,0,1-.518-.54462q-.23837-.34536-.51756-.69024-.279-.34463-.43786-.55741a7.30535,7.30535,0,0,1-1.32736-2.04417q0-.95566,1.11482-.95542.71657,0,2.07074,1.64567A4.77552,4.77552,0,0,1,150.36588,30.9545Z"/><path class="a" d="M178.00125,32.30843a.90324.90324,0,0,1-1.00856,1.03512,12.9184,12.9184,0,0,1-6.3716-1.75193,8.4351,8.4351,0,0,1-4.08784-4.77858h-3.71689V30.6357l4.1946-.69024a.67341.67341,0,0,1,.677.186,1.11559,1.11559,0,0,1,.22582.74337.90819.90819,0,0,1-.37194.74338,3.82128,3.82128,0,0,1-1.02183.29175q-.89.18522-2.16372.3985a52.95543,52.95543,0,0,1-5.57509.87572.87976.87976,0,0,1-.982-1.00856.98678.98678,0,0,1,.212-.584q.2391-.37194,1.64616-.53085l1.14139-.10627V26.813h-3.45123a17.61321,17.61321,0,0,1-1.03512,4.51291q-.66417,1.77849-1.51332,1.7785-1.08851,0-1.08826-1.14139a2.51826,2.51826,0,0,1,.37145-1.00856q1.35417-2.44266,1.35392-7.38015V21.60988q0-1.991,2.177-1.991h18.79552q.9815,0,.982.79651a.72777.72777,0,0,1-.23861.61054,1.2088,1.2088,0,0,1-.74337.18548H158.43628a.88971.88971,0,0,0-.87621.4782L157.42723,25.22h19.32636q.98225,0,.98248.79651,0,.79628-.98248.79652h-8.25587a7.18172,7.18172,0,0,0,2.07073,2.49531l3.3976-2.04417a1.24157,1.24157,0,0,1,.63711-.23861q1.06193,0,1.06218.92885,0,.69075-3.58406,2.177l-.0797.02656a17.61188,17.61188,0,0,0,4.938,1.11482Q178.00075,31.40565,178.00125,32.30843ZM155.88784,16.4328V12.76953q0-1.991,2.0968-1.991h4.00864v-.63711q0-1.0612.92934-1.06169.95568,0,.95592,1.06169v.63711h4.19411v-.63711q0-1.0612.95591-1.06169.95567,0,.95542,1.06169v.63711h4.1149q2.07073,0,2.07074,1.991V16.4328a1.807,1.807,0,0,1-2.07074,2.0176H157.98464Q155.88734,18.4504,155.88784,16.4328Zm1.96446-2.62815h4.141V12.31839h-3.3976a.657.657,0,0,0-.74338.74338Zm0,2.33641a.657.657,0,0,0,.74338.74337h3.3976v-1.593h-4.141Zm17.09623,6.26533q.95567,0,.95591.76946,0,.77043-.95591.76994h-15.238q-.92983,0-.92934-.76994,0-.76971.92934-.76946Zm-11.07-10.088v1.48626h4.19411V12.31839Zm0,2.973v1.593h4.19411v-1.593Zm6.10544-1.48676h4.24774v-.74288a.65719.65719,0,0,0-.74338-.74338H169.984Zm0,3.07978h3.50436a.65719.65719,0,0,0,.74338-.74337v-.84965H169.984Z"/><path class="a" d="M188.67323,25.11375q-5.17684,3.0537-6.68991,3.05321-.90254,0-.90229-.98248a1.01024,1.01024,0,0,1,.18547-.63711,1.54765,1.54765,0,0,1,.61055-.42458l2.44267-1.009V17.22931h-1.96447q-1.22133,0-1.22158-.982,0-.98223,1.22158-.98248h1.96447v-4.752a1.61594,1.61594,0,0,1,.25189-1.02184.99376.99376,0,0,1,.8098-.30551q1.06119,0,1.06218,1.32735v4.752H188.169q1.2206,0,1.22109.98248,0,.98225-1.22109.982h-1.72536v6.98215l1.88476-.87621a.70533.70533,0,0,1,.31831-.0797.743.743,0,0,1,.54413.22581.77381.77381,0,0,1,.22582.5707A1.23161,1.23161,0,0,1,188.67323,25.11375Zm5.65479-3.50387a14.224,14.224,0,0,1-.71681,1.35392h8.60124q2.09657,0,2.09731,1.83164a29.43806,29.43806,0,0,1-.55742,5.9731,3.58348,3.58348,0,0,1-.45163,1.15467,2.64091,2.64091,0,0,1-.69025.78323,2.51232,2.51232,0,0,1-1.03512.41129,9.04126,9.04126,0,0,1-1.61959.11955,3.17672,3.17672,0,0,1-1.39377-.212.85489.85489,0,0,1-.38473-.82308.97794.97794,0,0,1,.27846-.74338,1.12964,1.12964,0,0,1,.8098-.26567,11.7933,11.7933,0,0,0,1.34064-.05313,1.14792,1.14792,0,0,0,.66368-.29174,1.45529,1.45529,0,0,0,.35865-.79651,38.503,38.503,0,0,0,.47771-4.67232v-.05313a.44142.44142,0,0,0-.17269-.37144.69755.69755,0,0,0-.43786-.13284H200.46a11.2149,11.2149,0,0,1-9.26492,8.38871,1.11283,1.11283,0,0,1-.26518.02657.82755.82755,0,0,1-.65039-.25189,1.01937,1.01937,0,0,1-.22582-.70353q0-.66417.92934-.90278a11.03894,11.03894,0,0,0,4.6856-2.37576,9.14645,9.14645,0,0,0,2.668-4.18132h-1.83212a10.049,10.049,0,0,1-6.53051,5.734,1.56748,1.56748,0,0,1-.53085.10627.88815.88815,0,0,1-.677-.26518.96131.96131,0,0,1-.25238-.69024q0-.55791.71681-.82308A9.20115,9.20115,0,0,0,194.328,24.822h-1.91133a8.25588,8.25588,0,0,1-1.07547,1.14139,14.42074,14.42074,0,0,1-1.31407,1.06218,5.427,5.427,0,0,1-1.15467.6504,2.456,2.456,0,0,1-.8098.19875.76253.76253,0,0,1-.84964-.87572.66129.66129,0,0,1,.22582-.46492,4.24837,4.24837,0,0,1,.677-.51756,10.70139,10.70139,0,0,0,2.30983-1.9379,12.50425,12.50425,0,0,0,1.64567-2.46874h-2.33591a1.36,1.36,0,0,1-.87621-.2391.84.84,0,0,1-.29224-.69025.89368.89368,0,0,1,.30552-.73009,1.32088,1.32088,0,0,1,.86293-.25189h14.09614q1.1682,0,1.16845.982,0,.92985-1.16845.92935Zm-2.9868-3.63719a2.63252,2.63252,0,0,1-.59726-1.9379V12.45073a2.68363,2.68363,0,0,1,.59726-1.95118,2.68367,2.68367,0,0,1,1.95119-.59726h7.43329a2.67693,2.67693,0,0,1,1.96446.59726,2.72373,2.72373,0,0,1,.584,1.95118v3.58406a2.63042,2.63042,0,0,1-.59726,1.9379,2.71987,2.71987,0,0,1-1.95118.584h-7.43329A2.72152,2.72152,0,0,1,191.34122,17.97269Zm1.57974-4.67231h8.17667v-.63711a.939.939,0,0,0-.186-.6504.88782.88782,0,0,0-.66368-.19925h-6.47738a.7248.7248,0,0,0-.84965.84965Zm0,2.54844a.7248.7248,0,0,0,.84965.84965H200.248a.72524.72524,0,0,0,.84964-.84965v-.74338H192.921Z"/><path class="a" d="M7.73384,8.985c2.08038-.00579,4.15773-.791,6.22828-.78792a5.10811,5.10811,0,0,1,3.39144,1.14209,5.10772,5.10772,0,0,0-3.39179-1.14244c-2.0702-.003-4.14755.78216-6.22828.78792a9.39468,9.39468,0,0,1-2.7783-.40131l.00016.00029A9.39548,9.39548,0,0,0,7.73384,8.985Z"/><path class="a" d="M4.95513,8.58354V8.58327l-.00016,0a6.26382,6.26382,0,0,0,1.45187,1.95817A6.26378,6.26378,0,0,1,4.95535,8.58359Z"/><polygon class="a" points="4.955 8.583 4.955 8.583 4.955 8.583 4.955 8.583"/><path class="a" d="M13.33376,11.90468l.00027-.00019c-2.04406-.4883-2.90578-.46468-3.1818-.88191C10.42776,11.4403,11.28914,11.41638,13.33376,11.90468Z"/><path class="a" d="M25.05932,22.37091a5.40711,5.40711,0,0,0-2.33862,1.004,2.68768,2.68768,0,0,0-.63419.55752,5.1769,5.1769,0,0,0-1.58159,2.94565,28.74952,28.74952,0,0,0-.10078,4.42172l.00035.00033c2.73936-.017,5.32161.46692,7.39454-1.57648A5.98742,5.98742,0,0,0,29.3694,26.76a30.14831,30.14831,0,0,0,.11062-4.4577A35.87046,35.87046,0,0,0,25.05932,22.37091Z"/><path class="a" d="M13.766,22.39567a32.06743,32.06743,0,0,0-4.52013-.096,30.43712,30.43712,0,0,0,.115,4.41729,5.63718,5.63718,0,0,0,4.53436,4.513,28.72722,28.72722,0,0,0,4.43157.056l.00035-.00035c.095-3.1618.1598-5.43866-1.60264-7.33242A6.18727,6.18727,0,0,0,13.766,22.39567Z"/><path class="a" d="M13.89628,17.28989c.7913.14794,2.51472-2.18865,6.6341-1.61419,3.138.43739,3.64059,2.09873,4.5364,1.49814.36409-.24432.51714-.83746-.21751-1.35017a9.78452,9.78452,0,0,0-6.68769-1.6101l-.00035-.00032a9.69863,9.69863,0,0,0-3.25377.98028,7.78227,7.78227,0,0,0-1.31182.81878A.73384.73384,0,0,0,13.89628,17.28989Z"/><path class="a" d="M23.48657,18.28409a6.936,6.936,0,0,0-8.25472-.01662c-.6637.59041-.03629,1.78788,1.04648,1.04783a5.14921,5.14921,0,0,1,2.23716-.87105l-.00036.00035a5.66044,5.66044,0,0,1,2.80079.29385,4.99094,4.99094,0,0,1,1.04172.53952C23.6491,20.12967,24.01625,18.75778,23.48657,18.28409Z"/><path class="a" d="M16.635,20.70381a.72849.72849,0,0,0,.83813,1.0468,4.20756,4.20756,0,0,0,.66744-.3641,2.32846,2.32846,0,0,1,.83032-.23753h.00035c1.37154-.21885,1.89987.59857,2.39664.62538,1.17236.06346,1.22087-1.84149-1.60873-2.10448C18.74588,19.57588,16.98479,20.0187,16.635,20.70381Z"/><path class="a" d="M17.91624,23.56462a1.47065,1.47065,0,0,0,2.85778.69562A1.47065,1.47065,0,0,0,17.91624,23.56462Z"/><path class="a" d="M36.61088,21.05364A20.05294,20.05294,0,0,0,32.7443,16.07c-3.87234-3.26666-6.26525-4.31348-12.688-5.117.51338-2.51607,3.83909-1.8052,6.308-1.44892.79743,1.78517,2.78652,4.01455,5.47023,3.94226.96742-.02611,1.25144-.83508.54935-1.2582-.37325-.225-3.31755-.12081-4.48007-2.73765.95553-.63795,1.42314-.37056,2.04306-1.38546a1.96928,1.96928,0,0,0-2.92022-2.5965,2.9998,2.9998,0,0,0-1.01455,2.58868c-4.2636-.282-2.92938-.83813-6.40744.69155a8.15543,8.15543,0,0,1,2.11874-5.41323,30.34551,30.34551,0,0,1,2.794,1.25041,2.722,2.722,0,0,0,.813.37869.83963.83963,0,0,0,.79368-.34069c.92058-1.28941-1.78958-1.84828-2.13163-2.27073a4.26691,4.26691,0,0,1-.95858-.377c-.94026-.41125-6.118-2.25378-6.86553-1.94057a3.07738,3.07738,0,0,0-.398.28572l0-.00036c-.13675.39634-.26707.68409.06514,1.06956.26842.31115.46792.28842.95926.40617a13.25267,13.25267,0,0,1,2.10111.59041,4.8103,4.8103,0,0,1,1.10006.323q.16695.055.33018.11062l-.021.03086A10.388,10.388,0,0,0,18.25014,8.1838c-4.75765-2.84522-6.78-.36715-11.1756-.59787-1.60194-.08416-2.699-1.08518-3.60192-.90464-.76821.76754-.40177,1.34711.10757,2.32842,1.8286,3.52184,4.63717,4.116,5.61478,4.86455L6.69518,15.786a19.9693,19.9693,0,0,0-5.43731,7.84038A19.55384,19.55384,0,0,0,10.2808,47.71219a20.04309,20.04309,0,0,0,14.90576,1.48522C36.98449,45.54868,42.2925,32.51426,36.61088,21.05364ZM27.932,6.58289c.54293-.19443.91143.24566.73735.56327A5.70577,5.70577,0,0,1,27.42,8.11934S27.38912,6.77766,27.932,6.58289Zm-19.4537,5.4003a9.15246,9.15246,0,0,1-2.07148-1.44178A6.26382,6.26382,0,0,1,4.955,8.58324l-.00019,0V8.58286l.00019.00038.00016,0V8.58319l.00006.00011a9.39468,9.39468,0,0,0,2.7783.40131c2.08073-.00576,4.15808-.791,6.22828-.78792a5.10772,5.10772,0,0,1,3.39179,1.14244,2.5288,2.5288,0,0,1,.85145,1.69634c-1.91922.07738-2.283.42315-4.37421.01968-.95383-.18424-3.1211-.91345-3.78108-.63214a.964.964,0,0,0,.10251.59957c.276.41723,1.13774.39361,3.1818.88191l-.00027.00019.0006.00014C11.5821,13.13215,10.24007,12.88378,8.47832,11.98319ZM30.29677,45.12113c-.49141.35026-1.01912.68341-1.56913,1.00164a12.77321,12.77321,0,0,0-6.36771-3.65459l.00246-1.02361c1.446-.23467,2.61509.23518,4.35849-.80795V38.02037a1.06487,1.06487,0,1,1,.54768.00357V40.269a5.71467,5.71467,0,0,0,2.15819-3.82439,29.94768,29.94768,0,0,0,.039-4.02877c-2.13229.095-4.06068-.3468-5.94223.57174-3.608,1.762-3.2221,5.54208-3.14358,9.18078-.30872-.02229-.61933-.03772-.93373-.03772-.4139,0-.82221.02305-1.226.06148.07732-3.646.47279-7.43875-3.14307-9.20454-1.88155-.91854-3.80991-.47674-5.94224-.57174a29.94933,29.94933,0,0,0,.039,4.02877c.00686.06686.02292.13291.03259.19958V36.618h3.34a1.06487,1.06487,0,1,1-.00357.54765H9.30883a5.72642,5.72642,0,0,0,2.086,3.15434c2.02171,1.4557,3.267.86867,4.84349,1.12453l.00263,1.095a12.77616,12.77616,0,0,0-6.03286,3.542,18.76821,18.76821,0,0,1-3.1318-2.38123c-2.33488-2.565-4.09768-4.62293-5.08-8.5177-.63182-2.50521-1.417-7.63612.832-11.80367H2.82792c2.16181-5.94937,8.77556-10.4413,15.55217-10.99236,4.63922-.377,11.1023,2.03084,13.43516,4.77833,1.11569,1.31419,3.19948,3.02167,3.55914,4.72609C39.0659,29.88622,36.75307,40.51957,30.29677,45.12113Z"/><polygon class="a" points="4.955 8.584 4.955 8.583 4.955 8.583 4.955 8.584 4.955 8.584"/><path class="a" d="M13.33376,11.90468c-2.04462-.4883-2.906-.46438-3.18153-.8821a.9628.9628,0,0,1-.10286-.59992c.66-.28129,2.82725.44825,3.78108.63216,2.09124.40345,2.455.05768,4.37421-.01967a2.5287,2.5287,0,0,0-.8511-1.696A5.10811,5.10811,0,0,0,13.96212,8.197c-2.07055-.003-4.1479.78213-6.22828.78792a9.39548,9.39548,0,0,1-2.77849-.40137,6.26378,6.26378,0,0,0,1.45149,1.95782A9.15371,9.15371,0,0,0,8.478,11.98287C10.23964,12.88338,11.58132,13.13183,13.33376,11.90468Z"/><polygon class="a" points="4.955 8.583 4.955 8.583 4.955 8.583 4.955 8.583"/><path class="a" d="M13.83045,11.05482c-.95383-.18391-3.1211-.91345-3.78108-.63216a.9628.9628,0,0,0,.10286.59992.964.964,0,0,1-.10251-.59957c.66-.28131,2.82725.4479,3.78108.63214,2.09124.40347,2.455.0577,4.37421-.01968a2.5288,2.5288,0,0,0-.85145-1.69634,2.5287,2.5287,0,0,1,.8511,1.696C16.28546,11.1125,15.92169,11.45827,13.83045,11.05482Z"/><path class="a" d="M13.33436,11.90482l-.0006-.00014c-1.75244,1.22715-3.09412.9787-4.85579.07819a9.15371,9.15371,0,0,1-2.07113-1.44146,9.15246,9.15246,0,0,0,2.07148,1.44178C10.24007,12.88378,11.5821,13.13215,13.33436,11.90482Z"/></svg>