<svg xmlns="http://www.w3.org/2000/svg" viewBox="0 0 500 500"><defs><style>.a{fill:#999;}.b{fill:#fff;}.c{fill:#4d4d4d;}</style></defs><rect class="a" y="62.5" width="500" height="375"/><path class="b" d="M20.13672,282.26562l-1.64063-.76171a15.6325,15.6325,0,0,1-3.07617-1.78711,2.13777,2.13777,0,0,1-.9668-1.55274,2.25343,2.25343,0,0,1,2.57813-2.51953q1.17114,0,5.56641,2.10938,2.5188,1.17333,2.51953,2.87109,0,2.63671-2.40235,2.63672A6.60147,6.60147,0,0,1,20.13672,282.26562Zm-5.625,26.95313a5.7179,5.7179,0,0,1,.58594-1.99219,146.433,146.433,0,0,0,5.50781-14.23828,5.51463,5.51463,0,0,1,1.084-1.99219,2.05471,2.05471,0,0,1,1.55274-.64453q2.46093,0,2.46093,2.168,0,1.28907-2.63671,8.67188a66.03482,66.03482,0,0,1-3.63282,8.96484,2.57276,2.57276,0,0,1-2.22656,1.46484Q14.511,311.62109,14.51172,309.21875Zm8.02734-41.77734-1.582-.82032q-3.63354-1.875-3.63281-3.39843a2.20125,2.20125,0,0,1,2.51953-2.46094q1.28833,0,4.57031,1.8164,3.22193,1.81641,3.22266,3.39844,0,2.63673-2.51953,2.63672A6.44072,6.44072,0,0,1,22.53906,267.44141Zm2.57813,42.1289a1.57061,1.57061,0,0,1,.76172-1.52343,13.44008,13.44008,0,0,1,3.51562-1.05469,40.13717,40.13717,0,0,0,11.71875-4.043A25.0066,25.0066,0,0,1,36.07422,297.5q-2.34448-3.397-2.34375-4.74609a1.2939,1.2939,0,0,1,.64453-1.20118,4.19013,4.19013,0,0,1,2.05078-.38085,2.25324,2.25324,0,0,1,2.10938,1.46484,21.1237,21.1237,0,0,0,6.67968,7.793,37.89449,37.89449,0,0,0,6.5625-5.6836q3.4563-3.6328,3.457-4.33593,0-.70312-.9375-.70313H31.38672q-2.696,0-2.69531-2.168a1.99651,1.99651,0,0,1,.64453-1.64062,3.22532,3.22532,0,0,1,2.05078-.52735H57.10938a5.82819,5.82819,0,0,1,3.28124.73243,2.559,2.559,0,0,1,1.05469,2.25586q0,1.70067-3.457,6.03515A53.24525,53.24525,0,0,1,49.668,302.832a46.11239,46.11239,0,0,0,6.5918,2.54883,46.88353,46.88353,0,0,0,7.35351,1.49414q3.10474.35157,3.10547,2.51953,0,2.8125-2.69531,2.8125-2.40307,0-8.37891-1.93359a60.74227,60.74227,0,0,1-10.48828-4.39453,48.00733,48.00733,0,0,1-14.12109,5.80078l-1.64063.41015q-1.7578.35157-1.875.35157Q25.11646,312.44141,25.11719,309.57031Zm20.68359-28.53515q0-2.3423,2.168-2.34375h2.87109q3.39771,0,4.21875-1.875a27.429,27.429,0,0,0,1.46485-5.918,1.28132,1.28132,0,0,0-.498-1.28906,2.69161,2.69161,0,0,0-1.66992-.46876H40a47.08044,47.08044,0,0,1-5.09766,8.84766q-2.98827,4.16163-4.6289,4.16016a2.20126,2.20126,0,0,1-2.51953-2.46094,3.68358,3.68358,0,0,1,1.11328-2.168,40.9533,40.9533,0,0,0,8.20312-15.23437q.87891-2.86964,2.8125-2.8711,2.57739,0,2.57813,2.05078a5.50161,5.50161,0,0,1-.35156,1.81641l-.58594,1.582h15q4.97973,0,4.98047,3.98438a40.56692,40.56692,0,0,1-.87891,7.207q-.87891,4.45313-3.33984,5.918-2.57886,1.5249-8.67188,1.52343Q45.80078,283.49609,45.80078,281.03516Z"/><path class="b" d="M126.60156,267.85156q0,2.228-2.8125,2.22656H92.793l-2.8125,6.03516h23.84765a6.35845,6.35845,0,0,1,4.51172,1.34766q1.40625,1.34911,1.23047,4.39453v24.375q.468,6.561-6.09375,6.21094h-5.09765q-2.75465,0-2.75391-2.46094,0-2.51954,2.75391-2.51953h3.6914a2.71316,2.71316,0,0,0,2.05078-.73242,3.06172,3.06172,0,0,0,.70313-2.19727V300.3125H90.03906v9.31641q0,2.86962-2.40234,2.87109-2.40307,0-2.40234-2.87109V283.84766l-.17579-.0586q-6.97338,9.375-9.43359,9.375-2.28516,0-2.28516-2.57812a3.97351,3.97351,0,0,1,1.64063-2.75391,49.87026,49.87026,0,0,0,13.00781-17.75391H76.91406q-2.8125,0-2.8125-2.28515,0-2.22657,2.8125-2.22656H89.6875l.9375-3.457q.70313-2.69385,2.63672-2.69532,2.75318,0,2.7539,2.34375a5.16169,5.16169,0,0,1-.26367,1.582q-.26367.82179-.84961,2.22657h28.88672Q126.60156,265.56641,126.60156,267.85156Zm-36.5625,18.16406h24.78516v-2.98828a2.56193,2.56193,0,0,0-.64453-1.8457,2.47891,2.47891,0,0,0-1.875-.67383H91.50391q-1.46558,0-1.46485,1.52344Zm0,4.33594v5.625h24.78516v-5.625Z"/><path class="b" d="M133.16406,271.89453q0-2.16649,2.57813-2.168h15.76172q2.63672,0,2.63671,2.168t-2.63671,2.168H135.74219Q133.16333,274.0625,133.16406,271.89453Zm2.10938-7.91015q0-2.16651,2.51953-2.168H149.6875q2.57739,0,2.57812,2.168,0,2.168-2.57812,2.168H137.793Q135.2727,266.15234,135.27344,263.98438Zm1.28906,45.41015a4.64,4.64,0,0,1-1.23047-3.51562V297.793q0-4.74609,4.86328-4.74609H147.168q4.92188,0,4.92187,4.74609v7.96875a4.77742,4.77742,0,0,1-1.25976,3.57422,5.03333,5.03333,0,0,1-3.66211,1.23047h-6.97266A5.07773,5.07773,0,0,1,136.5625,309.39453Zm-1.11328-29.76562a1.92293,1.92293,0,0,1,.64453-1.582,2.89785,2.89785,0,0,1,1.875-.52735h11.543a3.02728,3.02728,0,0,1,1.9043.52735,1.88668,1.88668,0,0,1,.67382,1.582q0,2.168-2.57812,2.168h-11.543Q135.44848,281.79688,135.44922,279.62891Zm0,7.793q0-2.10939,2.51953-2.10938h11.543q2.57739,0,2.57812,2.168a1.88669,1.88669,0,0,1-.67382,1.582,3.02734,3.02734,0,0,1-1.9043.52734H138.08594Q135.44921,289.58984,135.44922,287.42188ZM147.51953,305v-6.44531a1.243,1.243,0,0,0-1.40625-1.40625h-4.80469q-1.46558,0-1.46484,1.40625V305a1.29455,1.29455,0,0,0,1.46484,1.46484h4.80469Q147.51953,306.46484,147.51953,305Zm4.86328,4.86328q0-1.81641,3.457-2.7539a33.27413,33.27413,0,0,0,9.668-4.16016V302.832a25.60761,25.60761,0,0,1-4.043-5.44922A25.00682,25.00682,0,0,1,160,294.57031a5.1018,5.1018,0,0,1-.46875-1.93359q0-1.69922,2.46094-1.69922,1.52269,0,2.34375,2.46094a22.30167,22.30167,0,0,0,4.80468,6.67968h.11719a35.45362,35.45362,0,0,0,5.21485-5.80078q1.17114-1.52343,1.93359-2.666a4.02857,4.02857,0,0,0,.76172-1.49414q0-.82032-1.11328-.82031h-18.457a3.13414,3.13414,0,0,1-1.99219-.55665,2.00038,2.00038,0,0,1-.70313-1.66992q0-2.16649,2.69532-2.168h20.5664q5.09766,0,5.09766,3.22266,0,1.75782-3.51563,6.79688a44.1612,44.1612,0,0,1-6.73828,7.85156v.17578a43.93758,43.93758,0,0,0,11.42578,4.16016q2.22583.52734,2.22657,2.40234,0,2.69385-2.46094,2.69531a19.30245,19.30245,0,0,1-6.97266-1.81641,49.04364,49.04364,0,0,1-8.08594-4.39453h-.11718a52.53988,52.53988,0,0,1-8.14453,4.33594q-4.45386,1.93359-6.32813,1.93359Q152.38208,312.26562,152.38281,309.86328Zm2.10938-29.12109a2.35768,2.35768,0,0,1,1.05469-1.875,7.95718,7.95718,0,0,0,3.16406-4.33594,42.70827,42.70827,0,0,0,.58594-8.96484q0-4.21875,4.57031-4.21875h8.49609q4.511,0,4.51172,4.39453v9.84375q0,1.75781,2.10938,1.75781a7.00885,7.00885,0,0,0,1.69921-.14648,1.03646,1.03646,0,0,0,.70313-.498,8.952,8.952,0,0,0,.52734-3.39844q.11646-2.69385,2.10938-2.69531,2.28516,0,2.28515,2.168,0,6.67968-2.05078,7.85156-1.582.87891-5.80078.87891-5.9187,0-5.918-3.457v-10.3125q0-1.875-1.99218-1.99219h-5.15626q-1.23047,0-1.52343.64453a12.0758,12.0758,0,0,0-.35157,3.75q0,5.09766-1.40624,7.67578-2.8125,5.15625-5.50782,5.15625Q154.49219,282.96875,154.49219,280.74219Z"/><path class="b" d="M218.35938,280.85938H195.50781q-2.1687,0-2.168-1.875,0-1.875,2.168-1.875h22.85157v-2.8711H200.89844a5.19781,5.19781,0,0,1-3.72071-1.11328,4.40377,4.40377,0,0,1-1.02539-3.51562v-3.28126a5.21873,5.21873,0,0,1,1.11328-3.6914,4.52345,4.52345,0,0,1,3.63282-1.05469h38.26172a4.91077,4.91077,0,0,1,3.63281,1.14258,4.676,4.676,0,0,1,.99609,3.60351v3.28126a5.01238,5.01238,0,0,1-1.11328,3.60351,4.40617,4.40617,0,0,1-3.51562,1.02539h-15.9961v2.8711h20.74219q2.16651,0,2.168,1.875,0,1.87645-2.168,1.875H223.16406v2.87109h12.53906a5.23167,5.23167,0,0,1,3.8086,1.17187,4.71894,4.71894,0,0,1,1.05469,3.69141v11.01563a5.24273,5.24273,0,0,1-1.17188,3.77929,4.64556,4.64556,0,0,1-3.69141,1.084H210.50781a5.33456,5.33456,0,0,1-3.83789-1.17188,4.64307,4.64307,0,0,1-1.084-3.6914V288.59375a5.22738,5.22738,0,0,1,1.17187-3.80859,4.809,4.809,0,0,1,3.75-1.05469h7.85157ZM246.66016,309.043q0,1.875-1.99219,1.875H201.30859a5.79092,5.79092,0,0,1-4.16015-1.25977,4.94871,4.94871,0,0,1-1.11328-4.01367V289.29688q0-2.8125,2.40234-2.8125,2.46093,0,2.46094,2.8125V305q0,1.99218,2.10937,2.10938H244.668A1.73583,1.73583,0,0,1,246.66016,309.043ZM210.625,265.39062h-8.49609q-1.64062,0-1.75782,1.75782v1.69922q0,1.64063,1.75782,1.75781H210.625Zm23.49609,21.6211h-22.207a1.72308,1.72308,0,0,0-1.31836.46875,1.89956,1.89956,0,0,0-.43945,1.34765v.82032h25.72266v-.82032A1.61228,1.61228,0,0,0,234.12109,287.01172Zm1.75782,8.3789v-2.63671H210.15625v2.63671Zm0,3.10547H210.15625v.87891q0,1.64063,1.75781,1.75781h22.207a1.586,1.586,0,0,0,1.75782-1.75781Zm-21.03516-27.89062h9.78516v-5.21485h-9.78516Zm14.00391,0h8.67187a1.64736,1.64736,0,0,0,1.81641-1.75781v-1.69922q0-1.69923-1.81641-1.75782h-8.67187Z"/><path class="b" d="M255.85938,309.80469V280.625a5.91128,5.91128,0,0,1,1.28906-4.248,5.06437,5.06437,0,0,1,4.10156-1.14257h5.80078l-1.11328-6.50391H255.918q-2.63672,0-2.63672-2.168,0-2.22657,2.63672-2.22656h21.09375v-2.63672q0-2.28516,2.69531-2.28516,2.57813,0,2.57813,2.28516v2.63672h21.73828q2.69385,0,2.69531,2.22656,0,2.168-2.69531,2.168H293.59375l-1.582,6.50391H298.75a5.90662,5.90662,0,0,1,4.18945,1.25976q1.31836,1.26123,1.14258,4.13086v25.89844q.46875,6.38524-5.97656,5.918h-3.86719a2.46162,2.46162,0,1,1,0-4.92188h2.8711q2.1665,0,2.22656-2.28515V281.50391a1.906,1.906,0,0,0-2.05078-2.10938H285.68359v5.15625q0,1.9922,3.04688,1.99219a10.8808,10.8808,0,0,0,3.75-.46875q.76024-.293.87891-1.81641a2.39738,2.39738,0,0,1,.52734-1.55273,1.84575,1.84575,0,0,1,1.40625-.49805q1.93359,0,1.93359,1.81641a8.37148,8.37148,0,0,1-1.23047,4.6875q-1.05468,1.582-6.5625,1.582h-1.875q-3.63428,0-4.80468-.76172a3.1236,3.1236,0,0,1-1.17188-2.57813v-7.55859h-5.625a12.88312,12.88312,0,0,1-6.09375,10.3125q-3.39843,2.228-4.74609,2.22656a1.88624,1.88624,0,0,1-2.168-2.168q0-1.28758,2.168-2.22656a10.38544,10.38544,0,0,0,6.5039-8.14453h-8.90625q-1.99218,0-2.10937,2.10938v28.30078q0,2.8125-2.34375,2.8125Q255.85791,312.61719,255.85938,309.80469Zm11.98242-3.28125a4.54337,4.54337,0,0,1-.9668-3.51563v-5.625a5.09306,5.09306,0,0,1,1.05469-3.54492,4.13463,4.13463,0,0,1,3.39843-1.02539h17.05079a4.79574,4.79574,0,0,1,3.54492,1.11328,4.45952,4.45952,0,0,1,.96679,3.457v5.625a5.0969,5.0969,0,0,1-1.084,3.60352,4.22862,4.22862,0,0,1-3.42773,1.02539H271.32812A4.70092,4.70092,0,0,1,267.8418,306.52344Zm21.06445-37.793H270.625q.70313,3.16405,1.11328,6.50391h15.64453A58.59289,58.59289,0,0,0,288.90625,268.73047Zm-.52734,33.39844v-3.8086a1.43075,1.43075,0,0,0-1.582-1.582H272.91016a1.39833,1.39833,0,0,0-1.582,1.582v3.8086a1.42991,1.42991,0,0,0,1.582,1.582h13.88672A1.39834,1.39834,0,0,0,288.37891,302.12891Z"/><path class="b" d="M316.94336,309.95117a5.564,5.564,0,0,1-1.25977-4.18945v-12.832a5.93659,5.93659,0,0,1,1.31836-4.27735q1.31836-1.34764,4.18946-1.17187h11.07421a5.91571,5.91571,0,0,1,4.248,1.28906q1.31837,1.28907,1.20117,4.16016v12.832a6.02974,6.02974,0,0,1-1.28906,4.27734q-1.28905,1.34766-4.16016,1.23047H321.19141A5.82352,5.82352,0,0,1,316.94336,309.95117Zm15.67383-3.60351a3.16792,3.16792,0,0,0,.52734-2.168v-9.668a3.0588,3.0588,0,0,0-.55664-2.13867,2.951,2.951,0,0,0-2.08008-.55664h-7.55859a2.14558,2.14558,0,0,0-2.69531,2.69531v9.668a2.14558,2.14558,0,0,0,2.69531,2.69531h7.55859A3.05386,3.05386,0,0,0,332.61719,306.34766ZM323.916,281.24023q-1.437-1.37549-1.20118-4.42382V267.793q-.41014-6.03369,5.80078-5.80078h23.37891q3.22119,0,4.6582,1.377,1.43556,1.377,1.20118,4.42383v9.02344q.46875,6.15234-5.85938,5.80078H328.51562Q325.35157,282.61719,323.916,281.24023Zm28.53515-3.48632a3.26906,3.26906,0,0,0,.55664-2.28516v-6.32813a2.17875,2.17875,0,0,0-2.7539-2.7539H330.27344a3.53706,3.53706,0,0,0-2.31446.52734,3.00431,3.00431,0,0,0-.498,2.22656v6.32813a3.41365,3.41365,0,0,0,.52734,2.25586,3.264,3.264,0,0,0,2.28516.55664h19.92187A3.41729,3.41729,0,0,0,352.45117,277.75391Zm-8.584,32.19726q-1.34913-1.31835-1.11328-4.18945v-12.832a6.02518,6.02518,0,0,1,1.28906-4.27735q1.2876-1.34764,4.16015-1.17187h11.07422a5.91572,5.91572,0,0,1,4.24805,1.28906,5.46513,5.46513,0,0,1,1.25977,4.16016v12.832a5.93657,5.93657,0,0,1-1.31836,4.27734,5.33209,5.33209,0,0,1-4.18946,1.23047H348.14453A5.93334,5.93334,0,0,1,343.86719,309.95117Zm15.82031-3.60351a3.16792,3.16792,0,0,0,.52734-2.168v-9.668a2.14558,2.14558,0,0,0-2.69531-2.69531h-7.5a2.14558,2.14558,0,0,0-2.69531,2.69531v9.668a2.14558,2.14558,0,0,0,2.69531,2.69531h7.5A3.16964,3.16964,0,0,0,359.6875,306.34766Z"/><path class="b" d="M376.97266,310.53711q-1.46486-1.49413-1.46485-4.834v-37.793q0-3.397,1.46485-4.89258,1.46337-1.49415,4.74609-1.49414h36.67969q3.28125,0,4.74609,1.49414,1.46339,1.49413,1.46485,4.89258v37.793q0,3.33985-1.46485,4.834t-4.74609,1.49414H381.71875Q378.436,312.03125,376.97266,310.53711Zm42.89062-5.5957V268.55469q0-2.92969-2.98828-2.92969H383.24219q-2.98828,0-2.98828,2.92969V305q0,2.93115,2.98828,2.92969H416.875A2.64129,2.64129,0,0,0,419.86328,304.94141Zm-38.4375-23.02735q0-1.75781,2.05078-1.75781h14.47266v-2.46094h-8.32031q-4.33742,0-4.33594-3.51562v-2.40235a3.3122,3.3122,0,0,1,1.11328-2.72461,4.5676,4.5676,0,0,1,3.22266-.791h21.21093q4.33595,0,4.33594,3.75v2.05078q0,3.63428-4.33594,3.63281h-8.49609v2.46094h14.707q2.05079,0,2.05078,1.81641,0,1.7578-2.05078,1.75781H383.47656Q381.42432,283.73047,381.42578,281.91406Zm3.39844,21.91406a4.19417,4.19417,0,0,1-.9961-3.39843V290.23438a4.66686,4.66686,0,0,1,1.084-3.457,4.53091,4.53091,0,0,1,3.48633-.9375h23.61328a5.09311,5.09311,0,0,1,3.54492,1.05469,4.04738,4.04738,0,0,1,1.02539,3.33985v10.19531a4.7776,4.7776,0,0,1-1.084,3.48633,4.449,4.449,0,0,1-3.48633.96679H388.39844A5.07466,5.07466,0,0,1,384.82422,303.82812Zm27.59766-3.92578v-9.19922a1.39834,1.39834,0,0,0-1.582-1.582H389.57031a1.39833,1.39833,0,0,0-1.582,1.582v9.19922q0,1.70069,1.582,1.69922h21.26953Q412.42188,301.60156,412.42188,299.90234Zm-1.84571-25.72265a3.45072,3.45072,0,0,0,0-2.34375.83421.83421,0,0,0-.73242-.293H390.625a.83306.83306,0,0,0-.73242.293,3.45072,3.45072,0,0,0,0,2.34375.8306.8306,0,0,0,.73242.293h19.21875A.83174.83174,0,0,0,410.57617,274.17969Zm-19.59961,22.26562v-2.10937q0-3.16407,3.457-3.16406h11.42579q3.51561,0,3.51562,3.16406v2.10937q0,3.10693-3.39844,3.10547H394.49219Q390.97657,299.55078,390.97656,296.44531Zm14.56055-.11719a2.24538,2.24538,0,0,0,0-1.875.94545.94545,0,0,0-.73242-.23437h-9.25781a.944.944,0,0,0-.73243.23437,2.24548,2.24548,0,0,0,0,1.875.9403.9403,0,0,0,.73243.23438h9.25781A.94172.94172,0,0,0,405.53711,296.32812Z"/><path class="b" d="M486.25,274.35547q0,2.34375-3.04688,2.34375H446.46484v.05859l.0586,3.10547q0,1.5249-.17578,6.5625h25.957a5.77391,5.77391,0,0,1,4.13086,1.23047q1.25976,1.23046,1.084,3.98437v17.98829q0,3.0454-2.51953,3.04687a2.185,2.185,0,0,1-1.81641-.73242,3.69872,3.69872,0,0,1-.58593-2.31445V293.86719a2.305,2.305,0,0,0-2.63672-2.57813H446.11328a34.91619,34.91619,0,0,1-3.51562,14.23828q-2.93117,5.918-5.332,5.918a2.36368,2.36368,0,0,1-2.69531-2.7539,3.83574,3.83574,0,0,1,.9961-2.10938,25.13855,25.13855,0,0,0,4.6289-9.31641q1.34766-5.39061,1.34766-15.8789v-6.85547q0-3.80859-.05859-5.68359t-.0586-5.6836q0-2.69385,2.40234-2.69531,2.46094,0,2.46094,3.80859,0,5.74367.0586,7.61719h17.46093v-9.375q0-3.0454,2.51953-3.04687,2.46094,0,2.46094,3.04687v9.375h14.41406Q486.24854,271.89453,486.25,274.35547Z"/><path class="c" d="M114.30469,235.07764a4.53662,4.53662,0,0,1-.90821-.82032,33.91162,33.91162,0,0,1-6.123-11.543,50.03853,50.03853,0,0,1,0-28.94532,33.91167,33.91167,0,0,1,6.123-11.543,4.53682,4.53682,0,0,1,.90821-.82031,2.0803,2.0803,0,0,1,1.084-.23437,2.40349,2.40349,0,0,1,1.66992.67382,2.1825,2.1825,0,0,1,.73243,1.66993,3.61019,3.61019,0,0,1-.35157,1.34765,48.60025,48.60025,0,0,0-5.06836,11.33789,41.45794,41.45794,0,0,0,0,24.082,48.582,48.582,0,0,0,5.06836,11.3379,3.61019,3.61019,0,0,1,.35157,1.34765,2.18247,2.18247,0,0,1-.73243,1.66992,2.4035,2.4035,0,0,1-1.66992.67383A2.0803,2.0803,0,0,1,114.30469,235.07764Z"/><path class="c" d="M131.41406,203.26123a1.64143,1.64143,0,0,1-.55664-1.23047q0-.40942.9375-6.09375l-1.23047.9961q-3.45849,2.8125-3.63281,2.87109a1.68231,1.68231,0,0,1-.76172.17578,2.06,2.06,0,0,1-1.64062-.87891,2.18353,2.18353,0,0,1-.23438-.99609,1.55264,1.55264,0,0,1,.87891-1.46484l5.68359-2.22657-5.68359-2.22656a1.6774,1.6774,0,0,1-.87891-1.52344,2.18648,2.18648,0,0,1,.23438-.99609,1.81082,1.81082,0,0,1,1.582-.87891,1.89878,1.89878,0,0,1,.82031.23438q.17578.05932,3.63281,2.87109l1.23047.9961q-.939-5.68287-.9375-6.09375a1.64143,1.64143,0,0,1,.55664-1.23047,1.76838,1.76838,0,0,1,2.51953,0,1.64836,1.64836,0,0,1,.55664,1.23047q0,.41088-.9375,6.09375l1.23047-.9961,3.57422-2.87109a1.38774,1.38774,0,0,1,.87891-.23438,1.81537,1.81537,0,0,1,1.582.87891,2.09611,2.09611,0,0,1,.23437.9375,1.81193,1.81193,0,0,1-.8789,1.582l-5.6836,2.22656,5.6836,2.22657a1.67842,1.67842,0,0,1,.8789,1.52343,2.08986,2.08986,0,0,1-.23437.9375,2.06278,2.06278,0,0,1-1.64063.87891,1.67638,1.67638,0,0,1-.76171-.17578q-.17578-.05787-3.63282-2.87109l-1.23047-.9961q.936,5.68433.9375,6.09375a1.64836,1.64836,0,0,1-.55664,1.23047,1.7684,1.7684,0,0,1-2.51953,0Z"/><path class="c" d="M168.35742,211.75732a9.03241,9.03241,0,0,1-2.63672-6.5625,8.66835,8.66835,0,0,1,2.69532-6.44531,9.32712,9.32712,0,0,1,6.67968-2.69531,8.453,8.453,0,0,1,6.32813,2.75391,8.92709,8.92709,0,0,1,2.69531,6.44531,8.71761,8.71761,0,0,1-2.75391,6.5625,8.89663,8.89663,0,0,1-6.44531,2.63672A8.80487,8.80487,0,0,1,168.35742,211.75732Zm10.42969-2.98828a5.12737,5.12737,0,0,0,1.46484-3.57422,4.9366,4.9366,0,0,0-1.582-3.6914,5.52362,5.52362,0,0,0-3.86719-1.582,4.72134,4.72134,0,0,0-3.80859,1.75781,5.23831,5.23831,0,0,0-1.40625,3.57422,4.83767,4.83767,0,0,0,1.582,3.80859,5.489,5.489,0,0,0,3.75,1.52344A5.17569,5.17569,0,0,0,178.78711,208.769Z"/><path class="c" d="M208.72852,222.187a2.31425,2.31425,0,0,1-.70313-1.69922,2.25329,2.25329,0,0,1,.46875-1.34765,2.7289,2.7289,0,0,1,1.17188-.9375l20.918-9.31641-20.918-9.31641a2.71463,2.71463,0,0,1-1.17188-.9375,2.25116,2.25116,0,0,1-.46875-1.34765,2.40064,2.40064,0,0,1,2.40234-2.40235,2.36369,2.36369,0,0,1,.9375.17579l23.37891,10.48828a3.34222,3.34222,0,0,1,2.168,3.10547v.46875a3.34128,3.34128,0,0,1-2.168,3.10546l-23.37891,10.48829a2.36387,2.36387,0,0,1-.9375.17578A2.31346,2.31346,0,0,1,208.72852,222.187Z"/><path class="c" d="M260.52539,190.66357q.40723-6.44457,4.92188-6.91406h13.82812a4.56532,4.56532,0,0,1,3.31055,1.34766,4.296,4.296,0,0,1,1.377,3.16406v33.16406q5.03907,0,5.15625,4.33594v5.74219q0,2.8125-2.87109,2.8125-2.93262,0-2.92969-2.8125v-2.05078q0-2.75465-2.69531-2.75391H256.01367q-2.63671,0-2.63672,2.75391v2.05078q0,2.8125-2.87109,2.8125-2.93262,0-2.92969-2.8125v-5.74219q.17579-4.62817,5.03906-4.33594Q258.82325,209.41431,260.52539,190.66357ZM275.4668,189.023h-7.26563q-2.22949,0-2.40234,2.63672-1.64062,17.22655-6.91406,29.58984l-.11719.17578h19.39453v-29.707A2.38331,2.38331,0,0,0,275.4668,189.023Z"/><path class="c" d="M326.44336,222.71436l-23.37891-10.48829a3.33985,3.33985,0,0,1-2.168-3.10546v-.46875a3.34079,3.34079,0,0,1,2.168-3.10547l23.37891-10.48828a2.64977,2.64977,0,0,1,.9375-.17579,2.40062,2.40062,0,0,1,2.40234,2.40235,2.2576,2.2576,0,0,1-.46875,1.34765,2.72587,2.72587,0,0,1-1.17187.9375L307.166,208.88623l20.97656,9.31641a2.74027,2.74027,0,0,1,1.17187.9375,2.25974,2.25974,0,0,1,.46875,1.34765,2.40062,2.40062,0,0,1-2.40234,2.40235A2.65,2.65,0,0,1,326.44336,222.71436Z"/><path class="c" d="M336.375,234.63818a2.17583,2.17583,0,0,1-.73242-1.66992,3.61034,3.61034,0,0,1,.35156-1.34765,48.70322,48.70322,0,0,0,5.06836-11.3379,41.45794,41.45794,0,0,0,0-24.082,48.72155,48.72155,0,0,0-5.06836-11.33789,3.61034,3.61034,0,0,1-.35156-1.34765,2.17586,2.17586,0,0,1,.73242-1.66993,2.40009,2.40009,0,0,1,1.66992-.67382,2.08516,2.08516,0,0,1,1.084.23437,4.56365,4.56365,0,0,1,.9082.82031,33.96249,33.96249,0,0,1,6.12305,11.543,50.03853,50.03853,0,0,1,0,28.94532,33.96244,33.96244,0,0,1-6.12305,11.543,4.56344,4.56344,0,0,1-.9082.82032,2.08516,2.08516,0,0,1-1.084.23437A2.4001,2.4001,0,0,1,336.375,234.63818Z"/><path class="c" d="M361.07227,224.94092a13.66662,13.66662,0,0,1-5.27344-5.56641,18.49917,18.49917,0,0,1,0-16.23047,13.23717,13.23717,0,0,1,5.30273-5.50781,15.76257,15.76257,0,0,1,7.88086-1.93359,15.60183,15.60183,0,0,1,7.85156,1.93359,13.61823,13.61823,0,0,1,5.332,5.53711,17.09578,17.09578,0,0,1,1.875,8.11523,16.92079,16.92079,0,0,1-1.875,8.08594,13.52116,13.52116,0,0,1-5.36133,5.56641,16.967,16.967,0,0,1-15.73242,0Zm12.53906-4.16016a8.61135,8.61135,0,0,0,3.63281-3.60351A12.11351,12.11351,0,0,0,378.5918,211.23a11.28,11.28,0,0,0-1.40625-5.97656,8.8207,8.8207,0,0,0-3.42774-3.39844,9.77983,9.77983,0,0,0-4.77539-1.17187,10.688,10.688,0,0,0-4.6289,1.05468,8.65675,8.65675,0,0,0-3.63282,3.57422,11.93618,11.93618,0,0,0-1.34765,5.918,11.406,11.406,0,0,0,1.40625,6.03516,8.69738,8.69738,0,0,0,3.42773,3.457,9.76641,9.76641,0,0,0,4.77539,1.17187A10.22335,10.22335,0,0,0,373.61133,220.78076Z"/><path class="c" d="M404.31348,185.91162a7.82965,7.82965,0,1,1-7.79981-7.7998A7.87463,7.87463,0,0,1,404.31348,185.91162Zm-13.0791,0a5.24959,5.24959,0,1,0,5.27929-5.21973A5.24926,5.24926,0,0,0,391.23438,185.91162Z"/><path class="b" d="M50,99.76842c45.21742-2.56814,57.16286-24.88421,100-24.88421,45.2144,0,54.74467,24.88421,100,24.88421,44.98732,0,54.49129-24.61259,100-24.88421,42.834-.25566,54.78259,22.31607,100,24.88421q46.54188,2.64336,100-24.88421V50H-50V74.88421Q3.46018,102.41229,50,99.76842Z"/><path class="b" d="M50,400.23158c45.21742,2.56814,57.16286,24.88421,100,24.88421,45.2144,0,54.74467-24.88421,100-24.88421,44.98732,0,54.49129,24.61259,100,24.88421,42.834.25566,54.78259-22.31607,100-24.88421q46.54188-2.64336,100,24.88421V450H-50V425.11579Q3.46018,397.58772,50,400.23158Z"/><rect class="b" width="500" height="70"/><rect class="b" y="430" width="500" height="70"/><path class="a" d="M8.16016,463.16992a1.75376,1.75376,0,0,1-.54493-1.2832v-.14063A1.86149,1.86149,0,0,1,9.44336,459.918H9.6543a1.86148,1.86148,0,0,1,1.82812,1.82812v.14063a1.86148,1.86148,0,0,1-1.82812,1.82812H9.44336A1.75564,1.75564,0,0,1,8.16016,463.16992Zm.21093,21.832a1.55754,1.55754,0,0,1-.47461-1.14257v-15.082a1.61628,1.61628,0,0,1,.47461-1.16015,1.53019,1.53019,0,0,1,1.14258-.49219,1.62144,1.62144,0,0,1,1.65235,1.65234v15.082a1.53019,1.53019,0,0,1-.49219,1.14257,1.61789,1.61789,0,0,1-1.16016.47461A1.55754,1.55754,0,0,1,8.37109,485.002Z"/><path class="a" d="M42.96484,470.42969a8.43844,8.43844,0,0,1,.65039,3.30469v10.125a1.53018,1.53018,0,0,1-.49218,1.14257,1.61791,1.61791,0,0,1-1.16016.47461,1.62043,1.62043,0,0,1-1.61719-1.61718v-9.49219a5.40416,5.40416,0,0,0-.82617-3.375,3.31094,3.31094,0,0,0-2.72461-1.01953,4.64342,4.64342,0,0,0-2.84765.86132,9.03687,9.03687,0,0,0-2.17969,2.47852v10.54688a1.53015,1.53015,0,0,1-.49219,1.14257,1.61787,1.61787,0,0,1-1.16016.47461,1.62043,1.62043,0,0,1-1.61718-1.61718v-9.49219a5.40416,5.40416,0,0,0-.82617-3.375,3.311,3.311,0,0,0-2.72461-1.01953,4.64347,4.64347,0,0,0-2.84766.86132,9.03687,9.03687,0,0,0-2.17969,2.47852v10.54688a1.53015,1.53015,0,0,1-.49219,1.14257,1.61787,1.61787,0,0,1-1.16015.47461,1.62043,1.62043,0,0,1-1.61719-1.61718v-15.082a1.61624,1.61624,0,0,1,.47461-1.16015,1.53019,1.53019,0,0,1,1.14258-.49219,1.68128,1.68128,0,0,1,1.65234,1.65234v1.30078a8.39929,8.39929,0,0,1,2.4961-2.30273,6.695,6.695,0,0,1,3.44531-.82617,5.62578,5.62578,0,0,1,3.32226,1.00195,5.68611,5.68611,0,0,1,2.05664,2.584,7.09564,7.09564,0,0,1,6.46875-3.58594,5.38382,5.38382,0,0,1,3.33985.98437A5.92018,5.92018,0,0,1,42.96484,470.42969Z"/><path class="a" d="M50.68164,485.01953a4.88841,4.88841,0,0,1-2.14453-1.86328,5.173,5.173,0,0,1-.77344-2.8125,4.871,4.871,0,0,1,2.127-4.23633,10.32054,10.32054,0,0,1,5.99415-1.49414h4.21875v-.24609a4.31622,4.31622,0,0,0-1.10743-3.28711,5.11217,5.11217,0,0,0-3.56836-1.03711,12.31728,12.31728,0,0,0-2.28515.19336,18.798,18.798,0,0,0-2.39063.65039l-.457.07031a1.27929,1.27929,0,0,1-.93164-.4043,1.31928,1.31928,0,0,1-.4043-.96679,1.38066,1.38066,0,0,1,.94922-1.3711,15.29267,15.29267,0,0,1,6.082-1.26562,8.2321,8.2321,0,0,1,4.14844.98437,6.17733,6.17733,0,0,1,2.42578,2.51368,7.4284,7.4284,0,0,1,.8086,3.46289v9.94922a1.53019,1.53019,0,0,1-.49219,1.14257,1.61787,1.61787,0,0,1-1.16016.47461,1.62041,1.62041,0,0,1-1.61718-1.61718v-.84376a8.70466,8.70466,0,0,1-6.57422,2.63672A6.5689,6.5689,0,0,1,50.68164,485.01953Zm6.97852-2.9707a8.07149,8.07149,0,0,0,2.44336-1.88086V477.25H56.30664q-5.27343,0-5.27344,2.74219,0,2.77734,3.69141,2.77734A6.42769,6.42769,0,0,0,57.66016,482.04883Z"/><path class="a" d="M73.02344,493.21094a14.11356,14.11356,0,0,1-3.46289-1.30078,1.398,1.398,0,0,1-.668-1.26563,1.46779,1.46779,0,0,1,.42187-1.01953,1.33675,1.33675,0,0,1,1.01953-.457,1.72731,1.72731,0,0,1,.63282.14062,13.07654,13.07654,0,0,0,5.80078,1.33594q5.34375,0,5.34375-5.69531v-2.25a7.84933,7.84933,0,0,1-5.97656,2.60156,8.66949,8.66949,0,0,1-7.3125-4.23633A9.56167,9.56167,0,0,1,67.5918,476.125a9.66184,9.66184,0,0,1,1.26562-5.0625,8.373,8.373,0,0,1,3.18164-3.05859,8.49473,8.49473,0,0,1,4.09571-1.05469,7.84933,7.84933,0,0,1,5.97656,2.60156v-.77344a1.61624,1.61624,0,0,1,.47461-1.16015,1.53016,1.53016,0,0,1,1.14258-.49219,1.68128,1.68128,0,0,1,1.65234,1.65234v15.71485q0,4.42968-2.14453,6.83789a7.80683,7.80683,0,0,1-6.15235,2.4082A16.57989,16.57989,0,0,1,73.02344,493.21094Zm6.57422-11.54883a10.466,10.466,0,0,0,2.51367-1.916v-7.24218a10.466,10.466,0,0,0-2.51367-1.916,5.956,5.956,0,0,0-2.79493-.65039,5.84238,5.84238,0,0,0-4.32421,1.61719,7.26663,7.26663,0,0,0,0,9.14062,5.84238,5.84238,0,0,0,4.32421,1.61719A5.956,5.956,0,0,0,79.59766,481.66211Z"/><path class="a" d="M92.18359,483.19141a9.435,9.435,0,0,1-2.4082-6.89063,11.94988,11.94988,0,0,1,.91406-4.60547,7.6587,7.6587,0,0,1,2.88282-3.48047,8.28242,8.28242,0,0,1,4.64062-1.26562,8.449,8.449,0,0,1,4.53516,1.19531,8.15429,8.15429,0,0,1,2.84765,3.2168,9.81094,9.81094,0,0,1,1.01953,4.48242,1.59256,1.59256,0,0,1-1.65234,1.61719H93.08008a5.70086,5.70086,0,0,0,1.88086,3.81445,6.36326,6.36326,0,0,0,4.23633,1.31836,10.89494,10.89494,0,0,0,2.51367-.26367,10.37136,10.37136,0,0,0,2.23242-.82617,1.26251,1.26251,0,0,1,.63281-.14063,1.44047,1.44047,0,0,1,1.00195.4043,1.30662,1.30662,0,0,1,.43946,1.00195,1.53911,1.53911,0,0,1-.94922,1.33594,13.255,13.255,0,0,1-2.8125,1.17773,12.77006,12.77006,0,0,1-3.33984.36914A8.98778,8.98778,0,0,1,92.18359,483.19141ZM103.3457,474.332a4.65361,4.65361,0,0,0-.84375-2.35547,4.97829,4.97829,0,0,0-1.916-1.6875,5.3099,5.3099,0,0,0-2.373-.5625,5.974,5.974,0,0,0-2.35547.52735,4.59726,4.59726,0,0,0-1.95117,1.77539,5.96335,5.96335,0,0,0-.82617,2.75976h9.84375A.37227.37227,0,0,0,103.3457,474.332Z"/><path class="a" d="M121.78516,485.002a1.5575,1.5575,0,0,1-.47461-1.14257v-15.082a1.61624,1.61624,0,0,1,.47461-1.16015,1.53015,1.53015,0,0,1,1.14257-.49219,1.68128,1.68128,0,0,1,1.65235,1.65234v1.33594a11.26784,11.26784,0,0,1,2.98828-2.35547,7.47407,7.47407,0,0,1,3.51562-.80859,6.34607,6.34607,0,0,1,3.41016.91406,5.99184,5.99184,0,0,1,2.16211,2.4961,8.05028,8.05028,0,0,1,.75586,3.51562v9.98438a1.53015,1.53015,0,0,1-.49219,1.14257,1.61787,1.61787,0,0,1-1.16015.47461,1.62043,1.62043,0,0,1-1.61719-1.61718v-9.63282q0-4.25391-3.832-4.2539a5.62928,5.62928,0,0,0-3.041.84375,11.15055,11.15055,0,0,0-2.68945,2.49609v10.54688a1.53015,1.53015,0,0,1-.49219,1.14257,1.61787,1.61787,0,0,1-1.16016.47461A1.5575,1.5575,0,0,1,121.78516,485.002Z"/><path class="a" d="M145.91992,484.49219a8.20365,8.20365,0,0,1-3.16406-3.33985,11.0995,11.0995,0,0,1,0-9.73828,7.94057,7.94057,0,0,1,3.18164-3.30468,9.4575,9.4575,0,0,1,4.72852-1.16016,9.36079,9.36079,0,0,1,4.71093,1.16016,8.16662,8.16662,0,0,1,3.19922,3.32226,10.25666,10.25666,0,0,1,1.125,4.86914,10.15245,10.15245,0,0,1-1.125,4.85156,8.11445,8.11445,0,0,1-3.21679,3.33985,10.18023,10.18023,0,0,1-9.43946,0Zm7.52344-2.4961a5.16962,5.16962,0,0,0,2.17969-2.16211,7.26888,7.26888,0,0,0,.80859-3.56836,6.768,6.768,0,0,0-.84375-3.58593,5.28846,5.28846,0,0,0-2.05664-2.03907,5.86452,5.86452,0,0,0-2.86523-.70312,6.41318,6.41318,0,0,0-2.77735.63281,5.19072,5.19072,0,0,0-2.17969,2.14453,7.162,7.162,0,0,0-.80859,3.55078,6.84433,6.84433,0,0,0,.84375,3.6211,5.22155,5.22155,0,0,0,2.05664,2.07422,5.86308,5.86308,0,0,0,2.86524.70312A6.13742,6.13742,0,0,0,153.44336,481.99609Z"/><path class="a" d="M174.90625,463.16992a1.75375,1.75375,0,0,1-.54492-1.2832v-.14063a1.86148,1.86148,0,0,1,1.82812-1.82812h.21094a1.86149,1.86149,0,0,1,1.82813,1.82812v.14063a1.86149,1.86149,0,0,1-1.82813,1.82812h-.21094A1.75566,1.75566,0,0,1,174.90625,463.16992Zm.21094,21.832a1.5575,1.5575,0,0,1-.47461-1.14257v-15.082a1.61624,1.61624,0,0,1,.47461-1.16015,1.53016,1.53016,0,0,1,1.14258-.49219,1.62144,1.62144,0,0,1,1.65234,1.65234v15.082a1.53015,1.53015,0,0,1-.49219,1.14257,1.61787,1.61787,0,0,1-1.16015.47461A1.5575,1.5575,0,0,1,175.11719,485.002Z"/><path class="a" d="M209.71094,470.42969a8.43861,8.43861,0,0,1,.65039,3.30469v10.125a1.53015,1.53015,0,0,1-.49219,1.14257,1.61787,1.61787,0,0,1-1.16016.47461,1.62043,1.62043,0,0,1-1.61718-1.61718v-9.49219a5.40409,5.40409,0,0,0-.82618-3.375,3.31093,3.31093,0,0,0-2.7246-1.01953,4.64347,4.64347,0,0,0-2.84766.86132,9.03687,9.03687,0,0,0-2.17969,2.47852v10.54688a1.53015,1.53015,0,0,1-.49219,1.14257,1.61787,1.61787,0,0,1-1.16015.47461,1.62043,1.62043,0,0,1-1.61719-1.61718v-9.49219a5.40416,5.40416,0,0,0-.82617-3.375,3.311,3.311,0,0,0-2.72461-1.01953,4.64347,4.64347,0,0,0-2.84766.86132,9.03685,9.03685,0,0,0-2.17968,2.47852v10.54688a1.53019,1.53019,0,0,1-.49219,1.14257,1.61789,1.61789,0,0,1-1.16016.47461,1.62043,1.62043,0,0,1-1.61719-1.61718v-15.082a1.61628,1.61628,0,0,1,.47461-1.16015,1.53019,1.53019,0,0,1,1.14258-.49219,1.68128,1.68128,0,0,1,1.65235,1.65234v1.30078a8.39914,8.39914,0,0,1,2.49609-2.30273,6.695,6.695,0,0,1,3.44531-.82617,5.62581,5.62581,0,0,1,3.32227,1.00195,5.68618,5.68618,0,0,1,2.05664,2.584,7.09562,7.09562,0,0,1,6.46875-3.58594,5.38381,5.38381,0,0,1,3.33984.98437A5.9202,5.9202,0,0,1,209.71094,470.42969Z"/><path class="a" d="M217.42773,485.01953a4.88841,4.88841,0,0,1-2.14453-1.86328,5.173,5.173,0,0,1-.77343-2.8125,4.871,4.871,0,0,1,2.12695-4.23633,10.32052,10.32052,0,0,1,5.99414-1.49414h4.21875v-.24609a4.31625,4.31625,0,0,0-1.10742-3.28711,5.11219,5.11219,0,0,0-3.56836-1.03711,12.31739,12.31739,0,0,0-2.28516.19336,18.79793,18.79793,0,0,0-2.39062.65039l-.457.07031a1.27927,1.27927,0,0,1-.93164-.4043,1.31924,1.31924,0,0,1-.4043-.96679,1.38065,1.38065,0,0,1,.94922-1.3711,15.29263,15.29263,0,0,1,6.082-1.26562,8.2321,8.2321,0,0,1,4.14844.98437,6.17739,6.17739,0,0,1,2.42578,2.51368,7.42852,7.42852,0,0,1,.80859,3.46289v9.94922a1.53015,1.53015,0,0,1-.49219,1.14257,1.61787,1.61787,0,0,1-1.16015.47461,1.62043,1.62043,0,0,1-1.61719-1.61718v-.84376a8.70466,8.70466,0,0,1-6.57422,2.63672A6.56894,6.56894,0,0,1,217.42773,485.01953Zm6.97852-2.9707a8.07149,8.07149,0,0,0,2.44336-1.88086V477.25h-3.79688q-5.27343,0-5.27343,2.74219,0,2.77734,3.6914,2.77734A6.42766,6.42766,0,0,0,224.40625,482.04883Z"/><path class="a" d="M239.76953,493.21094a14.11356,14.11356,0,0,1-3.46289-1.30078,1.398,1.398,0,0,1-.668-1.26563,1.46781,1.46781,0,0,1,.42188-1.01953,1.33673,1.33673,0,0,1,1.01953-.457,1.72722,1.72722,0,0,1,.63281.14062,13.07657,13.07657,0,0,0,5.80078,1.33594q5.34375,0,5.34375-5.69531v-2.25a7.84932,7.84932,0,0,1-5.97656,2.60156,8.66952,8.66952,0,0,1-7.3125-4.23633,9.56177,9.56177,0,0,1-1.23047-4.93945,9.66184,9.66184,0,0,1,1.26563-5.0625,8.373,8.373,0,0,1,3.18164-3.05859,8.49469,8.49469,0,0,1,4.0957-1.05469,7.84932,7.84932,0,0,1,5.97656,2.60156v-.77344a1.61624,1.61624,0,0,1,.47461-1.16015,1.53019,1.53019,0,0,1,1.14258-.49219,1.68126,1.68126,0,0,1,1.65234,1.65234v15.71485q0,4.42968-2.14453,6.83789a7.80682,7.80682,0,0,1-6.15234,2.4082A16.57991,16.57991,0,0,1,239.76953,493.21094Zm6.57422-11.54883a10.466,10.466,0,0,0,2.51367-1.916v-7.24218a10.466,10.466,0,0,0-2.51367-1.916,5.95595,5.95595,0,0,0-2.79492-.65039,5.8424,5.8424,0,0,0-4.32422,1.61719,7.26663,7.26663,0,0,0,0,9.14062,5.8424,5.8424,0,0,0,4.32422,1.61719A5.95595,5.95595,0,0,0,246.34375,481.66211Z"/><path class="a" d="M258.92969,483.19141a9.435,9.435,0,0,1-2.40821-6.89063,11.95878,11.95878,0,0,1,.91407-4.60547,7.65868,7.65868,0,0,1,2.88281-3.48047,8.2847,8.2847,0,0,1,4.64062-1.26562,8.449,8.449,0,0,1,4.53516,1.19531,8.1469,8.1469,0,0,1,2.84766,3.2168,9.81106,9.81106,0,0,1,1.01953,4.48242,1.59256,1.59256,0,0,1-1.65235,1.61719H259.82617a5.70086,5.70086,0,0,0,1.88086,3.81445,6.36415,6.36415,0,0,0,4.23633,1.31836,10.89194,10.89194,0,0,0,2.51367-.26367,10.36185,10.36185,0,0,0,2.23242-.82617,1.26509,1.26509,0,0,1,.63282-.14063,1.43877,1.43877,0,0,1,1.002.4043,1.30661,1.30661,0,0,1,.43945,1.00195,1.5391,1.5391,0,0,1-.94922,1.33594,13.25454,13.25454,0,0,1-2.8125,1.17773,12.76743,12.76743,0,0,1-3.33984.36914A8.98852,8.98852,0,0,1,258.92969,483.19141ZM270.0918,474.332a4.65361,4.65361,0,0,0-.84375-2.35547,4.9749,4.9749,0,0,0-1.916-1.6875,5.30987,5.30987,0,0,0-2.373-.5625,5.97576,5.97576,0,0,0-2.35546.52735,4.60286,4.60286,0,0,0-1.95118,1.77539,5.96347,5.96347,0,0,0-.82617,2.75976h9.84375A.372.372,0,0,0,270.0918,474.332Z"/><path class="a" d="M288.53125,485.002a1.5575,1.5575,0,0,1-.47461-1.14257v-15.082a1.61624,1.61624,0,0,1,.47461-1.16015,1.53019,1.53019,0,0,1,1.14258-.49219,1.68128,1.68128,0,0,1,1.65234,1.65234v1.33594a11.27559,11.27559,0,0,1,2.98828-2.35547,7.47548,7.47548,0,0,1,3.51563-.80859,6.34487,6.34487,0,0,1,3.41015.91406,5.985,5.985,0,0,1,2.16211,2.4961,8.05028,8.05028,0,0,1,.75586,3.51562v9.98438a1.53018,1.53018,0,0,1-.49218,1.14257,1.61628,1.61628,0,0,1-1.16016.47461,1.62043,1.62043,0,0,1-1.61719-1.61718v-9.63282q0-4.25391-3.832-4.2539a5.63047,5.63047,0,0,0-3.041.84375,11.15073,11.15073,0,0,0-2.68945,2.49609v10.54688a1.53015,1.53015,0,0,1-.49219,1.14257,1.61624,1.61624,0,0,1-1.16015.47461A1.55754,1.55754,0,0,1,288.53125,485.002Z"/><path class="a" d="M312.666,484.49219a8.20361,8.20361,0,0,1-3.16407-3.33985,11.0995,11.0995,0,0,1,0-9.73828,7.94057,7.94057,0,0,1,3.18164-3.30468,9.45753,9.45753,0,0,1,4.72852-1.16016,9.35956,9.35956,0,0,1,4.71094,1.16016,8.16356,8.16356,0,0,1,3.19922,3.32226,10.25666,10.25666,0,0,1,1.125,4.86914,10.15245,10.15245,0,0,1-1.125,4.85156,8.11447,8.11447,0,0,1-3.2168,3.33985,10.18021,10.18021,0,0,1-9.43945,0Zm7.52343-2.4961a5.16684,5.16684,0,0,0,2.17969-2.16211,7.26888,7.26888,0,0,0,.80859-3.56836,6.768,6.768,0,0,0-.84375-3.58593,5.28846,5.28846,0,0,0-2.05664-2.03907,5.86312,5.86312,0,0,0-2.86523-.70312,6.41469,6.41469,0,0,0-2.77734.63281,5.19061,5.19061,0,0,0-2.17969,2.14453,7.16727,7.16727,0,0,0-.8086,3.55078,6.84433,6.84433,0,0,0,.84375,3.6211,5.22783,5.22783,0,0,0,2.05665,2.07422,5.863,5.863,0,0,0,2.86523.70312A6.13588,6.13588,0,0,0,320.18945,481.99609Z"/><path class="a" d="M341.65234,463.16992a1.75564,1.75564,0,0,1-.54492-1.2832v-.14063a1.86148,1.86148,0,0,1,1.82813-1.82812h.21093a1.86148,1.86148,0,0,1,1.82813,1.82812v.14063a1.86148,1.86148,0,0,1-1.82813,1.82812h-.21093A1.75566,1.75566,0,0,1,341.65234,463.16992Zm.21094,21.832a1.55754,1.55754,0,0,1-.47461-1.14257v-15.082a1.61628,1.61628,0,0,1,.47461-1.16015,1.53019,1.53019,0,0,1,1.14258-.49219,1.62144,1.62144,0,0,1,1.65234,1.65234v15.082a1.53018,1.53018,0,0,1-.49218,1.14257,1.61628,1.61628,0,0,1-1.16016.47461A1.55754,1.55754,0,0,1,341.86328,485.002Z"/><path class="a" d="M376.457,470.42969a8.43861,8.43861,0,0,1,.65039,3.30469v10.125a1.53015,1.53015,0,0,1-.49219,1.14257,1.61624,1.61624,0,0,1-1.16015.47461,1.62043,1.62043,0,0,1-1.61719-1.61718v-9.49219a5.40094,5.40094,0,0,0-.82617-3.375,3.311,3.311,0,0,0-2.72461-1.01953,4.64347,4.64347,0,0,0-2.84766.86132,9.03685,9.03685,0,0,0-2.17968,2.47852v10.54688a1.53019,1.53019,0,0,1-.49219,1.14257,1.61628,1.61628,0,0,1-1.16016.47461,1.62043,1.62043,0,0,1-1.61719-1.61718v-9.49219a5.40094,5.40094,0,0,0-.82617-3.375,3.31094,3.31094,0,0,0-2.72461-1.01953,4.64342,4.64342,0,0,0-2.84765.86132,9.03687,9.03687,0,0,0-2.17969,2.47852v10.54688a1.53015,1.53015,0,0,1-.49219,1.14257,1.61624,1.61624,0,0,1-1.16015.47461,1.62043,1.62043,0,0,1-1.61719-1.61718v-15.082a1.61624,1.61624,0,0,1,.47461-1.16015,1.53016,1.53016,0,0,1,1.14258-.49219,1.68128,1.68128,0,0,1,1.65234,1.65234v1.30078a8.405,8.405,0,0,1,2.49609-2.30273,6.69629,6.69629,0,0,1,3.44532-.82617,5.6258,5.6258,0,0,1,3.32226,1.00195,5.68611,5.68611,0,0,1,2.05664,2.584,7.09616,7.09616,0,0,1,6.46875-3.58594,5.38284,5.38284,0,0,1,3.33985.98437A5.91629,5.91629,0,0,1,376.457,470.42969Z"/><path class="a" d="M384.17383,485.01953a4.891,4.891,0,0,1-2.14453-1.86328,5.173,5.173,0,0,1-.77344-2.8125,4.87209,4.87209,0,0,1,2.127-4.23633,10.32158,10.32158,0,0,1,5.99414-1.49414h4.21875v-.24609a4.31625,4.31625,0,0,0-1.10742-3.28711,5.11134,5.11134,0,0,0-3.56836-1.03711,12.31721,12.31721,0,0,0-2.28515.19336,18.81945,18.81945,0,0,0-2.39063.65039l-.457.07031a1.28009,1.28009,0,0,1-.93164-.4043,1.31928,1.31928,0,0,1-.4043-.96679,1.38066,1.38066,0,0,1,.94922-1.3711,15.29438,15.29438,0,0,1,6.082-1.26562,8.2321,8.2321,0,0,1,4.14844.98437,6.17115,6.17115,0,0,1,2.42578,2.51368,7.42852,7.42852,0,0,1,.80859,3.46289v9.94922a1.53018,1.53018,0,0,1-.49218,1.14257,1.61628,1.61628,0,0,1-1.16016.47461,1.62043,1.62043,0,0,1-1.61719-1.61718v-.84376a8.7039,8.7039,0,0,1-6.57422,2.63672A6.56886,6.56886,0,0,1,384.17383,485.01953Zm6.97851-2.9707a8.06538,8.06538,0,0,0,2.44336-1.88086V477.25h-3.79687q-5.27344,0-5.27344,2.74219,0,2.77734,3.69141,2.77734A6.42616,6.42616,0,0,0,391.15234,482.04883Z"/><path class="a" d="M406.51562,493.21094a14.11372,14.11372,0,0,1-3.46289-1.30078,1.398,1.398,0,0,1-.668-1.26563,1.46779,1.46779,0,0,1,.42187-1.01953,1.33747,1.33747,0,0,1,1.01953-.457,1.72722,1.72722,0,0,1,.63281.14062,13.07658,13.07658,0,0,0,5.80079,1.33594q5.34375,0,5.34375-5.69531v-2.25a7.84934,7.84934,0,0,1-5.97657,2.60156,8.66952,8.66952,0,0,1-7.3125-4.23633,10.64383,10.64383,0,0,1,.03516-10.002,8.373,8.373,0,0,1,3.18164-3.05859,8.49472,8.49472,0,0,1,4.0957-1.05469,7.84934,7.84934,0,0,1,5.97657,2.60156v-.77344a1.61627,1.61627,0,0,1,.4746-1.16015,1.53019,1.53019,0,0,1,1.14258-.49219,1.68128,1.68128,0,0,1,1.65235,1.65234v15.71485q0,4.42968-2.14453,6.83789a7.80683,7.80683,0,0,1-6.15235,2.4082A16.586,16.586,0,0,1,406.51562,493.21094Zm6.57422-11.54883a10.45638,10.45638,0,0,0,2.51368-1.916v-7.24218a10.45638,10.45638,0,0,0-2.51368-1.916,5.95595,5.95595,0,0,0-2.79492-.65039,5.84393,5.84393,0,0,0-4.32422,1.61719,7.26666,7.26666,0,0,0,0,9.14062,5.84393,5.84393,0,0,0,4.32422,1.61719A5.95595,5.95595,0,0,0,413.08984,481.66211Z"/><path class="a" d="M425.67578,483.19141a9.435,9.435,0,0,1-2.4082-6.89063,11.959,11.959,0,0,1,.91406-4.60547,7.65868,7.65868,0,0,1,2.88281-3.48047,8.28473,8.28473,0,0,1,4.64063-1.26562,8.449,8.449,0,0,1,4.53515,1.19531,8.1469,8.1469,0,0,1,2.84766,3.2168,9.81094,9.81094,0,0,1,1.01953,4.48242,1.59256,1.59256,0,0,1-1.65234,1.61719H426.57227a5.70086,5.70086,0,0,0,1.88085,3.81445,6.36415,6.36415,0,0,0,4.23633,1.31836,10.89194,10.89194,0,0,0,2.51367-.26367,10.36173,10.36173,0,0,0,2.23243-.82617,1.265,1.265,0,0,1,.63281-.14063,1.43877,1.43877,0,0,1,1.002.4043,1.30662,1.30662,0,0,1,.43946,1.00195,1.53911,1.53911,0,0,1-.94922,1.33594,13.255,13.255,0,0,1-2.8125,1.17773,12.76756,12.76756,0,0,1-3.33985.36914A8.98852,8.98852,0,0,1,425.67578,483.19141Zm11.16211-8.85938a4.65361,4.65361,0,0,0-.84375-2.35547,4.97483,4.97483,0,0,0-1.916-1.6875,5.30983,5.30983,0,0,0-2.373-.5625,5.9758,5.9758,0,0,0-2.35547.52735,4.60289,4.60289,0,0,0-1.95117,1.77539,5.96335,5.96335,0,0,0-.82617,2.75976H436.416A.37194.37194,0,0,0,436.83789,474.332Z"/><path class="a" d="M455.27734,485.002a1.55754,1.55754,0,0,1-.47461-1.14257v-15.082a1.61628,1.61628,0,0,1,.47461-1.16015,1.53019,1.53019,0,0,1,1.14258-.49219,1.68128,1.68128,0,0,1,1.65235,1.65234v1.33594a11.27544,11.27544,0,0,1,2.98828-2.35547,7.47544,7.47544,0,0,1,3.51562-.80859,6.34492,6.34492,0,0,1,3.41016.91406,5.985,5.985,0,0,1,2.16211,2.4961,8.05042,8.05042,0,0,1,.75586,3.51562v9.98438a1.53019,1.53019,0,0,1-.49219,1.14257,1.61626,1.61626,0,0,1-1.16016.47461,1.62043,1.62043,0,0,1-1.61718-1.61718v-9.63282q0-4.25391-3.832-4.2539a5.63041,5.63041,0,0,0-3.041.84375,11.15055,11.15055,0,0,0-2.68945,2.49609v10.54688a1.53019,1.53019,0,0,1-.49219,1.14257,1.61628,1.61628,0,0,1-1.16016.47461A1.55754,1.55754,0,0,1,455.27734,485.002Z"/><path class="a" d="M479.41211,484.49219a8.20358,8.20358,0,0,1-3.16406-3.33985,11.0995,11.0995,0,0,1,0-9.73828,7.94051,7.94051,0,0,1,3.18164-3.30468,9.45746,9.45746,0,0,1,4.72851-1.16016,9.35954,9.35954,0,0,1,4.71094,1.16016,8.16356,8.16356,0,0,1,3.19922,3.32226,10.25666,10.25666,0,0,1,1.125,4.86914,10.15245,10.15245,0,0,1-1.125,4.85156,8.11441,8.11441,0,0,1-3.2168,3.33985,10.18021,10.18021,0,0,1-9.43945,0Zm7.52344-2.4961a5.16688,5.16688,0,0,0,2.17968-2.16211,7.26877,7.26877,0,0,0,.8086-3.56836,6.768,6.768,0,0,0-.84375-3.58593,5.28852,5.28852,0,0,0-2.05664-2.03907,5.86319,5.86319,0,0,0-2.86524-.70312,6.41472,6.41472,0,0,0-2.77734.63281,5.19067,5.19067,0,0,0-2.17969,2.14453,7.16727,7.16727,0,0,0-.80859,3.55078,6.84433,6.84433,0,0,0,.84375,3.6211,5.22774,5.22774,0,0,0,2.05664,2.07422,5.86307,5.86307,0,0,0,2.86523.70312A6.136,6.136,0,0,0,486.93555,481.99609Z"/><path class="a" d="M8.37109,35.002a1.55754,1.55754,0,0,1-.47461-1.14257v-15.082a1.61628,1.61628,0,0,1,.47461-1.16015A1.53019,1.53019,0,0,1,9.51367,17.125,1.68128,1.68128,0,0,1,11.166,18.77734v1.33594a11.26769,11.26769,0,0,1,2.98828-2.35547,7.474,7.474,0,0,1,3.51562-.80859,6.34609,6.34609,0,0,1,3.41016.91406,5.99191,5.99191,0,0,1,2.16211,2.4961,8.05042,8.05042,0,0,1,.75586,3.51562v9.98438a1.53019,1.53019,0,0,1-.49219,1.14257,1.61787,1.61787,0,0,1-1.16016.47461,1.62041,1.62041,0,0,1-1.61718-1.61718V24.22656q0-4.25391-3.832-4.2539a5.62922,5.62922,0,0,0-3.041.84375A11.15037,11.15037,0,0,0,11.166,23.3125V33.85938a1.53019,1.53019,0,0,1-.49219,1.14257,1.61789,1.61789,0,0,1-1.16016.47461A1.55754,1.55754,0,0,1,8.37109,35.002Z"/><path class="a" d="M32.50586,34.49219a8.20358,8.20358,0,0,1-3.16406-3.33985,10.27891,10.27891,0,0,1-1.125-4.85156,10.35569,10.35569,0,0,1,1.125-4.88672,7.94051,7.94051,0,0,1,3.18164-3.30468A9.45746,9.45746,0,0,1,37.252,16.94922a9.36083,9.36083,0,0,1,4.71094,1.16016,8.16668,8.16668,0,0,1,3.19922,3.32226,10.25666,10.25666,0,0,1,1.125,4.86914,10.15245,10.15245,0,0,1-1.125,4.85156,8.11441,8.11441,0,0,1-3.2168,3.33985A9.38572,9.38572,0,0,1,37.252,35.65234,9.42936,9.42936,0,0,1,32.50586,34.49219Zm7.52344-2.4961A5.1696,5.1696,0,0,0,42.209,29.834a7.26877,7.26877,0,0,0,.8086-3.56836,6.768,6.768,0,0,0-.84375-3.58593,5.28852,5.28852,0,0,0-2.05664-2.03907A5.86453,5.86453,0,0,0,37.252,19.9375a6.41314,6.41314,0,0,0-2.77734.63281,5.19067,5.19067,0,0,0-2.17969,2.14453,7.162,7.162,0,0,0-.80859,3.55078,6.84433,6.84433,0,0,0,.84375,3.6211,5.22149,5.22149,0,0,0,2.05664,2.07422,5.86307,5.86307,0,0,0,2.86523.70312A6.13746,6.13746,0,0,0,40.0293,31.99609Z"/><path class="a" d="M61.49219,13.16992a1.75375,1.75375,0,0,1-.54492-1.2832v-.14063A1.86148,1.86148,0,0,1,62.77539,9.918h.21094a1.86148,1.86148,0,0,1,1.82812,1.82812v.14063a1.86148,1.86148,0,0,1-1.82812,1.82812h-.21094A1.75564,1.75564,0,0,1,61.49219,13.16992Zm.21093,21.832a1.55753,1.55753,0,0,1-.4746-1.14257v-15.082a1.61627,1.61627,0,0,1,.4746-1.16015A1.53019,1.53019,0,0,1,62.8457,17.125a1.62144,1.62144,0,0,1,1.65235,1.65234v15.082a1.53019,1.53019,0,0,1-.49219,1.14257,1.61787,1.61787,0,0,1-1.16016.47461A1.55754,1.55754,0,0,1,61.70312,35.002Z"/><path class="a" d="M96.29688,20.42969a8.43861,8.43861,0,0,1,.65039,3.30469v10.125a1.53019,1.53019,0,0,1-.49219,1.14257,1.61789,1.61789,0,0,1-1.16016.47461,1.62043,1.62043,0,0,1-1.61719-1.61718V24.36719a5.4041,5.4041,0,0,0-.82617-3.375,3.31094,3.31094,0,0,0-2.72461-1.01953,4.64342,4.64342,0,0,0-2.84765.86132,9.03687,9.03687,0,0,0-2.17969,2.47852V33.85938a1.53015,1.53015,0,0,1-.49219,1.14257,1.61787,1.61787,0,0,1-1.16015.47461,1.62043,1.62043,0,0,1-1.61719-1.61718V24.36719a5.40416,5.40416,0,0,0-.82617-3.375,3.311,3.311,0,0,0-2.72461-1.01953,4.64347,4.64347,0,0,0-2.84766.86132,9.03687,9.03687,0,0,0-2.17969,2.47852V33.85938a1.53018,1.53018,0,0,1-.49218,1.14257,1.61791,1.61791,0,0,1-1.16016.47461,1.62043,1.62043,0,0,1-1.61719-1.61718v-15.082a1.61624,1.61624,0,0,1,.47461-1.16015,1.53019,1.53019,0,0,1,1.14258-.49219,1.68126,1.68126,0,0,1,1.65234,1.65234v1.30078a8.39929,8.39929,0,0,1,2.4961-2.30273,6.695,6.695,0,0,1,3.44531-.82617,5.62578,5.62578,0,0,1,3.32226,1.002,5.6862,5.6862,0,0,1,2.05665,2.584A7.09562,7.09562,0,0,1,91.041,16.94922a5.38381,5.38381,0,0,1,3.33984.98437A5.92028,5.92028,0,0,1,96.29688,20.42969Z"/><path class="a" d="M104.01367,35.01953a4.88841,4.88841,0,0,1-2.14453-1.86328,5.173,5.173,0,0,1-.77344-2.8125,4.871,4.871,0,0,1,2.127-4.23633,10.32048,10.32048,0,0,1,5.99414-1.49414h4.21875v-.24609a4.31622,4.31622,0,0,0-1.10743-3.28711,5.11216,5.11216,0,0,0-3.56835-1.03711,12.31739,12.31739,0,0,0-2.28516.19336,18.798,18.798,0,0,0-2.39063.65039l-.457.07031a1.2793,1.2793,0,0,1-.93164-.4043,1.31927,1.31927,0,0,1-.40429-.96679,1.38065,1.38065,0,0,1,.94921-1.3711,15.29268,15.29268,0,0,1,6.082-1.26562,8.23206,8.23206,0,0,1,4.14843.98437,6.17733,6.17733,0,0,1,2.42578,2.51368,7.4284,7.4284,0,0,1,.8086,3.46289v9.94922a1.53015,1.53015,0,0,1-.49219,1.14257,1.61787,1.61787,0,0,1-1.16016.47461,1.62043,1.62043,0,0,1-1.61718-1.61718v-.84376a8.70466,8.70466,0,0,1-6.57422,2.63672A6.56894,6.56894,0,0,1,104.01367,35.01953Zm6.97852-2.9707a8.07149,8.07149,0,0,0,2.44336-1.88086V27.25h-3.79688q-5.27343,0-5.27344,2.74219,0,2.77734,3.69141,2.77734A6.42769,6.42769,0,0,0,110.99219,32.04883Z"/><path class="a" d="M126.35547,43.21094a14.11356,14.11356,0,0,1-3.46289-1.30078,1.398,1.398,0,0,1-.668-1.26563,1.46779,1.46779,0,0,1,.42187-1.01953,1.33675,1.33675,0,0,1,1.01954-.457,1.72727,1.72727,0,0,1,.63281.14062,13.07654,13.07654,0,0,0,5.80078,1.33594q5.34375,0,5.34375-5.69531v-2.25a7.84933,7.84933,0,0,1-5.97656,2.60156,8.66949,8.66949,0,0,1-7.3125-4.23633,9.56177,9.56177,0,0,1-1.23047-4.93945,9.66184,9.66184,0,0,1,1.26562-5.0625,8.37306,8.37306,0,0,1,3.18164-3.05859,8.49476,8.49476,0,0,1,4.09571-1.05469,7.84933,7.84933,0,0,1,5.97656,2.60156v-.77344a1.61624,1.61624,0,0,1,.47461-1.16015,1.53018,1.53018,0,0,1,1.14258-.49219,1.68128,1.68128,0,0,1,1.65234,1.65234V34.49219q0,4.42968-2.14453,6.83789a7.80682,7.80682,0,0,1-6.15234,2.4082A16.57991,16.57991,0,0,1,126.35547,43.21094Zm6.57422-11.54883a10.466,10.466,0,0,0,2.51367-1.916V22.50391a10.466,10.466,0,0,0-2.51367-1.916,5.95595,5.95595,0,0,0-2.79492-.65039,5.84239,5.84239,0,0,0-4.32422,1.61719,6.18062,6.18062,0,0,0-1.61719,4.57031,6.18062,6.18062,0,0,0,1.61719,4.57031,5.84239,5.84239,0,0,0,4.32422,1.61719A5.95595,5.95595,0,0,0,132.92969,31.66211Z"/><path class="a" d="M145.51562,33.19141a9.435,9.435,0,0,1-2.4082-6.89063,11.94988,11.94988,0,0,1,.91406-4.60547,7.6587,7.6587,0,0,1,2.88282-3.48047,8.28245,8.28245,0,0,1,4.64062-1.26562,8.449,8.449,0,0,1,4.53516,1.19531,8.15429,8.15429,0,0,1,2.84765,3.2168,9.81094,9.81094,0,0,1,1.01954,4.48242,1.59258,1.59258,0,0,1-1.65235,1.61719H146.41211a5.70086,5.70086,0,0,0,1.88086,3.81445,6.36326,6.36326,0,0,0,4.23633,1.31836,10.89494,10.89494,0,0,0,2.51367-.26367,10.37136,10.37136,0,0,0,2.23242-.82617,1.26251,1.26251,0,0,1,.63281-.14063,1.44051,1.44051,0,0,1,1.002.4043,1.30665,1.30665,0,0,1,.43945,1.002,1.53911,1.53911,0,0,1-.94922,1.33594,13.25454,13.25454,0,0,1-2.8125,1.17773,12.77006,12.77006,0,0,1-3.33984.36914A8.9878,8.9878,0,0,1,145.51562,33.19141ZM156.67773,24.332a4.65361,4.65361,0,0,0-.84375-2.35547,4.97829,4.97829,0,0,0-1.916-1.6875,5.3099,5.3099,0,0,0-2.37305-.5625,5.974,5.974,0,0,0-2.35547.52735,4.59726,4.59726,0,0,0-1.95117,1.77539,5.96335,5.96335,0,0,0-.82617,2.75976h9.84375A.37227.37227,0,0,0,156.67773,24.332Z"/><path class="a" d="M175.11719,35.002a1.5575,1.5575,0,0,1-.47461-1.14257v-15.082a1.61624,1.61624,0,0,1,.47461-1.16015,1.53016,1.53016,0,0,1,1.14258-.49219,1.68128,1.68128,0,0,1,1.65234,1.65234v1.33594a11.26784,11.26784,0,0,1,2.98828-2.35547,7.47408,7.47408,0,0,1,3.51563-.80859,6.34606,6.34606,0,0,1,3.41015.91406,5.99184,5.99184,0,0,1,2.16211,2.4961,8.05028,8.05028,0,0,1,.75586,3.51562v9.98438A1.53015,1.53015,0,0,1,190.252,35.002a1.61787,1.61787,0,0,1-1.16015.47461,1.62043,1.62043,0,0,1-1.61719-1.61718V24.22656q0-4.25391-3.832-4.2539a5.62928,5.62928,0,0,0-3.041.84375,11.15055,11.15055,0,0,0-2.68945,2.49609V33.85938a1.53015,1.53015,0,0,1-.49219,1.14257,1.61787,1.61787,0,0,1-1.16015.47461A1.5575,1.5575,0,0,1,175.11719,35.002Z"/><path class="a" d="M199.252,34.49219a8.20365,8.20365,0,0,1-3.16406-3.33985,10.27891,10.27891,0,0,1-1.125-4.85156,10.35569,10.35569,0,0,1,1.125-4.88672,7.94057,7.94057,0,0,1,3.18164-3.30468,9.4575,9.4575,0,0,1,4.72852-1.16016,9.36079,9.36079,0,0,1,4.71093,1.16016,8.16662,8.16662,0,0,1,3.19922,3.32226,10.25666,10.25666,0,0,1,1.125,4.86914,10.15245,10.15245,0,0,1-1.125,4.85156,8.11439,8.11439,0,0,1-3.21679,3.33985,10.18023,10.18023,0,0,1-9.43946,0Zm7.52344-2.4961a5.16962,5.16962,0,0,0,2.17969-2.16211,7.26888,7.26888,0,0,0,.80859-3.56836,6.768,6.768,0,0,0-.84375-3.58593,5.28846,5.28846,0,0,0-2.05664-2.03907,5.86452,5.86452,0,0,0-2.86523-.70312,6.41318,6.41318,0,0,0-2.77735.63281,5.19064,5.19064,0,0,0-2.17968,2.14453,7.16189,7.16189,0,0,0-.8086,3.55078,6.84433,6.84433,0,0,0,.84375,3.6211,5.22161,5.22161,0,0,0,2.05664,2.07422,5.86308,5.86308,0,0,0,2.86524.70312A6.13742,6.13742,0,0,0,206.77539,31.99609Z"/><path class="a" d="M228.23828,13.16992a1.75375,1.75375,0,0,1-.54492-1.2832v-.14063A1.86148,1.86148,0,0,1,229.52148,9.918h.21094a1.86149,1.86149,0,0,1,1.82813,1.82812v.14063a1.86149,1.86149,0,0,1-1.82813,1.82812h-.21094A1.75566,1.75566,0,0,1,228.23828,13.16992Zm.21094,21.832a1.5575,1.5575,0,0,1-.47461-1.14257v-15.082a1.61624,1.61624,0,0,1,.47461-1.16015,1.53016,1.53016,0,0,1,1.14258-.49219,1.62144,1.62144,0,0,1,1.65234,1.65234v15.082A1.53015,1.53015,0,0,1,230.752,35.002a1.61787,1.61787,0,0,1-1.16015.47461A1.5575,1.5575,0,0,1,228.44922,35.002Z"/><path class="a" d="M263.043,20.42969a8.43861,8.43861,0,0,1,.65039,3.30469v10.125a1.53015,1.53015,0,0,1-.49219,1.14257,1.61624,1.61624,0,0,1-1.16015.47461,1.62043,1.62043,0,0,1-1.61719-1.61718V24.36719a5.40094,5.40094,0,0,0-.82617-3.375,3.311,3.311,0,0,0-2.72461-1.01953,4.64347,4.64347,0,0,0-2.84766.86132,9.03687,9.03687,0,0,0-2.17969,2.47852V33.85938a1.53018,1.53018,0,0,1-.49218,1.14257,1.61709,1.61709,0,0,1-1.16016.47461,1.62043,1.62043,0,0,1-1.61719-1.61718V24.36719a5.40416,5.40416,0,0,0-.82617-3.375,3.31094,3.31094,0,0,0-2.72461-1.01953,4.64347,4.64347,0,0,0-2.84766.86132,9.03685,9.03685,0,0,0-2.17968,2.47852V33.85938a1.53019,1.53019,0,0,1-.49219,1.14257,1.61787,1.61787,0,0,1-1.16016.47461,1.62041,1.62041,0,0,1-1.61718-1.61718v-15.082a1.61627,1.61627,0,0,1,.4746-1.16015,1.53019,1.53019,0,0,1,1.14258-.49219,1.68128,1.68128,0,0,1,1.65235,1.65234v1.30078a8.39914,8.39914,0,0,1,2.49609-2.30273,6.695,6.695,0,0,1,3.44531-.82617,5.62581,5.62581,0,0,1,3.32227,1.002,5.68618,5.68618,0,0,1,2.05664,2.584,7.09614,7.09614,0,0,1,6.46875-3.58594,5.38281,5.38281,0,0,1,3.33984.98437A5.91631,5.91631,0,0,1,263.043,20.42969Z"/><path class="a" d="M270.75977,35.01953a4.89106,4.89106,0,0,1-2.14454-1.86328,5.173,5.173,0,0,1-.77343-2.8125,4.87209,4.87209,0,0,1,2.127-4.23633,10.32158,10.32158,0,0,1,5.99414-1.49414h4.21875v-.24609a4.31625,4.31625,0,0,0-1.10742-3.28711,5.11136,5.11136,0,0,0-3.56836-1.03711,12.31739,12.31739,0,0,0-2.28516.19336,18.8198,18.8198,0,0,0-2.39062.65039l-.457.07031a1.28007,1.28007,0,0,1-.93164-.4043,1.31928,1.31928,0,0,1-.4043-.96679,1.38066,1.38066,0,0,1,.94922-1.3711,15.29438,15.29438,0,0,1,6.082-1.26562,8.2321,8.2321,0,0,1,4.14844.98437,6.17115,6.17115,0,0,1,2.42578,2.51368,7.42852,7.42852,0,0,1,.80859,3.46289v9.94922A1.53015,1.53015,0,0,1,282.959,35.002a1.61624,1.61624,0,0,1-1.16015.47461,1.62043,1.62043,0,0,1-1.61719-1.61718v-.84376a8.70392,8.70392,0,0,1-6.57422,2.63672A6.56886,6.56886,0,0,1,270.75977,35.01953Zm6.97851-2.9707a8.0655,8.0655,0,0,0,2.44336-1.88086V27.25h-3.79687q-5.27344,0-5.27344,2.74219,0,2.77734,3.6914,2.77734A6.42617,6.42617,0,0,0,277.73828,32.04883Z"/><path class="a" d="M293.10156,43.21094a14.11356,14.11356,0,0,1-3.46289-1.30078,1.398,1.398,0,0,1-.668-1.26563,1.46781,1.46781,0,0,1,.42188-1.01953,1.33747,1.33747,0,0,1,1.01953-.457,1.72722,1.72722,0,0,1,.63281.14062,13.07657,13.07657,0,0,0,5.80078,1.33594q5.34375,0,5.34375-5.69531v-2.25a7.8493,7.8493,0,0,1-5.97656,2.60156,8.66952,8.66952,0,0,1-7.3125-4.23633,9.56653,9.56653,0,0,1-1.23047-4.93945,9.66184,9.66184,0,0,1,1.26563-5.0625,8.373,8.373,0,0,1,3.18164-3.05859,8.49469,8.49469,0,0,1,4.0957-1.05469,7.8493,7.8493,0,0,1,5.97656,2.60156v-.77344a1.61628,1.61628,0,0,1,.47461-1.16015,1.53019,1.53019,0,0,1,1.14258-.49219,1.68126,1.68126,0,0,1,1.65234,1.65234V34.49219q0,4.42968-2.14453,6.83789a7.80681,7.80681,0,0,1-6.15234,2.4082A16.58591,16.58591,0,0,1,293.10156,43.21094Zm6.57422-11.54883a10.45654,10.45654,0,0,0,2.51367-1.916V22.50391a10.45654,10.45654,0,0,0-2.51367-1.916,5.95595,5.95595,0,0,0-2.79492-.65039,5.84393,5.84393,0,0,0-4.32422,1.61719,6.18066,6.18066,0,0,0-1.61719,4.57031,6.18066,6.18066,0,0,0,1.61719,4.57031,5.84393,5.84393,0,0,0,4.32422,1.61719A5.95595,5.95595,0,0,0,299.67578,31.66211Z"/><path class="a" d="M312.26172,33.19141a9.435,9.435,0,0,1-2.4082-6.89063,11.95877,11.95877,0,0,1,.91406-4.60547,7.65868,7.65868,0,0,1,2.88281-3.48047,8.28471,8.28471,0,0,1,4.64063-1.26562,8.449,8.449,0,0,1,4.53515,1.19531,8.1469,8.1469,0,0,1,2.84766,3.2168,9.81094,9.81094,0,0,1,1.01953,4.48242,1.59256,1.59256,0,0,1-1.65234,1.61719H313.1582a5.70086,5.70086,0,0,0,1.88086,3.81445,6.36415,6.36415,0,0,0,4.23633,1.31836,10.89194,10.89194,0,0,0,2.51367-.26367,10.36185,10.36185,0,0,0,2.23242-.82617,1.26509,1.26509,0,0,1,.63282-.14063,1.43877,1.43877,0,0,1,1.002.4043,1.30661,1.30661,0,0,1,.43945,1.002,1.5391,1.5391,0,0,1-.94922,1.33594,13.25454,13.25454,0,0,1-2.8125,1.17773,12.76743,12.76743,0,0,1-3.33984.36914A8.98852,8.98852,0,0,1,312.26172,33.19141ZM323.42383,24.332a4.65361,4.65361,0,0,0-.84375-2.35547,4.9749,4.9749,0,0,0-1.916-1.6875,5.30986,5.30986,0,0,0-2.373-.5625,5.9758,5.9758,0,0,0-2.35547.52735,4.60278,4.60278,0,0,0-1.95117,1.77539,5.96348,5.96348,0,0,0-.82618,2.75976H323.002A.37194.37194,0,0,0,323.42383,24.332Z"/><path class="a" d="M341.86328,35.002a1.55754,1.55754,0,0,1-.47461-1.14257v-15.082a1.61628,1.61628,0,0,1,.47461-1.16015,1.53019,1.53019,0,0,1,1.14258-.49219,1.68126,1.68126,0,0,1,1.65234,1.65234v1.33594a11.27559,11.27559,0,0,1,2.98828-2.35547,7.47548,7.47548,0,0,1,3.51563-.80859,6.34492,6.34492,0,0,1,3.41016.91406,5.985,5.985,0,0,1,2.16211,2.4961,8.05041,8.05041,0,0,1,.75585,3.51562v9.98438a1.53018,1.53018,0,0,1-.49218,1.14257,1.61628,1.61628,0,0,1-1.16016.47461,1.62043,1.62043,0,0,1-1.61719-1.61718V24.22656q0-4.25391-3.832-4.2539a5.63041,5.63041,0,0,0-3.041.84375,11.15058,11.15058,0,0,0-2.68946,2.49609V33.85938A1.53018,1.53018,0,0,1,344.166,35.002a1.61628,1.61628,0,0,1-1.16016.47461A1.55754,1.55754,0,0,1,341.86328,35.002Z"/><path class="a" d="M365.99805,34.49219a8.20361,8.20361,0,0,1-3.16407-3.33985,10.28474,10.28474,0,0,1-1.125-4.85156,10.36153,10.36153,0,0,1,1.125-4.88672,7.94057,7.94057,0,0,1,3.18164-3.30468,9.45753,9.45753,0,0,1,4.72852-1.16016,9.35956,9.35956,0,0,1,4.71094,1.16016,8.16356,8.16356,0,0,1,3.19922,3.32226,10.25666,10.25666,0,0,1,1.125,4.86914,10.15245,10.15245,0,0,1-1.125,4.85156,8.11447,8.11447,0,0,1-3.2168,3.33985,10.18021,10.18021,0,0,1-9.43945,0Zm7.52343-2.4961a5.16684,5.16684,0,0,0,2.17969-2.16211,7.26888,7.26888,0,0,0,.8086-3.56836,6.768,6.768,0,0,0-.84375-3.58593,5.28859,5.28859,0,0,0-2.05664-2.03907,5.86319,5.86319,0,0,0-2.86524-.70312,6.41469,6.41469,0,0,0-2.77734.63281,5.19061,5.19061,0,0,0-2.17969,2.14453,7.16727,7.16727,0,0,0-.80859,3.55078,6.84433,6.84433,0,0,0,.84375,3.6211,5.22774,5.22774,0,0,0,2.05664,2.07422,5.863,5.863,0,0,0,2.86523.70312A6.13588,6.13588,0,0,0,373.52148,31.99609Z"/><path class="a" d="M394.98438,13.16992a1.75561,1.75561,0,0,1-.54493-1.2832v-.14063A1.86149,1.86149,0,0,1,396.26758,9.918h.21094a1.86148,1.86148,0,0,1,1.82812,1.82812v.14063a1.86148,1.86148,0,0,1-1.82812,1.82812h-.21094A1.75564,1.75564,0,0,1,394.98438,13.16992Zm.21093,21.832a1.55754,1.55754,0,0,1-.47461-1.14257v-15.082a1.61628,1.61628,0,0,1,.47461-1.16015,1.53019,1.53019,0,0,1,1.14258-.49219,1.62144,1.62144,0,0,1,1.65234,1.65234v15.082a1.53018,1.53018,0,0,1-.49218,1.14257,1.61628,1.61628,0,0,1-1.16016.47461A1.55754,1.55754,0,0,1,395.19531,35.002Z"/><path class="a" d="M429.78906,20.42969a8.43844,8.43844,0,0,1,.65039,3.30469v10.125a1.53018,1.53018,0,0,1-.49218,1.14257,1.61628,1.61628,0,0,1-1.16016.47461,1.62043,1.62043,0,0,1-1.61719-1.61718V24.36719a5.40094,5.40094,0,0,0-.82617-3.375,3.31094,3.31094,0,0,0-2.72461-1.01953,4.64347,4.64347,0,0,0-2.84766.86132,9.03685,9.03685,0,0,0-2.17968,2.47852V33.85938a1.53019,1.53019,0,0,1-.49219,1.14257,1.61626,1.61626,0,0,1-1.16016.47461,1.62043,1.62043,0,0,1-1.61718-1.61718V24.36719a5.40087,5.40087,0,0,0-.82618-3.375,3.31094,3.31094,0,0,0-2.72461-1.01953,4.64344,4.64344,0,0,0-2.84765.86132,9.03687,9.03687,0,0,0-2.17969,2.47852V33.85938A1.53015,1.53015,0,0,1,406.252,35.002a1.61624,1.61624,0,0,1-1.16015.47461,1.62043,1.62043,0,0,1-1.61719-1.61718v-15.082a1.61624,1.61624,0,0,1,.47461-1.16015,1.53016,1.53016,0,0,1,1.14258-.49219,1.68128,1.68128,0,0,1,1.65234,1.65234v1.30078a8.405,8.405,0,0,1,2.49609-2.30273,6.69629,6.69629,0,0,1,3.44532-.82617,5.6258,5.6258,0,0,1,3.32226,1.002,5.68611,5.68611,0,0,1,2.05664,2.584,7.09616,7.09616,0,0,1,6.46875-3.58594,5.38284,5.38284,0,0,1,3.33985.98437A5.91629,5.91629,0,0,1,429.78906,20.42969Z"/><path class="a" d="M437.50586,35.01953a4.891,4.891,0,0,1-2.14453-1.86328,5.173,5.173,0,0,1-.77344-2.8125,4.87211,4.87211,0,0,1,2.12695-4.23633,10.32158,10.32158,0,0,1,5.99414-1.49414h4.21875v-.24609a4.31625,4.31625,0,0,0-1.10742-3.28711A5.11134,5.11134,0,0,0,442.252,20.043a12.31721,12.31721,0,0,0-2.28515.19336,18.81945,18.81945,0,0,0-2.39063.65039l-.457.07031a1.28009,1.28009,0,0,1-.93164-.4043,1.31928,1.31928,0,0,1-.4043-.96679,1.38066,1.38066,0,0,1,.94922-1.3711,15.29441,15.29441,0,0,1,6.082-1.26562,8.2321,8.2321,0,0,1,4.14844.98437,6.17109,6.17109,0,0,1,2.42578,2.51368,7.42852,7.42852,0,0,1,.8086,3.46289v9.94922a1.53019,1.53019,0,0,1-.49219,1.14257,1.61628,1.61628,0,0,1-1.16016.47461,1.62043,1.62043,0,0,1-1.61719-1.61718v-.84376a8.7039,8.7039,0,0,1-6.57421,2.63672A6.56887,6.56887,0,0,1,437.50586,35.01953Zm6.97852-2.9707a8.06546,8.06546,0,0,0,2.44335-1.88086V27.25h-3.79687q-5.27344,0-5.27344,2.74219,0,2.77734,3.69141,2.77734A6.4262,6.4262,0,0,0,444.48438,32.04883Z"/><path class="a" d="M459.84766,43.21094a14.11341,14.11341,0,0,1-3.46289-1.30078,1.398,1.398,0,0,1-.668-1.26563,1.46779,1.46779,0,0,1,.42187-1.01953,1.33749,1.33749,0,0,1,1.01953-.457,1.72731,1.72731,0,0,1,.63282.14062,13.07651,13.07651,0,0,0,5.80078,1.33594q5.34375,0,5.34375-5.69531v-2.25a7.84934,7.84934,0,0,1-5.97657,2.60156,8.66952,8.66952,0,0,1-7.3125-4.23633A9.56653,9.56653,0,0,1,454.416,26.125a9.66184,9.66184,0,0,1,1.26562-5.0625,8.373,8.373,0,0,1,3.18164-3.05859,8.49472,8.49472,0,0,1,4.0957-1.05469,7.84934,7.84934,0,0,1,5.97657,2.60156v-.77344a1.61624,1.61624,0,0,1,.47461-1.16015,1.53015,1.53015,0,0,1,1.14257-.49219,1.68128,1.68128,0,0,1,1.65235,1.65234V34.49219q0,4.42968-2.14453,6.83789a7.80683,7.80683,0,0,1-6.15235,2.4082A16.58584,16.58584,0,0,1,459.84766,43.21094Zm6.57422-11.54883a10.45654,10.45654,0,0,0,2.51367-1.916V22.50391a10.45654,10.45654,0,0,0-2.51367-1.916,5.956,5.956,0,0,0-2.79493-.65039,5.844,5.844,0,0,0-4.32422,1.61719,6.18065,6.18065,0,0,0-1.61718,4.57031,6.18065,6.18065,0,0,0,1.61718,4.57031A5.844,5.844,0,0,0,463.627,32.3125,5.956,5.956,0,0,0,466.42188,31.66211Z"/><path class="a" d="M479.00781,33.19141a9.435,9.435,0,0,1-2.4082-6.89063,11.959,11.959,0,0,1,.91406-4.60547,7.65868,7.65868,0,0,1,2.88281-3.48047,8.28473,8.28473,0,0,1,4.64063-1.26562,8.44907,8.44907,0,0,1,4.53516,1.19531,8.14687,8.14687,0,0,1,2.84765,3.2168,9.81094,9.81094,0,0,1,1.01953,4.48242,1.59256,1.59256,0,0,1-1.65234,1.61719H479.9043a5.70082,5.70082,0,0,0,1.88086,3.81445,6.3641,6.3641,0,0,0,4.23632,1.31836,10.892,10.892,0,0,0,2.51368-.26367,10.36185,10.36185,0,0,0,2.23242-.82617,1.265,1.265,0,0,1,.63281-.14063,1.43875,1.43875,0,0,1,1.00195.4043,1.30662,1.30662,0,0,1,.43946,1.002,1.53911,1.53911,0,0,1-.94922,1.33594,13.255,13.255,0,0,1-2.8125,1.17773,12.76756,12.76756,0,0,1-3.33985.36914A8.98852,8.98852,0,0,1,479.00781,33.19141ZM490.16992,24.332a4.65361,4.65361,0,0,0-.84375-2.35547,4.9748,4.9748,0,0,0-1.916-1.6875,5.3099,5.3099,0,0,0-2.37305-.5625,5.9758,5.9758,0,0,0-2.35547.52735,4.60289,4.60289,0,0,0-1.95117,1.77539,5.96335,5.96335,0,0,0-.82617,2.75976h9.84375A.37194.37194,0,0,0,490.16992,24.332Z"/></svg>