<svg xmlns="http://www.w3.org/2000/svg" viewBox="0 0 38.89857 50"><defs><style>.a{fill:none;}.b{fill:#dae235;}.c{fill:#94c43d;}</style></defs><path class="a" d="M7.73384,8.985c2.08038-.00579,4.15773-.791,6.22828-.78792a5.10811,5.10811,0,0,1,3.39144,1.14209,5.10772,5.10772,0,0,0-3.39179-1.14244c-2.0702-.003-4.14755.78216-6.22828.78792a9.39468,9.39468,0,0,1-2.7783-.40131l.00016.00029A9.39548,9.39548,0,0,0,7.73384,8.985Z"/><path class="a" d="M4.95513,8.58354V8.58327l-.00016,0a6.26382,6.26382,0,0,0,1.45187,1.95817A6.26378,6.26378,0,0,1,4.95535,8.58359Z"/><polygon class="a" points="4.955 8.583 4.955 8.583 4.955 8.583 4.955 8.583"/><path class="a" d="M13.33376,11.90468l.00027-.00019c-2.04406-.4883-2.90578-.46468-3.1818-.88191C10.42776,11.4403,11.28914,11.41638,13.33376,11.90468Z"/><path class="a" d="M28.66937,7.14616c.17408-.31761-.19442-.7577-.73735-.56327-.5429.19477-.512,1.53645-.512,1.53645A5.70577,5.70577,0,0,0,28.66937,7.14616Z"/><path class="b" d="M25.05932,22.37091a5.40711,5.40711,0,0,0-2.33862,1.004,2.68768,2.68768,0,0,0-.63419.55752,5.1769,5.1769,0,0,0-1.58159,2.94565,28.74952,28.74952,0,0,0-.10078,4.42172l.00035.00033c2.73936-.017,5.32161.46692,7.39454-1.57648A5.98742,5.98742,0,0,0,29.3694,26.76a30.14831,30.14831,0,0,0,.11062-4.4577A35.87046,35.87046,0,0,0,25.05932,22.37091Z"/><path class="b" d="M13.766,22.39567a32.06743,32.06743,0,0,0-4.52013-.096,30.43712,30.43712,0,0,0,.115,4.41729,5.63718,5.63718,0,0,0,4.53436,4.513,28.72722,28.72722,0,0,0,4.43157.056l.00035-.00035c.095-3.1618.1598-5.43866-1.60264-7.33242A6.18727,6.18727,0,0,0,13.766,22.39567Z"/><path class="c" d="M13.89628,17.28989c.7913.14794,2.51472-2.18865,6.6341-1.61419,3.138.43739,3.64059,2.09873,4.5364,1.49814.36409-.24432.51714-.83746-.21751-1.35017a9.78452,9.78452,0,0,0-6.68769-1.6101l-.00035-.00032a9.69863,9.69863,0,0,0-3.25377.98028,7.78227,7.78227,0,0,0-1.31182.81878A.73384.73384,0,0,0,13.89628,17.28989Z"/><path class="c" d="M23.48657,18.28409a6.936,6.936,0,0,0-8.25472-.01662c-.6637.59041-.03629,1.78788,1.04648,1.04783a5.14921,5.14921,0,0,1,2.23716-.87105l-.00036.00035a5.66044,5.66044,0,0,1,2.80079.29385,4.99094,4.99094,0,0,1,1.04172.53952C23.6491,20.12967,24.01625,18.75778,23.48657,18.28409Z"/><path class="c" d="M16.635,20.70381a.72849.72849,0,0,0,.83813,1.0468,4.20756,4.20756,0,0,0,.66744-.3641,2.32846,2.32846,0,0,1,.83032-.23753h.00035c1.37154-.21885,1.89987.59857,2.39664.62538,1.17236.06346,1.22087-1.84149-1.60873-2.10448C18.74588,19.57588,16.98479,20.0187,16.635,20.70381Z"/><path class="c" d="M17.91624,23.56462a1.47065,1.47065,0,0,0,2.85778.69562A1.47065,1.47065,0,0,0,17.91624,23.56462Z"/><path class="c" d="M36.61088,21.05364A20.05294,20.05294,0,0,0,32.7443,16.07c-3.87234-3.26666-6.26525-4.31348-12.688-5.117.51338-2.51607,3.83909-1.8052,6.308-1.44892.79743,1.78517,2.78652,4.01455,5.47023,3.94226.96742-.02611,1.25144-.83508.54935-1.2582-.37325-.225-3.31755-.12081-4.48007-2.73765.95553-.63795,1.42314-.37056,2.04306-1.38546a1.96928,1.96928,0,0,0-2.92022-2.5965,2.9998,2.9998,0,0,0-1.01455,2.58868c-4.2636-.282-2.92938-.83813-6.40744.69155a8.15543,8.15543,0,0,1,2.11874-5.41323,30.34551,30.34551,0,0,1,2.794,1.25041,2.722,2.722,0,0,0,.813.37869.83963.83963,0,0,0,.79368-.34069c.92058-1.28941-1.78958-1.84828-2.13163-2.27073a4.26691,4.26691,0,0,1-.95858-.377c-.94026-.41125-6.118-2.25378-6.86553-1.94057a3.07738,3.07738,0,0,0-.398.28572l0-.00036c-.13675.39634-.26707.68409.06514,1.06956.26842.31115.46792.28842.95926.40617a13.25267,13.25267,0,0,1,2.10111.59041,4.8103,4.8103,0,0,1,1.10006.323q.16695.055.33018.11062l-.021.03086A10.388,10.388,0,0,0,18.25014,8.1838c-4.75765-2.84522-6.78-.36715-11.1756-.59787-1.60194-.08416-2.699-1.08518-3.60192-.90464-.76821.76754-.40177,1.34711.10757,2.32842,1.8286,3.52184,4.63717,4.116,5.61478,4.86455L6.69518,15.786a19.9693,19.9693,0,0,0-5.43731,7.84038A19.55384,19.55384,0,0,0,10.2808,47.71219a20.04309,20.04309,0,0,0,14.90576,1.48522C36.98449,45.54868,42.2925,32.51426,36.61088,21.05364ZM27.932,6.58289c.54293-.19443.91143.24566.73735.56327A5.70577,5.70577,0,0,1,27.42,8.11934S27.38912,6.77766,27.932,6.58289Zm-19.4537,5.4003a9.15246,9.15246,0,0,1-2.07148-1.44178A6.26382,6.26382,0,0,1,4.955,8.58324l-.00019,0V8.58286l.00019.00038.00016,0V8.58319l.00006.00011a9.39468,9.39468,0,0,0,2.7783.40131c2.08073-.00576,4.15808-.791,6.22828-.78792a5.10772,5.10772,0,0,1,3.39179,1.14244,2.5288,2.5288,0,0,1,.85145,1.69634c-1.91922.07738-2.283.42315-4.37421.01968-.95383-.18424-3.1211-.91345-3.78108-.63214a.964.964,0,0,0,.10251.59957c.276.41723,1.13774.39361,3.1818.88191l-.00027.00019.0006.00014C11.5821,13.13215,10.24007,12.88378,8.47832,11.98319ZM30.29677,45.12113c-.49141.35026-1.01912.68341-1.56913,1.00164a12.77321,12.77321,0,0,0-6.36771-3.65459l.00246-1.02361c1.446-.23467,2.61509.23518,4.35849-.80795V38.02037a1.06487,1.06487,0,1,1,.54768.00357V40.269a5.71467,5.71467,0,0,0,2.15819-3.82439,29.94768,29.94768,0,0,0,.039-4.02877c-2.13229.095-4.06068-.3468-5.94223.57174-3.608,1.762-3.2221,5.54208-3.14358,9.18078-.30872-.02229-.61933-.03772-.93373-.03772-.4139,0-.82221.02305-1.226.06148.07732-3.646.47279-7.43875-3.14307-9.20454-1.88155-.91854-3.80991-.47674-5.94224-.57174a29.94933,29.94933,0,0,0,.039,4.02877c.00686.06686.02292.13291.03259.19958V36.618h3.34a1.06487,1.06487,0,1,1-.00357.54765H9.30883a5.72642,5.72642,0,0,0,2.086,3.15434c2.02171,1.4557,3.267.86867,4.84349,1.12453l.00263,1.095a12.77616,12.77616,0,0,0-6.03286,3.542,18.76821,18.76821,0,0,1-3.1318-2.38123c-2.33488-2.565-4.09768-4.62293-5.08-8.5177-.63182-2.50521-1.417-7.63612.832-11.80367H2.82792c2.16181-5.94937,8.77556-10.4413,15.55217-10.99236,4.63922-.377,11.1023,2.03084,13.43516,4.77833,1.11569,1.31419,3.19948,3.02167,3.55914,4.72609C39.0659,29.88622,36.75307,40.51957,30.29677,45.12113Z"/><polygon class="b" points="4.955 8.584 4.955 8.583 4.955 8.583 4.955 8.584 4.955 8.584"/><path class="b" d="M13.33376,11.90468c-2.04462-.4883-2.906-.46438-3.18153-.8821a.9628.9628,0,0,1-.10286-.59992c.66-.28129,2.82725.44825,3.78108.63216,2.09124.40345,2.455.05768,4.37421-.01967a2.5287,2.5287,0,0,0-.8511-1.696A5.10811,5.10811,0,0,0,13.96212,8.197c-2.07055-.003-4.1479.78213-6.22828.78792a9.39548,9.39548,0,0,1-2.77849-.40137,6.26378,6.26378,0,0,0,1.45149,1.95782A9.15371,9.15371,0,0,0,8.478,11.98287C10.23964,12.88338,11.58132,13.13183,13.33376,11.90468Z"/><polygon class="b" points="4.955 8.583 4.955 8.583 4.955 8.583 4.955 8.583"/><path class="b" d="M13.83045,11.05482c-.95383-.18391-3.1211-.91345-3.78108-.63216a.9628.9628,0,0,0,.10286.59992.964.964,0,0,1-.10251-.59957c.66-.28131,2.82725.4479,3.78108.63214,2.09124.40347,2.455.0577,4.37421-.01968a2.5288,2.5288,0,0,0-.85145-1.69634,2.5287,2.5287,0,0,1,.8511,1.696C16.28546,11.1125,15.92169,11.45827,13.83045,11.05482Z"/><path class="b" d="M13.33436,11.90482l-.0006-.00014c-1.75244,1.22715-3.09412.9787-4.85579.07819a9.15371,9.15371,0,0,1-2.07113-1.44146,9.15246,9.15246,0,0,0,2.07148,1.44178C10.24007,12.88378,11.5821,13.13215,13.33436,11.90482Z"/></svg>