<svg xmlns="http://www.w3.org/2000/svg" viewBox="0 0 100 130"><defs><style>.a{fill:#fff;}</style></defs><path class="a" d="M27.41155,17.32382c4.01117-.01115,8.01649-1.52506,12.00869-1.51917a9.84884,9.84884,0,0,1,6.539,2.202A9.84811,9.84811,0,0,0,39.41956,15.804c-3.99152-.00589-7.99684,1.50807-12.00869,1.51917a18.11338,18.11338,0,0,1-5.35681-.77376l.00031.00057A18.11463,18.11463,0,0,0,27.41155,17.32382Z"/><path class="a" d="M22.054,16.54985v-.00052l-.00031-.00005A12.07724,12.07724,0,0,0,24.853,20.32481,12.07726,12.07726,0,0,1,22.05437,16.55Z"/><polygon class="a" points="22.053 16.549 22.054 16.549 22.053 16.549 22.053 16.549"/><path class="a" d="M38.20872,22.95332l.00052-.00036c-3.94113-.9415-5.60262-.896-6.1348-1.70041C32.60569,22.05794,34.26649,22.01182,38.20872,22.95332Z"/><path class="a" d="M67.77718,13.77845c.33563-.61238-.37487-1.46091-1.42168-1.086-1.04676.37554-.98725,2.96242-.98725,2.96242A11.00146,11.00146,0,0,0,67.77718,13.77845Z"/><path class="a" d="M60.81666,43.13316a10.42555,10.42555,0,0,0-4.50906,1.93589,5.18143,5.18143,0,0,0-1.22278,1.075,9.98156,9.98156,0,0,0-3.04945,5.67947,55.43,55.43,0,0,0-.19431,8.52549l.00068.00063c5.28173-.03267,10.26055.90028,14.25733-3.0396a11.54409,11.54409,0,0,0,3.02782-5.71418,58.12594,58.12594,0,0,0,.21328-8.59485C66.73631,43.069,63.2616,42.717,60.81666,43.13316Z"/><path class="a" d="M39.04209,43.1809c-2.52081-.46257-6.04132-.12955-8.71522-.18515.00391,2.37949-.1904,6.31479.22178,8.517a10.869,10.869,0,0,0,8.74267,8.70146,55.3882,55.3882,0,0,0,8.54446.108l.00068-.00068c.18316-6.09624.30812-10.48623-3.09-14.13759A11.92967,11.92967,0,0,0,39.04209,43.1809Z"/><path class="a" d="M39.29331,33.33648c1.52568.28525,4.8486-4.21991,12.79115-3.11229,6.05043.84333,7.01939,4.04655,8.74659,2.88854.702-.47106.99709-1.61469-.41937-2.60324a18.86552,18.86552,0,0,0-12.89449-3.10443l-.00068-.00062A18.7,18.7,0,0,0,41.243,29.29452a15.00408,15.00408,0,0,0-2.5293,1.57869A1.41488,1.41488,0,0,0,39.29331,33.33648Z"/><path class="a" d="M57.78426,35.2534a13.63488,13.63488,0,0,0-6.44235-2.55285c-3.38768-.42395-7.54215.80273-9.4735,2.52081-1.27968,1.13836-.07,3.44719,2.0177,2.0203a9.92835,9.92835,0,0,1,4.31344-1.67946l-.00067.00068a10.91378,10.91378,0,0,1,5.40017.56657,9.6229,9.6229,0,0,1,2.00852,1.04025C58.09764,38.81185,58.80553,36.16671,57.78426,35.2534Z"/><path class="a" d="M44.57373,39.91884a1.40461,1.40461,0,0,0,1.616,2.01833,8.1115,8.1115,0,0,0,1.28688-.702,4.489,4.489,0,0,1,1.60093-.458h.00068c2.64446-.422,3.66313,1.1541,4.62094,1.20579,2.26042.12235,2.35395-3.55058-3.10177-4.05764C48.64378,37.74409,45.24823,38.59789,44.57373,39.91884Z"/><path class="a" d="M47.04415,45.43475c-.91138,3.53755,4.549,5.06975,5.51007,1.34122C53.47013,43.22144,47.99544,41.74353,47.04415,45.43475Z"/><path class="a" d="M83.08914,40.59334A38.66393,38.66393,0,0,0,75.634,30.98446c-7.46623-6.29842-12.08-8.3168-24.46354-9.866.98986-4.85121,7.40214-3.48059,12.16241-2.79365,1.53752,3.442,5.37266,7.74043,10.5471,7.601,1.86528-.05034,2.41289-1.61011,1.05921-2.42592-.71967-.43381-6.39654-.23293-8.638-5.27845,1.84235-1.23,2.74394-.71446,3.9392-2.67129,2.267-3.71154-1.8201-7.74037-5.63044-5.00629-1.3752.98658-1.93588,2.69548-1.95615,4.99123-8.22061-.54365-5.64811-1.616-12.35412,1.33335.32317-6.68376,3.01083-8.75774,4.0851-10.4372a58.51337,58.51337,0,0,1,5.387,2.41091,5.24813,5.24813,0,0,0,1.56759.73015,1.61887,1.61887,0,0,0,1.53027-.65688c1.775-2.4861-3.45047-3.56366-4.11-4.37817a8.22779,8.22779,0,0,1-1.84824-.72691C55.09858,3.0174,45.11545-.53516,43.67413.06873a5.936,5.936,0,0,0-.76746.55089l.00005-.00068c-.26366.76418-.51493,1.319.12559,2.0622.51754.59993.90221.55611,1.84954.78314A25.54932,25.54932,0,0,1,48.933,4.60265a9.27379,9.27379,0,0,1,2.121.62285q.32187.106.63661.21328L51.65,5.49829A20.02885,20.02885,0,0,0,47.688,15.77911c-9.1732-5.48584-13.07249-.70789-21.54759-1.15274-3.08868-.16227-5.20388-2.09232-6.94483-1.74424-1.48118,1.47989-.77464,2.59736.2074,4.48942,3.52572,6.79043,8.9409,7.936,10.82582,9.37929l-4.81984,3.686c-4.03018,3.13517-8.71324,10.02434-10.48363,15.117-3.34057,9.60893-3.41254,19.206.929,28.76328a37.23572,37.23572,0,0,0,16.468,17.67638C40.09411,96.354,51.49693,97.815,61.062,94.85711,83.80949,87.822,94.04383,62.69047,83.08914,40.59334ZM66.3555,12.69241c1.04681-.37487,1.75731.47366,1.42168,1.086a11.00146,11.00146,0,0,1-2.40893,1.87638S65.30874,13.068,66.3555,12.69241ZM28.847,23.1047a17.64742,17.64742,0,0,1-3.994-2.77989,12.07724,12.07724,0,0,1-2.79933-3.77553l-.00037-.00011v-.00062l.00037.00073.00031.00005v-.00016l.00011.00021a18.11338,18.11338,0,0,0,5.35681.77376c4.01185-.0111,8.01717-1.52506,12.00869-1.51917a9.84811,9.84811,0,0,1,6.53969,2.20273,4.87573,4.87573,0,0,1,1.64168,3.2707c-3.70044.14919-4.40177.81587-8.43388.03794-1.83907-.35522-6.01777-1.76122-7.29026-1.21882a1.85858,1.85858,0,0,0,.19765,1.156c.53218.80445,2.19367.75891,6.1348,1.70041l-.00052.00036.00114.00026C34.83135,25.32,32.24379,24.84111,28.847,23.1047Zm42.068,63.893c-.94749.67532-1.965,1.31767-3.02543,1.93124A24.62791,24.62791,0,0,0,55.612,81.88254l.00475-1.97362c2.788-.45246,5.04213.45345,8.40355-1.55778V73.30676a2.05316,2.05316,0,1,1,1.056.00688v4.32877a11.01842,11.01842,0,0,0,4.16119-7.37379,57.74254,57.74254,0,0,0,.07524-7.76783c-4.11126.18316-7.82937-.66866-11.45717,1.10236-6.95655,3.39722-6.21249,10.68565-6.06112,17.7014-.59523-.043-1.19412-.07275-1.8003-.07275-.798,0-1.5853.04445-2.36391.11855.14909-7.02987.91159-14.34258-6.06012-17.7472-3.6278-1.771-7.34586-.9192-11.45718-1.10236a57.74254,57.74254,0,0,0,.07525,7.76783c.01323.12892.04419.25627.06284.38482V70.603h6.43974a2.05319,2.05319,0,1,1-.00688,1.05593H30.44828a11.04109,11.04109,0,0,0,4.0219,6.08186c3.898,2.80672,6.2991,1.67487,9.3387,2.16818l.00506,2.11134A24.6336,24.6336,0,0,0,32.182,88.84962a36.18757,36.18757,0,0,1-6.0384-4.59124c-4.50187-4.94547-7.9007-8.91344-9.79475-16.42292-1.21819-4.83026-2.7321-14.72313,1.60422-22.75854h-.00063c4.16817-11.47093,16.92009-20.1318,29.986-21.19429,8.94486-.72687,21.40627,3.91565,25.90423,9.21306,2.15115,2.53389,6.16888,5.82606,6.86234,9.11234C87.82263,57.62337,83.36328,78.12545,70.915,86.99768Z"/><polygon class="a" points="22.054 16.55 22.054 16.549 22.054 16.549 22.054 16.55 22.054 16.55"/><polygon class="a" points="22.054 16.549 22.054 16.549 22.054 16.549 22.054 16.549"/><path class="a" d="M39.16637,21.31471c-1.83907-.35459-6.01776-1.76121-7.29026-1.21887a1.85635,1.85635,0,0,0,.19833,1.15671,1.85858,1.85858,0,0,1-.19765-1.156c1.27249-.5424,5.45119.8636,7.29026,1.21882,4.03211.77793,4.73344.11125,8.43388-.03794a4.87573,4.87573,0,0,0-1.64168-3.2707,4.87541,4.87541,0,0,1,1.641,3.27008C43.89986,21.42591,43.19848,22.09259,39.16637,21.31471Z"/><path class="a" d="M.14314,127.68058a.32978.32978,0,0,1-.14281-.28661.34449.34449,0,0,1,.09661-.23991.31364.31364,0,0,1,.24-.105.334.334,0,0,1,.15174.03359,3.16592,3.16592,0,0,0,.556.18951,2.58532,2.58532,0,0,0,.58911.063q.927,0,.92672-.58956a.31248.31248,0,0,0-.20215-.28611,4.19988,4.19988,0,0,0-.70724-.22731,5.15309,5.15309,0,0,1-.817-.24411,1.32572,1.32572,0,0,1-.58123-.40423,1.02084,1.02084,0,0,1-.21894-.66514,1.20791,1.20791,0,0,1,.43789-.96858,1.82209,1.82209,0,0,1,1.21287-.37063A3.38537,3.38537,0,0,1,2.906,123.79a.33818.33818,0,0,1,.15122.56855.32471.32471,0,0,1-.24415.105l-.10921-.01679a3.35489,3.35489,0,0,0-.96032-.1512,1.32835,1.32835,0,0,0-.69884.15959.48007.48007,0,0,0-.26148.421.38442.38442,0,0,0,.22788.36224,4.43779,4.43779,0,0,0,.73244.22731q.45442.1181.80858.24411a1.26521,1.26521,0,0,1,.5555.40843,1.09119,1.09119,0,0,1,.21054.68614,1.10835,1.10835,0,0,1-.43788.90138,1.85051,1.85051,0,0,1-1.19555.35331A3.21564,3.21564,0,0,1,.14314,127.68058Z"/><path class="a" d="M4.44278,127.90372a.37263.37263,0,0,1-.11392-.274v-5.46446a.38716.38716,0,0,1,.11392-.27823.36721.36721,0,0,1,.27356-.1176.40262.40262,0,0,1,.39589.39583v2.17235a2.697,2.697,0,0,1,.71564-.56435,1.79116,1.79116,0,0,1,.84219-.19372,1.52035,1.52035,0,0,1,.817.21892,1.438,1.438,0,0,1,.51823.59791,1.93447,1.93447,0,0,1,.18061.84206v2.39125a.36817.36817,0,0,1-.11761.274.39023.39023,0,0,1-.66527-.274v-2.30732q0-1.01818-.91832-1.01845a1.34605,1.34605,0,0,0-.72825.20211,2.66118,2.66118,0,0,0-.64422.59743v2.52617a.3668.3668,0,0,1-.11814.274.38776.38776,0,0,1-.27775.11339A.37311.37311,0,0,1,4.44278,127.90372Z"/><path class="a" d="M9.52055,122.67445a.42013.42013,0,0,1-.13021-.30763v-.03361a.44567.44567,0,0,1,.43789-.43782h.05041a.44567.44567,0,0,1,.43789.43782v.03361a.44565.44565,0,0,1-.43789.43835H9.82823A.42077.42077,0,0,1,9.52055,122.67445Zm.05093,5.22922a.3727.3727,0,0,1-.11394-.274v-3.6123a.386.386,0,0,1,.11394-.27771.3658.3658,0,0,1,.27355-.11812.38917.38917,0,0,1,.39589.38234q.00012.00674,0,.01349v3.61235a.3668.3668,0,0,1-.11814.274.38774.38774,0,0,1-.27775.11339.37314.37314,0,0,1-.27355-.11339Z"/><path class="a" d="M11.66854,127.90372a.37261.37261,0,0,1-.11394-.274v-3.61235a.386.386,0,0,1,.11394-.27771.36577.36577,0,0,1,.27355-.11812.40355.40355,0,0,1,.39588.39583v.32024a2.69732,2.69732,0,0,1,.71565-.56434,1.79087,1.79087,0,0,1,.84217-.19372,1.52038,1.52038,0,0,1,.817.21891,1.438,1.438,0,0,1,.51822.59791,1.93452,1.93452,0,0,1,.18062.84207v2.39125a.36827.36827,0,0,1-.11761.274.39025.39025,0,0,1-.66528-.274v-2.30733q0-1.01818-.91832-1.01845a1.346,1.346,0,0,0-.72824.20211,2.66127,2.66127,0,0,0-.64424.59743v2.52617a.36686.36686,0,0,1-.11813.274.38778.38778,0,0,1-.27776.11339A.37311.37311,0,0,1,11.66854,127.90372Z"/><path class="a" d="M16.79776,127.90372a.3726.3726,0,0,1-.11393-.274v-3.61235a.386.386,0,0,1,.11393-.27771.36577.36577,0,0,1,.27354-.11812.40355.40355,0,0,1,.39589.39583v.32024a2.69716,2.69716,0,0,1,.71565-.56434,1.79091,1.79091,0,0,1,.84218-.19372,1.5204,1.5204,0,0,1,.817.21891,1.43806,1.43806,0,0,1,.51823.59791,1.93465,1.93465,0,0,1,.18061.84207v2.39125a.3682.3682,0,0,1-.11761.274.39025.39025,0,0,1-.66528-.274v-2.30733q0-1.01818-.91832-1.01845a1.346,1.346,0,0,0-.72824.20211,2.66127,2.66127,0,0,0-.64424.59743v2.52617a.36679.36679,0,0,1-.11813.274.38778.38778,0,0,1-.27776.11339A.373.373,0,0,1,16.79776,127.90372Z"/><path class="a" d="M22.23362,127.90792a1.17284,1.17284,0,0,1-.51351-.44622,1.237,1.237,0,0,1-.18534-.67407,1.16564,1.16564,0,0,1,.50929-1.01425,2.47137,2.47137,0,0,1,1.436-.358h1.01072v-.0588a1.03489,1.03489,0,0,0-.26515-.78745,1.22682,1.22682,0,0,0-.85532-.24831,2.94267,2.94267,0,0,0-.54709.04619,4.53218,4.53218,0,0,0-.57283.15592l-.1092.01679a.30551.30551,0,0,1-.22316-.09711.3154.3154,0,0,1-.09713-.23152.33068.33068,0,0,1,.22734-.32811,3.66356,3.66356,0,0,1,1.457-.30343,1.975,1.975,0,0,1,.99392.23571,1.48557,1.48557,0,0,1,.58123.60214,1.78588,1.78588,0,0,1,.19322.82947v2.38285a.36627.36627,0,0,1-.1176.274.39022.39022,0,0,1-.66524-.27348v-.20262a2.0857,2.0857,0,0,1-1.57515.63155A1.57558,1.57558,0,0,1,22.23362,127.90792Zm1.67175-.7119a1.9294,1.9294,0,0,0,.58544-.45043v-.69874h-.90992q-1.26325,0-1.26274.65675,0,.6654.88419.66514a1.535,1.535,0,0,0,.703-.17269Z"/><path class="a" d="M26.65923,127.90372a.37257.37257,0,0,1-.11394-.274v-3.61235a.386.386,0,0,1,.11394-.27771.36574.36574,0,0,1,.27355-.11812.40357.40357,0,0,1,.39589.39583v.32024a2.69659,2.69659,0,0,1,.71565-.56434,1.79087,1.79087,0,0,1,.84217-.19372,1.5204,1.5204,0,0,1,.817.21891,1.438,1.438,0,0,1,.51822.59791,1.93438,1.93438,0,0,1,.18062.84207v2.39125a.36822.36822,0,0,1-.1176.274.39025.39025,0,0,1-.66529-.274v-2.30731q0-1.01818-.9183-1.01845a1.34588,1.34588,0,0,0-.72825.20211,2.66127,2.66127,0,0,0-.64424.59743v2.52617a.3668.3668,0,0,1-.11814.274.38774.38774,0,0,1-.27775.11339A.373.373,0,0,1,26.65923,127.90372Z"/><path class="a" d="M34.26358,122.67445a.42009.42009,0,0,1-.13021-.30763v-.03361a.44567.44567,0,0,1,.43789-.43782h.0504a.44568.44568,0,0,1,.4379.43782v.03361a.44567.44567,0,0,1-.4379.43835h-.0504A.42076.42076,0,0,1,34.26358,122.67445Zm.05093,5.22922a.37261.37261,0,0,1-.11394-.274v-3.6123a.386.386,0,0,1,.11394-.27771.36574.36574,0,0,1,.27355-.11812.38919.38919,0,0,1,.39589.38236q.00012.00673,0,.01347v3.61235a.3668.3668,0,0,1-.11814.274.38774.38774,0,0,1-.27775.11339.373.373,0,0,1-.27355-.11339Z"/><path class="a" d="M36.41156,127.90372a.37264.37264,0,0,1-.11393-.274v-3.61235a.386.386,0,0,1,.11393-.27771.36579.36579,0,0,1,.27355-.11812.40356.40356,0,0,1,.39589.39583v.32024a2.69691,2.69691,0,0,1,.71565-.56434,1.79091,1.79091,0,0,1,.84218-.19372,1.52049,1.52049,0,0,1,.817.21891,1.438,1.438,0,0,1,.51821.59791,1.93438,1.93438,0,0,1,.18062.84207v2.39125a.3682.3682,0,0,1-.11761.274.39025.39025,0,0,1-.66528-.274v-2.30733q0-1.01818-.91831-1.01845a1.34608,1.34608,0,0,0-.72825.20211,2.66127,2.66127,0,0,0-.64424.59743v2.52617a.36676.36676,0,0,1-.11814.274.38774.38774,0,0,1-.27775.11339A.3731.3731,0,0,1,36.41156,127.90372Z"/><path class="a" d="M43.62472,127.38557a.299.299,0,0,1,.0924.21891.335.335,0,0,1-.20214.30344,1.65032,1.65032,0,0,1-.69885.15119q-1.23807,0-1.23807-1.11977v-2.55977H41.157a.33738.33738,0,1,1,0-.67354h.42108v-.59791a.38845.38845,0,0,1,.10553-.29451.4.4,0,0,1,.29036-.10133.37931.37931,0,0,1,.28668.10553.40193.40193,0,0,1,.10081.29031v.59791h.943a.33007.33007,0,0,1,.33708.3229c.00009.00453.0001.00907,0,.0136a.33277.33277,0,0,1-.09661.23624.32032.32032,0,0,1-.24047.1008h-.943v2.49262a.47153.47153,0,0,0,.13494.39583.67057.67057,0,0,0,.40429.1008,1.11381,1.11381,0,0,0,.33656-.05039.0333.0333,0,0,0,.0252-.0084.76617.76617,0,0,1,.14334-.01681A.3011.3011,0,0,1,43.62472,127.38557Z"/><path class="a" d="M44.79977,127.47009a2.25952,2.25952,0,0,1-.577-1.65052,2.86249,2.86249,0,0,1,.219-1.103,1.83477,1.83477,0,0,1,.69043-.83367,1.98462,1.98462,0,0,1,1.11154-.30343,2.02425,2.02425,0,0,1,1.08686.28663,1.95133,1.95133,0,0,1,.682.77014,2.351,2.351,0,0,1,.24415,1.07357.38142.38142,0,0,1-.37511.38765c-.00692.00011-.01386,0-.02078-.00022H45.01452a1.36318,1.36318,0,0,0,.4505.91346,1.52394,1.52394,0,0,0,1.01492.316,2.61094,2.61094,0,0,0,.6017-.063,2.50576,2.50576,0,0,0,.535-.19791.30226.30226,0,0,1,.15174-.03361.34462.34462,0,0,1,.24.0966.31365.31365,0,0,1,.105.24.36894.36894,0,0,1-.22735.32023,3.16671,3.16671,0,0,1-.67364.282,3.06493,3.06493,0,0,1-.80017.08819A2.1533,2.1533,0,0,1,44.79977,127.47009Zm2.67356-2.12195a1.1157,1.1157,0,0,0-.20214-.56435,1.19314,1.19314,0,0,0-.4589-.40422,1.27161,1.27161,0,0,0-.56862-.13492,1.43381,1.43381,0,0,0-.56391.12652,1.10088,1.10088,0,0,0-.4673.42522,1.42249,1.42249,0,0,0-.198.6609h2.358a.08868.08868,0,0,0,.10087-.10915Z"/><path class="a" d="M49.36456,127.90372a.37264.37264,0,0,1-.11393-.274v-5.46446a.38722.38722,0,0,1,.11393-.27823.3672.3672,0,0,1,.27356-.1176.38834.38834,0,0,1,.39589.38063q.00015.0076,0,.0152v5.46446a.3668.3668,0,0,1-.11814.274.38774.38774,0,0,1-.27775.11339A.3731.3731,0,0,1,49.36456,127.90372Z"/><path class="a" d="M51.46114,127.90372a.37265.37265,0,0,1-.11394-.274v-5.46446a.38714.38714,0,0,1,.11394-.27823.36718.36718,0,0,1,.27355-.1176.38833.38833,0,0,1,.39589.38061q.00014.00762,0,.01522v5.46446a.36683.36683,0,0,1-.11814.274.38775.38775,0,0,1-.27776.11339A.3731.3731,0,0,1,51.46114,127.90372Z"/><path class="a" d="M53.50722,122.67445a.42009.42009,0,0,1-.13021-.30763v-.03361a.44567.44567,0,0,1,.43789-.43782h.0504a.44567.44567,0,0,1,.43789.43782v.03361a.44565.44565,0,0,1-.43789.43835h-.0504A.42074.42074,0,0,1,53.50722,122.67445Zm.05092,5.22922a.37269.37269,0,0,1-.11393-.274v-3.6123a.386.386,0,0,1,.11393-.27771.36579.36579,0,0,1,.27356-.11812.38916.38916,0,0,1,.39588.38234q.00012.00674,0,.01349v3.61235a.36679.36679,0,0,1-.11813.274.38778.38778,0,0,1-.27776.11339.37309.37309,0,0,1-.27356-.11339Z"/><path class="a" d="M56.5814,129.86975a3.38009,3.38009,0,0,1-.82958-.31131.33577.33577,0,0,1-.16014-.30343.35243.35243,0,0,1,.10134-.24411.32008.32008,0,0,1,.24414-.10973.41487.41487,0,0,1,.15174.03413,3.13427,3.13427,0,0,0,1.38929.31971q1.28059,0,1.28006-1.36389V127.352a1.87847,1.87847,0,0,1-1.43128.62315,2.07641,2.07641,0,0,1-1.75209-1.01478,2.55026,2.55026,0,0,1,.0084-2.39546,2.00282,2.00282,0,0,1,.76238-.73289,2.03854,2.03854,0,0,1,.98131-.25251,1.88027,1.88027,0,0,1,1.43129.62314v-.18529a.38815.38815,0,0,1,.11394-.27771.36577.36577,0,0,1,.27355-.11812.40355.40355,0,0,1,.39588.39583v3.76407a2.38328,2.38328,0,0,1-.51349,1.63792,1.87178,1.87178,0,0,1-1.47382.57691A3.98453,3.98453,0,0,1,56.5814,129.86975Zm1.57463-2.76609a2.50279,2.50279,0,0,0,.60222-.45883v-1.73451a2.5055,2.5055,0,0,0-.60222-.45935,1.42991,1.42991,0,0,0-.66944-.1554,1.40215,1.40215,0,0,0-1.03592.38694,1.74228,1.74228,0,0,0,0,2.18968,1.40037,1.40037,0,0,0,1.03592.38743A1.42387,1.42387,0,0,0,58.156,127.10366Z"/><path class="a" d="M61.17139,127.47009a2.25943,2.25943,0,0,1-.577-1.65052,2.86244,2.86244,0,0,1,.21895-1.103,1.83475,1.83475,0,0,1,.69045-.83367,1.98462,1.98462,0,0,1,1.11152-.30343,2.0241,2.0241,0,0,1,1.08685.28663,1.95126,1.95126,0,0,1,.682.77014,2.35116,2.35116,0,0,1,.24415,1.07357.38144.38144,0,0,1-.37513.38765q-.01038.00017-.02076-.00022H61.3861a1.36318,1.36318,0,0,0,.4505.91346,1.524,1.524,0,0,0,1.01493.316,2.61094,2.61094,0,0,0,.6017-.063,2.50576,2.50576,0,0,0,.535-.19791.30215.30215,0,0,1,.15174-.03361.34462.34462,0,0,1,.24.0966.31365.31365,0,0,1,.105.24.369.369,0,0,1-.22735.32023,3.16744,3.16744,0,0,1-.67364.282,3.06493,3.06493,0,0,1-.80017.08819A2.15327,2.15327,0,0,1,61.17139,127.47009Zm2.67356-2.12195a1.11572,1.11572,0,0,0-.20215-.56435,1.19311,1.19311,0,0,0-.45889-.40422,1.27153,1.27153,0,0,0-.56864-.13492,1.43393,1.43393,0,0,0-.5639.12652,1.10077,1.10077,0,0,0-.4673.42522,1.42272,1.42272,0,0,0-.19795.6609h2.358a.0887.0887,0,0,0,.10084-.10915Z"/><path class="a" d="M65.73618,127.90372a.37264.37264,0,0,1-.11393-.274v-3.61235a.386.386,0,0,1,.11393-.27771.36575.36575,0,0,1,.27355-.11812.40356.40356,0,0,1,.39589.39583v.32024a2.69691,2.69691,0,0,1,.71565-.56434,1.79091,1.79091,0,0,1,.84218-.19372,1.52031,1.52031,0,0,1,.817.21891,1.438,1.438,0,0,1,.51822.59791,1.93438,1.93438,0,0,1,.18062.84207v2.39125a.3682.3682,0,0,1-.11761.274.39025.39025,0,0,1-.66528-.274v-2.30733q0-1.01818-.91832-1.01845a1.346,1.346,0,0,0-.72824.20211,2.66127,2.66127,0,0,0-.64424.59743v2.52617a.3668.3668,0,0,1-.11814.274.38774.38774,0,0,1-.27775.11339A.37308.37308,0,0,1,65.73618,127.90372Z"/><path class="a" d="M71.62673,127.7898a2.05926,2.05926,0,0,1-.83379-.79166,2.44824,2.44824,0,0,1,.0084-2.37446,2.09825,2.09825,0,0,1,.81279-.77014,2.54391,2.54391,0,0,1,1.8739-.16851,3.12828,3.12828,0,0,1,.64.29871.35646.35646,0,0,1,.16854.30343.34137.34137,0,0,1-.10133.23571.30254.30254,0,0,1-.22735.1092.4215.4215,0,0,1-.18535-.0504,3.07156,3.07156,0,0,0-.48829-.21051,1.66988,1.66988,0,0,0-.47989-.05881,1.53589,1.53589,0,0,0-1.12413.40844,1.65641,1.65641,0,0,0,0,2.19754,1.53584,1.53584,0,0,0,1.12413.40843,1.66953,1.66953,0,0,0,.47989-.0588,3.12232,3.12232,0,0,0,.48829-.21051.42281.42281,0,0,1,.18535-.05092.30317.30317,0,0,1,.22735.10971.34139.34139,0,0,1,.10133.23572.35713.35713,0,0,1-.16854.30343,3.12934,3.12934,0,0,1-.64.29871,2.36757,2.36757,0,0,1-.74085.105A2.40884,2.40884,0,0,1,71.62673,127.7898Z"/><path class="a" d="M75.522,127.47009a2.25952,2.25952,0,0,1-.577-1.65052,2.86249,2.86249,0,0,1,.219-1.103,1.83473,1.83473,0,0,1,.69044-.83367,1.98457,1.98457,0,0,1,1.11153-.30343,2.02425,2.02425,0,0,1,1.08686.28663,1.95128,1.95128,0,0,1,.682.77014,2.35109,2.35109,0,0,1,.24415,1.0736.38142.38142,0,0,1-.37511.38764c-.00692.00012-.01386,0-.02078-.00022h-2.8463a1.36314,1.36314,0,0,0,.4505.91346,1.524,1.524,0,0,0,1.01492.316,2.61149,2.61149,0,0,0,.6017-.063,2.50633,2.50633,0,0,0,.535-.19792.30214.30214,0,0,1,.15174-.0336.34457.34457,0,0,1,.24.09659.31367.31367,0,0,1,.105.24.36894.36894,0,0,1-.22735.32023,3.16671,3.16671,0,0,1-.67364.282,3.06494,3.06494,0,0,1-.80017.0882A2.15331,2.15331,0,0,1,75.522,127.47009Zm2.67356-2.12195a1.11561,1.11561,0,0,0-.20214-.56435,1.19314,1.19314,0,0,0-.4589-.40422,1.27161,1.27161,0,0,0-.56862-.13492,1.43381,1.43381,0,0,0-.56391.12652,1.1008,1.1008,0,0,0-.46729.42522,1.42239,1.42239,0,0,0-.198.6609h2.358a.08869.08869,0,0,0,.1009-.10915Z"/><path class="a" d="M82.93318,127.90372a.37417.37417,0,0,1-.11342-.274v-3.2921h-.48882a.3367.3367,0,0,1-.23575-.57692.3304.3304,0,0,1,.23575-.09659h.48882v-.48035a1.64908,1.64908,0,0,1,.18536-.83366,1.11618,1.11618,0,0,1,.45889-.46723,1.30623,1.30623,0,0,1,.62744-.15591,1.68368,1.68368,0,0,1,.73245.16851.3474.3474,0,0,1,.20214.30344.32331.32331,0,0,1-.0966.22731.30138.30138,0,0,1-.22314.1008.79871.79871,0,0,1-.19376-.0252l-.22734-.02521a.69262.69262,0,0,0-.52662.16853.82085.82085,0,0,0-.15595.56381v.45515H84.647a.33089.33089,0,0,1,.33706.3246q.00012.006,0,.01191a.32991.32991,0,0,1-.09714.23571.31775.31775,0,0,1-.23994.10133H83.60262v3.29211a.36821.36821,0,0,1-.11762.274.389.389,0,0,1-.27827.1134A.374.374,0,0,1,82.93318,127.90372Z"/><path class="a" d="M86.00262,127.90792a1.17287,1.17287,0,0,1-.5135-.44622,1.23706,1.23706,0,0,1-.18534-.67407,1.16564,1.16564,0,0,1,.50929-1.01425,2.47139,2.47139,0,0,1,1.436-.358H88.2598v-.0588a1.03493,1.03493,0,0,0-.26515-.78745,1.22684,1.22684,0,0,0-.85532-.24831,2.94271,2.94271,0,0,0-.5471.04619,4.53173,4.53173,0,0,0-.57283.15592l-.1092.01679a.30554.30554,0,0,1-.22315-.09711.31533.31533,0,0,1-.09713-.23152.33069.33069,0,0,1,.22735-.32811,3.66356,3.66356,0,0,1,1.457-.30343,1.975,1.975,0,0,1,.99392.23571,1.4856,1.4856,0,0,1,.58122.60214,1.786,1.786,0,0,1,.19322.82947v2.38285a.36627.36627,0,0,1-.11761.274.39023.39023,0,0,1-.66525-.27347v-.20263a2.08574,2.08574,0,0,1-1.57516.63155A1.57589,1.57589,0,0,1,86.00262,127.90792Zm1.67176-.7119a1.92936,1.92936,0,0,0,.58543-.45043v-.69874h-.90992q-1.26327,0-1.26275.65675,0,.6654.88418.66514a1.5348,1.5348,0,0,0,.70306-.17269Z"/><path class="a" d="M90.42879,127.90372a.37271.37271,0,0,1-.11393-.274v-3.61235a.386.386,0,0,1,.11393-.27771.36582.36582,0,0,1,.27355-.11812.40355.40355,0,0,1,.39589.39583v.337a1.64551,1.64551,0,0,1,1.31368-.77489h.042a.36022.36022,0,0,1,.26988.11393.38178.38178,0,0,1,.10921.27351.34444.34444,0,0,1-.11394.2651.39806.39806,0,0,1-.282.10553h-.042a1.44237,1.44237,0,0,0-.72824.18951,1.67912,1.67912,0,0,0-.56863.54283v2.55977a.36682.36682,0,0,1-.11813.274.38777.38777,0,0,1-.27776.11339A.37306.37306,0,0,1,90.42879,127.90372Z"/><path class="a" d="M99.844,124.41316a2.02024,2.02024,0,0,1,.156.79166v2.42486a.3668.3668,0,0,1-.11814.274.39023.39023,0,0,1-.66525-.274v-2.27314a1.29417,1.29417,0,0,0-.19793-.80846.79339.79339,0,0,0-.65263-.24411,1.11255,1.11255,0,0,0-.68205.20632,2.16777,2.16777,0,0,0-.52243.59322v2.52617a.36819.36819,0,0,1-.11762.274.39023.39023,0,0,1-.66526-.274v-2.2732a1.29417,1.29417,0,0,0-.19794-.80846.79406.79406,0,0,0-.65265-.24411,1.113,1.113,0,0,0-.68255.20632,2.16694,2.16694,0,0,0-.52191.59322v2.52617a.36682.36682,0,0,1-.11813.274.39023.39023,0,0,1-.66525-.274v-3.61235a.386.386,0,0,1,.11393-.27771.36582.36582,0,0,1,.27355-.11812.40355.40355,0,0,1,.39589.39583v.31184a2.01519,2.01519,0,0,1,.598-.55174,1.60382,1.60382,0,0,1,.82538-.19792,1.34971,1.34971,0,0,1,.79545.24,1.366,1.366,0,0,1,.493.61891,1.70012,1.70012,0,0,1,1.54942-.85887,1.29183,1.29183,0,0,1,.80018.23571A1.42025,1.42025,0,0,1,99.844,124.41316Z"/><path class="a" d="M3.46752,119.43493v-3.617a8.91408,8.91408,0,0,1-1.59278,2.14041q-.96211.96166-1.2776.96213-.5973,0-.59714-.71337a.6249.6249,0,0,1,.174-.38989A3.84366,3.84366,0,0,1,.73,117.31113a9.16993,9.16993,0,0,0,2.55521-2.87039H.96212q-.74626,0-.74657-.61405,0-.59728.74657-.59713h2.5054V111.67H.74658a.88162.88162,0,0,1-.55594-.14114.55354.55354,0,0,1-.174-.45631q0-.61343.73-.61374H1.80833a18.80289,18.80289,0,0,0-.3982-2.27324l-.0166-.13284H.813a.53539.53539,0,0,1-.59744-.61374.52815.52815,0,0,1,.59744-.59745H3.418v-.94582q0-.84589.69677-.8459.69692,0,.69676.8459v.94582H7.4a.52094.52094,0,0,1,.58084.59745q0,.61389-.58084.61374H6.65338l-.46461,2.40608H7.46638q.72966,0,.73.61374a.55354.55354,0,0,1-.174.45631.88219.88219,0,0,1-.55593.14114H4.76173v1.55957H7.25052q.74673,0,.74688.61374,0,.59728-.74688.59744H4.76173v1.21119a.61591.61591,0,0,1,.58084-.33178,2.7023,2.7023,0,0,1,1.11156.63035q.82975.631.8296.96243a.5354.5354,0,0,1-.59714.614,1.13,1.13,0,0,1-.64726-.34869l-1.2776-1.11156v3.3682q0,.77948-.647.77979Q3.46768,120.21472,3.46752,119.43493ZM5.4588,108.13574v-.083H2.55521q.19879.83022.4148,2.37287v.03321H5.0274Zm6.60357,11.23278v-7.566H9.85554l-.03321,1.16169a13.28259,13.28259,0,0,1-.96212,5.25955q-.84636,1.72545-1.51006,1.72561a.63812.63812,0,0,1-.71337-.73028,1.91014,1.91014,0,0,1,.531-.8791,4.79675,4.79675,0,0,0,.8791-1.60969,10.33077,10.33077,0,0,0,.46461-2.356q.11623-1.344.14944-3.51734l-.0166-3.15265a1.74186,1.74186,0,0,1,.282-1.07835,2.24857,2.24857,0,0,1,1.31081-.531q1.12816-.19926,1.77543-.365.48107-.11577.54763-.13283-.11624.03366.71337-.18234a3.2509,3.2509,0,0,1,.531-.13284q.74626,0,.74657.79639,0,.41511-.614.56424-2.10735.51427-3.31839.69676-.73012.09963-.73,1.14477v2.00758h4.64581q.61342,0,.61374.66386,0,.64711-.61374.647H13.423v7.566q0,.81268-.68047.813Q12.06222,120.18151,12.06237,119.36852Z"/><path class="a" d="M25.18649,107.9368v1.52636h4.52958a1.83525,1.83525,0,0,1,1.261.39819,1.52167,1.52167,0,0,1,.39819,1.19459v7.118a1.84458,1.84458,0,0,1-.448,1.44365,2.1095,2.1095,0,0,1-1.45994.4643H28.43846q-.86295,0-.8628-.73,0-.71352.8628-.71337h.92923a.63387.63387,0,0,0,.46461-.14943.714.714,0,0,0,.166-.48122v-6.587a.63473.63473,0,0,0-.69707-.69676h-1.6758l-.365,2.02418h1.02885q.69692,0,.69677.59745,0,.58068-.69677.58053H25.16989v1.46025H28.5713q.69692,0,.69676.61374,0,.58116-.69676.58084H25.16989v2.439q0,.79655-.66356.79639-.66371,0-.66386-.79639v-2.439H20.54068q-.69691,0-.69676-.58084,0-.61343.69676-.61374h3.30179v-1.46025H20.78975q-.69692,0-.69707-.59714,0-.58068.69707-.58084h1.01193l-.34838-2.02418H19.84392q-.6471,0-.68016.69676v7.86457q0,.82976-.69707.8296-.69692,0-.69676-.8296v-8.16314a1.83525,1.83525,0,0,1,.39819-1.261,1.52746,1.52746,0,0,1,1.261-.39819h4.38014V107.9368h-5.9231q-.76334,0-.76349-.64726,0-.6305.76349-.63035h5.9231v-.8462a.60886.60886,0,0,1,.68047-.69707.616.616,0,0,1,.69676.69707v.8462h6.07285q.77947,0,.77978.63035,0,.6471-.77978.64726Zm1.178,2.78736H22.6977l.38159,2.00758h2.90359Z"/><path class="a" d="M36.70123,112.931a4.6765,4.6765,0,0,1-2.14041.8296q-.58069,0-.58054-.66387,0-.48107.64695-.68016,2.605-.76287,3.18587-2.37256H34.90951q-.66417,0-.66387-.58084,0-.58068.66387-.58084h3.08593l.083-1.45994H36.20341a5.44513,5.44513,0,0,1-.62205.8545q-.274.29058-.45631.29027a.53518.53518,0,0,1-.61374-.59714,1.96916,1.96916,0,0,1,.3982-.73028,8.77711,8.77711,0,0,0,.8628-1.626.76.76,0,0,1,.71337-.54763q.6471,0,.64695.46461a2.05207,2.05207,0,0,1-.29857.74688h4.679q.6471,0,.64695.58054,0,.56454-.64695.56424h-2.157l-.06641,1.45994h2.356q.64711,0,.64726.58084a.561.561,0,0,1-.15774.43971.71814.71814,0,0,1-.48952.14113H39.107a3.26071,3.26071,0,0,1-.29857.91231.51743.51743,0,0,1,.38159-.14913,2.36373,2.36373,0,0,1,.639.174,11.62788,11.62788,0,0,1,1.13646.50612q1.29421.631,1.29421.94583,0,.59728-.63065.59714a2.91117,2.91117,0,0,1-.91231-.43141q-.714-.41418-1.37723-.73a2.36483,2.36483,0,0,1-.59745-.34838.29992.29992,0,0,1-.06611-.33178A5.81508,5.81508,0,0,1,36.70123,112.931Zm10.32015.813a1.75039,1.75039,0,0,1,.4148,1.21119v3.10253a1.85063,1.85063,0,0,1-.4148,1.27761,1.55462,1.55462,0,0,1-1.26069.39819H37.481a1.72367,1.72367,0,0,1-1.261-.39819,1.66041,1.66041,0,0,1-.4148-1.27761v-3.03611A1.85009,1.85009,0,0,1,36.22,113.744a1.58831,1.58831,0,0,1,1.19489-.39819h8.34579A1.62216,1.62216,0,0,1,47.02138,113.744Zm-.97873,1.34372q0-.53042-.56423-.54733H37.76328a.51.51,0,0,0-.56423.54733v.813h8.8436Zm0,1.95807h-8.8436v.92891a.54413.54413,0,0,0,.14113.4148.65177.65177,0,0,0,.4231.14944h7.71514a.54433.54433,0,0,0,.4148-.14114.65446.65446,0,0,0,.14943-.4231Zm2.26464-10.4696a1.2753,1.2753,0,0,1,.29057,1.01194v3.70029a1.44494,1.44494,0,0,1-.31548,1.03684,1.233,1.233,0,0,1-1.01193.27366H44.00187a1.47081,1.47081,0,0,1-1.03715-.30687,1.24688,1.24688,0,0,1-.29027-1.00363v-3.70029a1.444,1.444,0,0,1,.31518-1.03684,1.27408,1.27408,0,0,1,1.01224-.29027h3.26858A1.44549,1.44549,0,0,1,48.30729,106.57617Zm-1.03684,4.16459v-2.605q0-.68031-.64726-.647h-1.991q-.66372,0-.64695.647v2.605q0,.66372.64695.647h1.991Q47.3035,111.38772,47.27045,110.74076Z"/><path class="a" d="M51.11156,110.42559a.49121.49121,0,0,1-.15743-.39819q0-.48107.51442-.51443l2.522-.14944.09932-.0166v-.73H52.0823a.56873.56873,0,0,1-.3899-.12453.4502.4502,0,0,1-.14113-.35669q0-.46446.531-.46461h2.00757v-.69676H51.6841q-.56408,0-.56424-.49782,0-.49767.56424-.49782h2.40577v-.3982q0-.58068.64726-.58053.63,0,.63035.58053v.3982H57.5577q.54749,0,.54763.49782,0,.49767-.54763.49782H55.36748v.69676h1.792q.54747,0,.54763.48122,0,.46491-.54763.46461h-1.792v.61374l1.95807-.13253a.45471.45471,0,0,1,.53072.49782.44709.44709,0,0,1-.3982.48091l-2.09059.166v.33178q0,.54749-.63035.54763-.6471,0-.64726-.54763v-.21555l-2.55521.18234A.57517.57517,0,0,1,51.11156,110.42559Zm14.958,3.11914q0,.51472-.59745.51442H64.36052v.3982a1.48411,1.48411,0,0,1-.33208,1.07,1.38444,1.38444,0,0,1-1.06175.32378H53.01152a.723.723,0,0,1-.48122-.14113.48409.48409,0,0,1-.166-.3899q0-.53086.64726-.531h9.557a.37613.37613,0,0,0,.29027-.09963.51694.51694,0,0,0,.10793-.31517v-.31518H51.6675a.68922.68922,0,0,1-.45631-.13283.47011.47011,0,0,1-.15744-.38159q0-.51381.61375-.51442H62.96669v-.282a.39817.39817,0,0,0-.09133-.29027.47886.47886,0,0,0-.30687-.10792H53.161a.723.723,0,0,1-.48122-.14114.54078.54078,0,0,1,0-.77978.72462.72462,0,0,1,.48122-.14083h9.80573a1.51228,1.51228,0,0,1,1.08665.33177,1.31758,1.31758,0,0,1,.30718,1.04515v.365h1.11156Q66.06938,113.03031,66.06953,113.54473Zm-12.54359,3.46783a3.67364,3.67364,0,0,1-.63065,1.52636q-.61391,1.01193-1.178.96243-.73013-.08349-.63035-.66386a1.293,1.293,0,0,1,.24876-.48091,14.25523,14.25523,0,0,0,.87941-1.52667.7365.7365,0,0,1,.64695-.46461A.57963.57963,0,0,1,53.52594,117.01256Zm9.03425.24045a.73526.73526,0,0,1,.17434.53933,2.17479,2.17479,0,0,1-.56423,1.6758,2.08133,2.08133,0,0,1-1.02055.365,17.01,17.01,0,0,1-2.36426.11623,17.19429,17.19429,0,0,1-3.73319-.21586.93836.93836,0,0,1-.647-.97873v-1.92486a.66377.66377,0,0,1,1.32711,0v1.261a1.12409,1.12409,0,0,0,.06642.48122.331.331,0,0,0,.28227.13283,19.93725,19.93725,0,0,0,2.38917.09932h.813q.79655-.0166,1.16138-.04951a2.00752,2.00752,0,0,0,.59744-.13283.38209.38209,0,0,0,.22385-.27366,4.57336,4.57336,0,0,0,.10793-.67217.69483.69483,0,0,1,.19894-.4397.6245.6245,0,0,1,.448-.15744A.73521.73521,0,0,1,62.56019,117.253Zm-4.75373-.15743a.62905.62905,0,0,1-.24876-.4148q0-.53088.61405-.531a1.81389,1.81389,0,0,1,1.01194.531q.56408.49767.56423.8296,0,.58068-.64726.58053a.60619.60619,0,0,1-.33177-.14913q-.19926-.14943-.56424-.48122Zm.38159-7.25083q0-.49767.56423-.49782h2.522v-.73h-2.074q-.53133,0-.531-.48122,0-.46446.531-.46461h2.074v-.69676H58.96814q-.56454,0-.56424-.49782,0-.49767.56424-.49782h2.30614v-.3982q0-.58068.63066-.58053.66324,0,.66355.58053v.3982H65.1237q.56362,0,.56393.49782,0,.49767-.56393.49782H62.56849v.69676h2.04079q.56408,0,.56423.48122,0,.46491-.56423.46461H62.56849v.73h2.62163q.56363,0,.56393.49782,0,.49767-.56393.49782H62.56849v.23215q0,.54749-.66355.54763-.631,0-.63066-.54763v-.23215h-2.522Q58.18821,110.34257,58.18805,109.84475Zm7.66562,8.87682a.53038.53038,0,0,1-.19894.4397.77888.77888,0,0,1-.49782.15743.67537.67537,0,0,1-.38989-.10762,1.37835,1.37835,0,0,1-.32379-.34038q-.149-.21587-.32347-.43141-.17435-.21538-.27366-.34838a4.56585,4.56585,0,0,1-.8296-1.2776q0-.5973.69676-.59714.44786,0,1.29421,1.02854A2.98463,2.98463,0,0,1,65.85367,118.72157Z"/><path class="a" d="M83.12578,119.56777a.56453.56453,0,0,1-.63035.647,8.074,8.074,0,0,1-3.98225-1.095,5.2719,5.2719,0,0,1-2.5549-2.98661H73.63522v2.38916l2.62163-.4314a.42088.42088,0,0,1,.4231.11623.69727.69727,0,0,1,.14114.46461.56763.56763,0,0,1-.23246.46461,2.38847,2.38847,0,0,1-.63865.18234q-.55625.11577-1.35233.24907a33.09634,33.09634,0,0,1-3.48443.54732.54985.54985,0,0,1-.61374-.63034.61674.61674,0,0,1,.13253-.365q.14943-.23246,1.02885-.33178l.71336-.06641v-2.58842h-2.157a11.00845,11.00845,0,0,1-.64695,2.82057q-.41511,1.11156-.94583,1.11156-.68031,0-.68016-.71337a1.57391,1.57391,0,0,1,.23215-.63034,9.80336,9.80336,0,0,0,.8462-4.6126v-1.22779q0-1.2444,1.36063-1.2444h11.7472q.61343,0,.61374.49782a.45487.45487,0,0,1-.14913.38159.75551.75551,0,0,1-.46461.11592H70.89767a.55608.55608,0,0,0-.54763.29888l-.083,2.20652H82.346q.61389,0,.614.49782,0,.49767-.614.49782H77.18607a4.4887,4.4887,0,0,0,1.29421,1.55957l2.1235-1.27761a.776.776,0,0,1,.39819-.14913q.66372,0,.66387.58054,0,.4317-2.24,1.36062l-.04981.01661a11.008,11.008,0,0,0,3.08624.69676Q83.12547,119.00354,83.12578,119.56777ZM69.3049,109.6455V107.356q0-1.2444,1.3105-1.2444h2.5054v-.39819q0-.66326.58084-.66356.59728,0,.59745.66356v.39819H76.9204v-.39819q0-.66326.59745-.66356.59728,0,.59714.66356v.39819H80.6868q1.29421,0,1.29421,1.2444v2.28954a1.12936,1.12936,0,0,1-1.29421,1.261H70.6154Q69.3046,110.9065,69.3049,109.6455Zm1.22779-1.64259H73.1208V107.074H70.9973a.41062.41062,0,0,0-.46461.46461Zm0,1.46025a.41062.41062,0,0,0,.46461.46461h2.1235v-.99564H70.53269ZM81.21783,113.379q.59728,0,.59744.4809,0,.48153-.59744.48122H71.69406q-.58114,0-.58084-.48122,0-.481.58084-.4809Zm-6.91874-6.305v.92892H76.9204V107.074Zm0,1.85814v.99564H76.9204v-.99564Zm3.8159-.92922h2.65483v-.46431a.41074.41074,0,0,0-.46461-.46461H78.115Zm0,1.92486h2.19022a.41074.41074,0,0,0,.46461-.46461v-.531H78.115Z"/><path class="a" d="M89.79577,115.07109q-3.23553,1.90857-4.1812,1.90826-.56408,0-.56393-.614a.63132.63132,0,0,1,.11593-.39819.9672.9672,0,0,1,.38159-.26537l1.52666-.63065v-4.92777H85.847q-.76334,0-.76349-.61374,0-.6139.76349-.614h1.22779v-2.97a1.01,1.01,0,0,1,.15744-.63865.62109.62109,0,0,1,.50612-.191q.66324,0,.66386.8296v2.97h1.07835q.76288,0,.76318.614,0,.61389-.76318.61374H88.40224v4.36384l1.178-.54763a.44088.44088,0,0,1,.19894-.04981.46438.46438,0,0,1,.34008.14113.48362.48362,0,0,1,.14114.35669A.76973.76973,0,0,1,89.79577,115.07109ZM93.33,112.88118a8.89053,8.89053,0,0,1-.448.8462h5.37577q1.31036,0,1.31082,1.14477a18.39931,18.39931,0,0,1-.34838,3.73319,2.2397,2.2397,0,0,1-.28228.72167,1.65046,1.65046,0,0,1-.4314.48951,1.57007,1.57007,0,0,1-.647.25706,5.651,5.651,0,0,1-1.01224.07472,1.98543,1.98543,0,0,1-.87111-.13253.5343.5343,0,0,1-.24046-.51442.61121.61121,0,0,1,.174-.46461.706.706,0,0,1,.50612-.166,7.36991,7.36991,0,0,0,.8379-.03321.71748.71748,0,0,0,.4148-.18234.90954.90954,0,0,0,.22416-.49782,24.06529,24.06529,0,0,0,.29857-2.9202v-.03321a.27592.27592,0,0,0-.10793-.23215.436.436,0,0,0-.27366-.083h-.64726a7.00932,7.00932,0,0,1-5.79058,5.24295.69579.69579,0,0,1-.16573.0166.51722.51722,0,0,1-.4065-.15743.63713.63713,0,0,1-.14114-.43971q0-.41509.58084-.56423a6.89942,6.89942,0,0,0,2.9285-1.48485,5.71657,5.71657,0,0,0,1.6675-2.61333H94.69033a6.28058,6.28058,0,0,1-4.08157,3.58375.97964.97964,0,0,1-.33178.06642.5551.5551,0,0,1-.4231-.16574.60079.60079,0,0,1-.15774-.4314q0-.34869.448-.51442A5.75071,5.75071,0,0,0,93.33,114.88875H92.13543a5.16,5.16,0,0,1-.67217.71337,9.01268,9.01268,0,0,1-.82129.66386,3.39168,3.39168,0,0,1-.72167.4065,1.53509,1.53509,0,0,1-.50612.12422.47658.47658,0,0,1-.531-.54732.41328.41328,0,0,1,.14114-.29058,2.65434,2.65434,0,0,1,.4231-.32347,6.68885,6.68885,0,0,0,1.44364-1.21119,7.815,7.815,0,0,0,1.02854-1.543H90.45963a.85.85,0,0,1-.54763-.14944.525.525,0,0,1-.18265-.43141.55856.55856,0,0,1,.191-.45631.82554.82554,0,0,1,.53933-.15743h8.81009q.73012,0,.73028.61374,0,.58116-.73028.58085Zm-1.86675-2.27325a1.64535,1.64535,0,0,1-.37328-1.21119v-2.24a1.35914,1.35914,0,0,1,1.59277-1.59278h4.64581a1.67308,1.67308,0,0,1,1.22779.37329,1.70236,1.70236,0,0,1,.365,1.21949v2.24a1.644,1.644,0,0,1-.37329,1.21119,1.69994,1.69994,0,0,1-1.21949.365H92.68275A1.701,1.701,0,0,1,91.46326,110.60793Zm.98734-2.92019H97.561v-.3982a.58688.58688,0,0,0-.11623-.4065.55487.55487,0,0,0-.4148-.12453H92.98163a.453.453,0,0,0-.531.531Zm0,1.59277a.453.453,0,0,0,.531.531H97.03a.45327.45327,0,0,0,.531-.531v-.46461H92.4506Z"/></svg>